<?xml version="1.0" standalone="no"?>
<!DOCTYPE svg PUBLIC "-//W3C//DTD SVG 1.1//EN" "http://www.w3.org/Graphics/SVG/1.1/DTD/svg11.dtd" >
<svg xmlns="http://www.w3.org/2000/svg" xmlns:xlink="http://www.w3.org/1999/xlink" version="1.1">
<metadata>
Created by FontForge 20170731 at Tue Sep 26 13:57:54 2017
 By Aleksey,,,
Copyright (c) 2017 Votorantim SA. All rights reserved.
</metadata>
<defs>
<font id="VotorantimSans-Bold" horiz-adv-x="637" >
  <font-face 
    font-family="Votorantim Sans"
    font-weight="700"
    font-stretch="normal"
    units-per-em="1000"
    panose-1="2 1 8 3 3 2 2 5 2 3"
    ascent="800"
    descent="-200"
    x-height="511"
    cap-height="700"
    bbox="-192 -246 1039 946"
    underline-thickness="50"
    underline-position="-150"
    unicode-range="U+0020-2212"
  />
<missing-glyph horiz-adv-x="500" 
d="M410 -200h-317v1000h317v-1000zM168 733v-33h65v-37h-66v-33h166v33h-66v37h66v33h-165zM167 604v-104h166v34h-66v70h-100zM233 534h-33v36h33v-36zM167 473v-33h66v-37h-66v-33h100v70h66v33h-166zM300 413v-66h-133v-34h166v100h-33zM233 291v-56h34v23h33v-47h-100
v80h-33v-113h166v113h-100zM167 118v-113h166v113h-166zM300 38h-100v47h100v-47zM167 -18v-33h70l-70 -47v-33h166v33h-102l70 47h32v33h-166z" />
    <glyph glyph-name="f_f" unicode="ff" horiz-adv-x="856" 
d="M643 512h169v-124h-169v-388h-148v388h-232v-388h-148v388h-93v124h93q3 88 52 144.5t140 56.5q55 0 88 -18q35 -19 35 -63v-49q-22 8 -39 10t-43 2q-41 0 -62 -21.5t-23 -61.5h232q3 89 52 145t144 56q59 0 89 -18q36 -22 36 -65v-49q-25 8 -42.5 11t-42.5 3
q-85 0 -88 -83z" />
    <glyph glyph-name=".notdef" horiz-adv-x="500" 
d="M410 -200h-317v1000h317v-1000zM168 733v-33h65v-37h-66v-33h166v33h-66v37h66v33h-165zM167 604v-104h166v34h-66v70h-100zM233 534h-33v36h33v-36zM167 473v-33h66v-37h-66v-33h100v70h66v33h-166zM300 413v-66h-133v-34h166v100h-33zM233 291v-56h34v23h33v-47h-100
v80h-33v-113h166v113h-100zM167 118v-113h166v113h-166zM300 38h-100v47h100v-47zM167 -18v-33h70l-70 -47v-33h166v33h-102l70 47h32v33h-166z" />
    <glyph glyph-name=".null" horiz-adv-x="0" 
 />
    <glyph glyph-name="nonmarkingreturn" horiz-adv-x="333" 
 />
    <glyph glyph-name="space" unicode=" " horiz-adv-x="270" 
 />
    <glyph glyph-name="exclam" unicode="!" horiz-adv-x="277" 
d="M58 700h84q76 0 76 -74v-6l-10 -411h-138zM79 9q-23 22 -23 59t23.5 59.5t59.5 22.5q37 0 60 -22.5t23 -59.5t-23.5 -59t-59.5 -22q-37 0 -60 22z" />
    <glyph glyph-name="quotedbl" unicode="&#x22;" horiz-adv-x="468" 
d="M50 718h150l-9 -293h-133zM268 718h151l-9 -293h-133z" />
    <glyph glyph-name="numbersign" unicode="#" horiz-adv-x="657" 
d="M521 406l-17 -124h95v-120h-111l-17 -129h-122l17 129h-123l-17 -129h-122l17 129h-83v120h99l16 124h-95v120h111l17 130h123l-17 -130h122l17 130h123l-17 -130h82v-120h-98zM398 406h-122l-17 -124h123z" />
    <glyph glyph-name="dollar" unicode="$" 
d="M526 65.5q-50 -50.5 -141 -67.5v-145h-139v140q-110 9 -188 50v126q52 -21 110.5 -33t114.5 -12q74 0 107.5 14t33.5 54q0 26 -18.5 43t-46.5 27.5t-77 23.5l-34 9q-57 16 -94.5 36.5t-61 59.5t-23.5 102q0 78 49 129.5t136 67.5v135h138v-132q60 -7 100 -27
q31 -16 41.5 -38t10.5 -64v-39q-38 16 -85.5 27.5t-92.5 11.5q-76 0 -110.5 -14t-34.5 -52q0 -23 18 -39t44.5 -26t73.5 -24q26 -7 43 -13q83 -26 129.5 -72.5t46.5 -128.5q0 -79 -50 -129.5z" />
    <glyph glyph-name="percent" unicode="%" horiz-adv-x="941" 
d="M92 357q-48 51 -48 148q0 64 24.5 108t65.5 65.5t89 21.5q83 0 131 -50.5t48 -144.5q0 -98 -50.5 -148.5t-128.5 -50.5q-83 0 -131 51zM620 700h138l-440 -700h-138zM273.5 431q17.5 25 17.5 74q0 48 -15.5 72t-51.5 24q-33 0 -51.5 -24.5t-18.5 -71.5q0 -49 16 -74
t53 -25q33 0 50.5 25zM587 38q-48 51 -48 148q0 63 25 107t65.5 66t88.5 22q83 0 131 -50.5t48 -144.5q0 -98 -50.5 -148.5t-128.5 -50.5q-83 0 -131 51zM769 112q18 25 18 74q0 48 -16 71.5t-52 23.5q-33 0 -51 -24t-18 -71q0 -49 15.5 -74t52.5 -25q33 0 51 25z" />
    <glyph glyph-name="ampersand" unicode="&#x26;" horiz-adv-x="702" 
d="M679 305h-71v-4q0 -94 -48 -171l109 -130h-156l-35 41q-76 -54 -182 -54q-83 0 -142.5 30.5t-90.5 81t-31 109.5q0 135 130 207q-39 63 -39 120q0 53 26.5 93t75.5 62.5t113 22.5q44 0 73 -7t55 -20t35.5 -35t9.5 -60v-36q-68 36 -145 36q-105 0 -105 -67q0 -22 11 -43
t35 -49l169 -202q17 45 17 94q0 47 -5 87h191v-106zM396 135l-164 191q-31 -19 -46 -44.5t-15 -60.5q0 -48 36 -78t102 -30q49 0 87 22z" />
    <glyph glyph-name="quotesingle" unicode="'" horiz-adv-x="250" 
d="M50 718h150l-9 -293h-133z" />
    <glyph glyph-name="parenleft" unicode="(" horiz-adv-x="370" 
d="M99.5 74q-37.5 113 -37.5 241q0 104 28.5 198t73.5 165q30 47 64 70t82 23h47q-72 -106 -109 -215t-37 -241q0 -130 37 -240.5t109 -215.5h-138q-82 102 -119.5 215z" />
    <glyph glyph-name="parenright" unicode=")" horiz-adv-x="370" 
d="M122 74.5q37 109.5 37 240.5q0 130 -37 240.5t-109 215.5h138q82 -103 120 -215.5t38 -240.5q0 -104 -29 -197.5t-74 -165.5q-30 -47 -64 -70t-82 -23h-46q71 106 108 215.5z" />
    <glyph glyph-name="asterisk" unicode="*" horiz-adv-x="486" 
d="M335 506l104 -50l-54 -94l-96 65l11 -114h-113l10 115l-95 -66l-55 94l104 50l-104 50l55 94l95 -65l-10 115h113l-11 -115l96 65l54 -94z" />
    <glyph glyph-name="plus" unicode="+" 
d="M558 274h-170v-168h-140v168h-169v134h169v169h140v-169h170v-134z" />
    <glyph glyph-name="comma" unicode="," horiz-adv-x="260" 
d="M82 126h132q-13 -127 -95 -264h-115q60 128 78 264z" />
    <glyph glyph-name="hyphen" unicode="-" horiz-adv-x="527" 
d="M66 360h395v-149h-395v149z" />
    <glyph glyph-name="period" unicode="." horiz-adv-x="260" 
d="M70 9q-23 22 -23 59t23.5 59.5t59.5 22.5q37 0 60 -22.5t23 -59.5t-23.5 -59t-59.5 -22q-37 0 -60 22z" />
    <glyph glyph-name="slash" unicode="/" horiz-adv-x="503" 
d="M335 740h154l-287 -756q-17 -47 -44 -69.5t-81 -22.5h-62z" />
    <glyph glyph-name="zero" unicode="0" 
d="M169.5 28.5q-63.5 41.5 -98 122t-34.5 195.5q0 114 38 194t102 120.5t141 40.5q86 0 149.5 -41t98 -120.5t34.5 -193.5q0 -116 -37 -196.5t-101 -121.5t-144 -41q-85 0 -148.5 41.5zM413.5 181q32.5 57 32.5 165t-29.5 163t-97.5 55q-62 0 -95 -56t-33 -162
q0 -110 29 -166t98 -56q63 0 95.5 57z" />
    <glyph glyph-name="one" unicode="1" 
d="M599 136v-136h-511v136h197v403l-207 -53v131l233 72h56q39 0 56 -21.5t17 -57.5v-474h159z" />
    <glyph glyph-name="two" unicode="2" 
d="M80 138q67 53 83 65q87 68 132 107.5t73.5 79.5t28.5 79q0 48 -30 71.5t-91 23.5q-86 0 -203 -49v132q125 54 227 54q126 0 189.5 -57t63.5 -155q0 -66 -31 -120t-80.5 -98.5t-144.5 -117.5q-2 -1 -23 -17h295v-136h-489v138z" />
    <glyph glyph-name="three" unicode="3" 
d="M174 2.5q-62 15.5 -115 43.5v124q58 -24 109 -37t103 -13q144 0 144 90q0 48 -49.5 68t-154.5 22v100l156 153h-306v135h403q37 0 55.5 -18t18.5 -57v-44l-173 -172q96 -12 148.5 -60.5t52.5 -133.5q0 -64 -33 -113t-95 -76t-146 -27q-56 0 -118 15.5z" />
    <glyph glyph-name="four" unicode="4" 
d="M606 151h-92v-151h-142v151h-336v126l336 411h71q38 0 54.5 -21.5t16.5 -57.5v-332h92v-126zM372 277v232l-194 -232h194z" />
    <glyph glyph-name="five" unicode="5" 
d="M257 553l-16 -138q54 4 90 4q109 0 173.5 -54.5t64.5 -156.5q0 -65 -33.5 -115t-95.5 -78t-145 -28q-57 0 -114.5 14t-107.5 41v123q55 -22 103.5 -34t97.5 -12q69 0 105.5 23t36.5 70q0 49 -34.5 70.5t-108.5 21.5q-83 0 -173 -14l48 398h310q76 0 76 -78v-57h-277z" />
    <glyph glyph-name="six" unicode="6" 
d="M471 407.5q54 -24.5 85 -72.5t31 -115q0 -110 -68.5 -171.5t-183.5 -61.5q-132 0 -203.5 86.5t-71.5 238.5q0 112 37 200t107 138t165 50q52 0 87.5 -11t60.5 -34q18 -17 24.5 -40t6.5 -57v-31q-39 23 -74 32.5t-82 9.5q-79 0 -124 -40t-60 -122q70 25 142 25
q67 0 121 -24.5zM417 136.5q29 27.5 29 77.5q0 48 -31 75.5t-96 27.5q-56 0 -119 -24q2 -86 36 -135t99 -49q53 0 82 27.5z" />
    <glyph glyph-name="seven" unicode="7" 
d="M396 550h-336v138h425q74 0 74 -78v-40l-212 -570h-172z" />
    <glyph glyph-name="eight" unicode="8" 
d="M566.5 291.5q27.5 -40.5 27.5 -94.5q0 -104 -76 -157t-200 -53q-128 0 -201.5 54.5t-73.5 155.5q0 54 27.5 94t74.5 66q-85 56 -85 147q0 96 73.5 146.5t184.5 50.5q122 0 190.5 -51.5t68.5 -145.5q0 -92 -84 -146q46 -26 73.5 -66.5zM202 496q0 -83 116 -83t116 83
q0 43 -29 62.5t-87 19.5q-116 0 -116 -82zM447 202q0 46 -33 69t-95 23q-128 0 -128 -92q0 -91 128 -91t128 91z" />
    <glyph glyph-name="nine" unicode="9" 
d="M507 611q67 -89 67 -245q0 -173 -74.5 -276t-219.5 -103q-53 0 -103.5 13.5t-83.5 33.5v121q37 -20 75.5 -28.5t88.5 -8.5q83 0 122.5 38.5t50.5 122.5q-72 -24 -144 -24q-66 0 -119.5 24t-84.5 72t-31 117q0 72 33.5 124.5t92 80t132.5 27.5q131 0 198 -89zM221.5 397
q31.5 -28 96.5 -28q54 0 117 23q-5 186 -128 186q-53 0 -85 -27t-32 -77q0 -49 31.5 -77z" />
    <glyph glyph-name="colon" unicode=":" horiz-adv-x="260" 
d="M70 372q-23 22 -23 59t23.5 59.5t59.5 22.5q37 0 60 -22.5t23 -59.5t-23.5 -59t-59.5 -22q-37 0 -60 22zM70 9q-23 22 -23 59t23.5 59.5t59.5 22.5q37 0 60 -22.5t23 -59.5t-23.5 -59t-59.5 -22q-37 0 -60 22z" />
    <glyph glyph-name="semicolon" unicode=";" horiz-adv-x="260" 
d="M79 372q-23 22 -23 59t23.5 59.5t59.5 22.5q37 0 60 -22.5t23 -59.5t-23.5 -59t-59.5 -22q-37 0 -60 22zM77 126h132q-13 -127 -95 -264h-115q60 128 78 264z" />
    <glyph glyph-name="less" unicode="&#x3c;" 
d="M534 452l-294 -107l294 -110v-142l-431 185v135l431 181v-142z" />
    <glyph glyph-name="equal" unicode="=" 
d="M97 528h443v-135h-443v135zM97 295h443v-135h-443v135z" />
    <glyph glyph-name="greater" unicode="&#x3e;" 
d="M534 409v-134l-431 -182v142l293 107l-293 110v142z" />
    <glyph glyph-name="question" unicode="?" horiz-adv-x="585" 
d="M195 361q81 19 124 38.5t59 41.5t16 53q0 41 -34.5 62.5t-101.5 21.5q-105 0 -220 -48v130q124 53 239 53q127 0 199.5 -53t72.5 -147q0 -84 -50.5 -135t-161.5 -88l-3 -81h-136zM206 9q-23 22 -23 59t23.5 59.5t59.5 22.5q37 0 60.5 -22.5t23.5 -59.5t-24 -59t-60 -22
q-37 0 -60 22z" />
    <glyph glyph-name="at" unicode="@" horiz-adv-x="1012" 
d="M831.5 184.5q36.5 57.5 36.5 146.5q0 81 -43 144.5t-118.5 98.5t-170.5 35q-113 0 -202.5 -47.5t-140 -131t-50.5 -188.5q0 -108 48 -191.5t133 -129.5t192 -46q65 0 124 9t102 27v-89q-99 -39 -227 -39q-137 0 -244 57.5t-167 162t-60 239.5q0 129 64.5 234t176.5 165
t251 60q120 0 218.5 -48t155.5 -132.5t57 -189.5q0 -93 -37 -165t-103.5 -112t-153.5 -40h-12q-60 0 -69 65q-67 -65 -141 -65q-52 0 -92.5 27.5t-63.5 77t-23 114.5q0 78 36.5 132.5t95.5 81t126 26.5q53 0 100 -12t98 -34v-316q67 16 103.5 73.5zM590 354q-30 6 -60 6
q-56 0 -88 -32.5t-32 -89.5q0 -111 90 -111q43 0 90 39v188z" />
    <glyph glyph-name="A" unicode="A" horiz-adv-x="716" 
d="M711 0h-82q-50 0 -76.5 19.5t-40.5 64.5l-27 82h-265l-59 -166h-156l270 700h168zM444 291l-86 261l-93 -261h179z" />
    <glyph glyph-name="B" unicode="B" horiz-adv-x="665" 
d="M605.5 298.5q27.5 -43.5 27.5 -100.5q0 -98 -74 -148t-205 -50h-276v700h268q132 0 198 -47t66 -144q0 -91 -85 -142q53 -25 80.5 -68.5zM221 415h103q76 0 107 17.5t31 65.5q0 47 -30.5 65t-103.5 18h-107v-166zM447.5 139q32.5 20 32.5 68q0 50 -28 70t-94 20h-137
v-178h122q72 0 104.5 20z" />
    <glyph glyph-name="C" unicode="C" horiz-adv-x="635" 
d="M196 32q-71 45 -107 127t-36 192t44.5 192t121 126t171.5 44q91 0 149 -36q27 -17 37.5 -40.5t10.5 -63.5v-41q-49 24 -88.5 34t-92.5 10q-98 0 -148 -62.5t-50 -162.5q0 -106 46.5 -166.5t136.5 -60.5q59 0 104 10.5t103 36.5v-127q-58 -32 -109 -44.5t-120 -12.5
q-102 0 -173 45z" />
    <glyph glyph-name="D" unicode="D" horiz-adv-x="745" 
d="M530 660q76 -40 119 -118.5t43 -189.5q0 -114 -45.5 -193t-122.5 -119t-170 -40h-276v700h276q100 0 176 -40zM488.5 192q47.5 56 47.5 160q0 103 -45 157.5t-137 54.5h-124v-428h124q87 0 134.5 56z" />
    <glyph glyph-name="E" unicode="E" horiz-adv-x="609" 
d="M576 137v-137h-498v700h418q76 0 76 -78v-59h-345v-143h294v-134h-294v-149h349z" />
    <glyph glyph-name="F" unicode="F" horiz-adv-x="581" 
d="M232 563v-165h279v-135h-279v-263h-154v700h403q76 0 76 -78v-59h-325z" />
    <glyph glyph-name="G" unicode="G" horiz-adv-x="701" 
d="M637 44q-62 -30 -126.5 -43.5t-136.5 -13.5q-100 0 -172.5 44.5t-110.5 127t-38 193.5q0 112 44.5 193.5t122.5 124.5t176 43q50 0 94.5 -9.5t73.5 -25.5q29 -17 40.5 -41t11.5 -63v-39q-47 24 -92.5 34.5t-99.5 10.5q-113 0 -166 -61.5t-53 -166.5q0 -100 43.5 -165
t141.5 -65q67 0 118 13v134h-133v120h262v-345z" />
    <glyph glyph-name="H" unicode="H" horiz-adv-x="745" 
d="M649 680q18 -20 18 -59v-621h-155v285h-279v-285h-155v700h155v-279h279v279h80q39 0 57 -20z" />
    <glyph glyph-name="I" unicode="I" horiz-adv-x="311" 
d="M78 700h80q39 0 57 -20t18 -59v-621h-155v700z" />
    <glyph glyph-name="J" unicode="J" horiz-adv-x="534" 
d="M27 33v128q78 -37 147 -37t100 36t31 108v432h80q39 0 57 -20t18 -59v-374q0 -117 -64 -188.5t-181 -71.5q-96 0 -188 46z" />
    <glyph glyph-name="K" unicode="K" horiz-adv-x="719" 
d="M714 0h-117q-42 0 -70 20t-52 55l-167 232l-79 -85v-222h-151v700h151v-295l273 295h177l-270 -287z" />
    <glyph glyph-name="L" unicode="L" horiz-adv-x="571" 
d="M549 137v-137h-471v700h80q39 0 57 -20t18 -59v-484h316z" />
    <glyph glyph-name="M" unicode="M" horiz-adv-x="847" 
d="M78 700h160l188 -339l183 339h85q39 0 57 -20t18 -59v-621h-149v468l-144 -257h-105l-145 253v-464h-148v700z" />
    <glyph glyph-name="N" unicode="N" horiz-adv-x="744" 
d="M78 700h143l299 -448v448h71q39 0 57 -20t18 -59v-621h-143l-299 438v-438h-146v700z" />
    <glyph glyph-name="O" unicode="O" horiz-adv-x="767" 
d="M212 30.5q-75 43.5 -117 126t-42 195.5t45.5 194.5t121 124t163.5 42.5q97 0 171.5 -43t116.5 -125t42 -193q0 -114 -44.5 -196.5t-120 -125.5t-165.5 -43q-96 0 -171 43.5zM512 185q46 61 46 167q0 104 -43.5 164t-131.5 60q-82 0 -128 -60t-46 -164q0 -107 43 -167.5
t131 -60.5q83 0 129 61z" />
    <glyph glyph-name="P" unicode="P" horiz-adv-x="658" 
d="M554.5 639.5q65.5 -60.5 65.5 -169.5q0 -112 -72 -174t-198 -62h-118v-234h-154v700h281q130 0 195.5 -60.5zM429 389q33 23 33 80q0 51 -28.5 75t-97.5 24h-104v-202h98q66 0 99 23z" />
    <glyph glyph-name="Q" unicode="Q" horiz-adv-x="767" 
d="M726 -68h-75q-53 0 -80.5 18t-55.5 63q-63 -26 -132 -26q-96 0 -171 43.5t-117 126t-42 195.5t45.5 194.5t121 124t163.5 42.5q97 0 171.5 -43t116.5 -125t42 -193q0 -82 -24 -148.5t-67 -114.5zM439 132l-94 148h152l37 -57q24 53 24 129q0 104 -43.5 164t-131.5 60
q-82 0 -128 -60t-46 -164q0 -107 43 -167.5t131 -60.5q29 0 56 8z" />
    <glyph glyph-name="R" unicode="R" horiz-adv-x="667" 
d="M657 0h-83q-52 0 -80 20t-51 64l-87 167h-14h-112v-251h-152v700h278q130 0 196 -59t66 -165q0 -67 -31.5 -116t-88.5 -77zM328 380q68 0 100.5 21t32.5 75q0 49 -28.5 71.5t-98.5 22.5h-104v-190h98z" />
    <glyph glyph-name="S" unicode="S" horiz-adv-x="599" 
d="M149 0q-64 13 -115 40v127q52 -22 111.5 -34t114.5 -12q75 0 108.5 14.5t33.5 57.5q0 28 -18.5 46.5t-47.5 29.5t-79 24q-74 19 -119 43t-69 65t-24 107q0 62 31.5 108.5t90.5 71.5t138 25q108 0 166 -30q32 -17 42.5 -39t10.5 -65v-38q-42 18 -92 28.5t-88 10.5
q-77 0 -111 -14.5t-34 -54.5q0 -36 34 -55t103 -38q110 -29 165.5 -78t55.5 -144q0 -99 -75 -154t-206 -55q-63 0 -127 13z" />
    <glyph glyph-name="T" unicode="T" horiz-adv-x="617" 
d="M596 563h-210v-563h-154v563h-211v137h500q39 0 57 -20t18 -59v-58z" />
    <glyph glyph-name="U" unicode="U" horiz-adv-x="739" 
d="M148 75.5q-76 88.5 -76 262.5v362h155v-360q0 -108 31 -162t112 -54q76 0 109 55t33 161v360h80q75 0 75 -79v-282q0 -175 -79.5 -263.5t-217.5 -88.5q-146 0 -222 88.5z" />
    <glyph glyph-name="V" unicode="V" horiz-adv-x="700" 
d="M695 700l-260 -700h-171l-259 700h81q49 0 78 -20t42 -64l146 -446l183 530h160z" />
    <glyph glyph-name="W" unicode="W" horiz-adv-x="1018" 
d="M15 700h73q48 0 75.5 -24t37.5 -70l100 -433l131 527h169l119 -528l125 528h158l-200 -700h-171l-122 516l-125 -516h-172z" />
    <glyph glyph-name="X" unicode="X" horiz-adv-x="687" 
d="M504 0l-166 245l-162 -245h-171l247 360l-238 340h105q46 0 76 -22t61 -69l88 -133l148 224h166l-230 -338l255 -362h-179z" />
    <glyph glyph-name="Y" unicode="Y" horiz-adv-x="680" 
d="M262 272l-257 428h94q46 0 75.5 -23t54.5 -70l112 -201l170 294h164l-258 -432v-268h-155v272z" />
    <glyph glyph-name="Z" unicode="Z" horiz-adv-x="609" 
d="M41 132l344 429h-339v139h441q77 0 77 -78v-57l-341 -426h348v-139h-530v132z" />
    <glyph glyph-name="bracketleft" unicode="[" horiz-adv-x="434" 
d="M227 620v-608h187v-130h-330v868h256q74 0 74 -76v-54h-187z" />
    <glyph glyph-name="backslash" unicode="\" horiz-adv-x="503" 
d="M15 740h62q54 0 81 -22.5t44 -70.5l287 -755h-154z" />
    <glyph glyph-name="bracketright" unicode="]" horiz-adv-x="434" 
d="M350 -118h-256q-74 0 -74 76v55h187v607h-187v130h330v-868z" />
    <glyph glyph-name="asciicircum" unicode="^" horiz-adv-x="600" 
d="M59 376l241 193l241 -193v-135l-241 165l-241 -165v135z" />
    <glyph glyph-name="underscore" unicode="_" horiz-adv-x="500" 
d="M0 -58h500v-123h-500v123z" />
    <glyph glyph-name="grave" unicode="`" horiz-adv-x="600" 
d="M239 624q-38 10 -55 30t-17 61v48l266 -103v-91z" />
    <glyph glyph-name="a" unicode="a" horiz-adv-x="549" 
d="M428 469q55 -55 55 -161v-308h-59q-32 0 -50 16.5t-23 42.5q-36 -31 -73.5 -49.5t-83.5 -18.5q-73 0 -116.5 40.5t-43.5 117.5q0 75 52 118t146 43q55 0 117 -18v15q0 50 -28 74t-86 24q-88 0 -167 -35v108q94 46 198 46q107 0 162 -55zM232 102q23 0 54.5 9.5t62.5 29.5
v69q-45 8 -96 8q-88 0 -88 -60q0 -56 67 -56z" />
    <glyph glyph-name="b" unicode="b" horiz-adv-x="616" 
d="M471 495q46 -29 73.5 -87t27.5 -139q0 -95 -39.5 -158t-103 -93t-137.5 -30q-116 0 -221 46v666h75q38 0 56 -24.5t18 -66.5v-147q71 62 150 62q55 0 101 -29zM385.5 151q37.5 37 37.5 114q0 133 -105 133q-48 0 -98 -41v-237q30 -6 61 -6q67 0 104.5 37z" />
    <glyph glyph-name="c" unicode="c" horiz-adv-x="488" 
d="M162 18q-55 31 -86.5 91.5t-31.5 145.5q0 81 34 142t90.5 94t124.5 33q72 0 116 -28q25 -14 33 -33.5t8 -53.5v-43q-36 17 -62 24t-61 7q-68 0 -101 -37t-33 -104q0 -66 32 -103.5t92 -37.5q41 0 69.5 7.5t65.5 24.5v-118q-42 -23 -79.5 -32.5t-85.5 -9.5q-70 0 -125 31z
" />
    <glyph glyph-name="d" unicode="d" horiz-adv-x="615" 
d="M526 675.5q18 -24.5 18 -66.5v-609h-74q-58 0 -71 57q-69 -69 -149 -69q-58 0 -105 29.5t-74 87t-27 137.5q0 92 35 155t91.5 94t122.5 31q51 0 103 -24v202h74q38 0 56 -24.5zM220.5 147q27.5 -32 75.5 -32t100 45v227q-38 10 -74 10q-59 0 -94 -37.5t-35 -112.5
q0 -68 27.5 -100z" />
    <glyph glyph-name="e" unicode="e" horiz-adv-x="560" 
d="M515 220h-331q18 -110 139 -110q48 0 86.5 7.5t86.5 29.5v-112q-42 -24 -93.5 -35.5t-102.5 -11.5q-74 0 -132 32t-91 92.5t-33 142.5t34 143t90.5 93.5t121.5 32.5q100 0 162.5 -63t62.5 -198v-43zM380 309q-1 50 -25.5 75.5t-64.5 25.5q-39 0 -67.5 -23.5t-37.5 -77.5
h195z" />
    <glyph glyph-name="f" unicode="f" horiz-adv-x="476" 
d="M263 512h169v-124h-169v-388h-148v388h-93v124h93q3 89 52 145t144 56q58 0 91 -19q34 -19 34 -65v-48q-25 8 -42 11t-42 3q-84 0 -89 -83z" />
    <glyph glyph-name="g" unicode="g" horiz-adv-x="577" 
d="M562 422q-49 0 -81 -8q18 -37 18 -84q0 -88 -64.5 -133t-166.5 -45q-21 0 -31 1l-11 -60q36 4 81 4q93 0 152 -35.5t59 -114.5q0 -87 -73.5 -123t-183.5 -36q-64 0 -128.5 12t-101.5 32v113q44 -18 98 -28t104 -10q68 0 102.5 10t34.5 38q0 27 -24 35.5t-76 8.5
q-86 0 -167 -9l36 188q-49 23 -77 63t-28 95q0 89 65 138.5t169 49.5q88 0 144 -34q68 38 150 38v-106zM338 276.5q26 20.5 26 61.5q-1 40 -26.5 61.5t-70.5 21.5q-44 0 -70 -22t-26 -61q0 -41 25 -61.5t71 -20.5q45 0 71 20.5z" />
    <glyph glyph-name="h" unicode="h" horiz-adv-x="615" 
d="M502.5 471.5q46.5 -52.5 46.5 -148.5v-323h-149v304q0 91 -77 91q-49 0 -103 -45v-350h-149v700h75q38 0 56 -24.5t18 -66.5v-151q71 66 156 66q80 0 126.5 -52.5z" />
    <glyph glyph-name="i" unicode="i" horiz-adv-x="292" 
d="M72 512h74q38 0 56 -24.5t18 -66.5v-421h-148v512zM85.5 595.5q-22.5 20.5 -22.5 55.5t23.5 56t58.5 21q36 0 59.5 -21t23.5 -56t-24 -55.5t-60 -20.5t-58.5 20.5z" />
    <glyph glyph-name="j" unicode="j" horiz-adv-x="288" 
d="M-95 -186v114q23 -8 41.5 -11.5t42.5 -3.5q39 0 60.5 25t21.5 70v504h75q38 0 56 -24.5t18 -66.5v-419q0 -95 -47.5 -154.5t-143.5 -59.5q-61 0 -124 26zM85.5 595.5q-22.5 20.5 -22.5 55.5t23.5 56t58.5 21q36 0 59.5 -21t23.5 -56t-24 -55.5t-60 -20.5t-58.5 20.5z" />
    <glyph glyph-name="k" unicode="k" horiz-adv-x="608" 
d="M282 226l-64 -63v-163h-147v700h73q38 0 56 -24.5t18 -66.5v-282l184 185h169l-193 -191l228 -321h-169z" />
    <glyph glyph-name="l" unicode="l" horiz-adv-x="291" 
d="M71 700h75q38 0 56 -24.5t18 -66.5v-609h-149v700z" />
    <glyph glyph-name="m" unicode="m" horiz-adv-x="910" 
d="M799 472q45 -52 45 -148v-324h-149v306q0 48 -17 68.5t-53 20.5q-48 0 -94 -38q1 -11 1 -33v-324h-149v306q0 48 -16.5 68.5t-52.5 20.5q-46 0 -94 -45v-350h-149v512h75q57 0 70 -56q34 32 71 50t82 18q90 0 133 -69q78 69 174 69q78 0 123 -52z" />
    <glyph glyph-name="n" unicode="n" horiz-adv-x="615" 
d="M502.5 471.5q46.5 -52.5 46.5 -148.5v-323h-149v304q0 91 -77 91q-49 0 -103 -45v-350h-149v512h75q57 0 70 -57q35 33 73.5 51t86.5 18q80 0 126.5 -52.5z" />
    <glyph glyph-name="o" unicode="o" horiz-adv-x="607" 
d="M175.5 18q-59.5 31 -95.5 92t-36 146t36.5 145.5t96 91.5t127.5 31q69 0 128 -31t95 -91.5t36 -145.5t-36.5 -146t-96 -92t-126.5 -31q-69 0 -128.5 31zM385 152.5q29 38.5 29 103.5t-28.5 103.5t-81.5 38.5q-52 0 -81.5 -38.5t-29.5 -103.5q0 -66 28.5 -104t82.5 -38
q52 0 81 38.5z" />
    <glyph glyph-name="p" unicode="p" horiz-adv-x="616" 
d="M471 494.5q47 -29.5 74 -87t27 -138.5q0 -92 -35 -154.5t-92 -93.5t-123 -31q-49 0 -102 24v-214h-149v712h75q55 0 70 -54q69 66 150 66q58 0 105 -29.5zM387.5 151.5q35.5 37.5 35.5 113.5q0 68 -28 100.5t-75 32.5t-100 -41v-234q31 -9 71 -9q61 0 96.5 37.5z" />
    <glyph glyph-name="q" unicode="q" horiz-adv-x="616" 
d="M545 478v-678h-75q-38 0 -56 24.5t-18 66.5v163q-69 -66 -150 -66q-55 0 -101 29t-73.5 87t-27.5 139q0 95 39.5 158t103 93t137.5 30q116 0 221 -46zM396 392q-31 6 -64 6q-65 0 -102 -37t-37 -114q0 -133 105 -133q47 0 98 44v234z" />
    <glyph glyph-name="r" unicode="r" horiz-adv-x="448" 
d="M421 513v-130q-24 6 -39 8t-38 2q-74 0 -124 -43v-350h-149v512h75q57 0 70 -55q69 64 144 64q33 0 61 -8z" />
    <glyph glyph-name="s" unicode="s" horiz-adv-x="496" 
d="M39 30v115q38 -18 84.5 -28.5t90.5 -10.5q56 0 81.5 9t25.5 33q0 22 -19 31.5t-65 19.5l-42 10q-46 12 -77.5 28t-52 48t-20.5 85q0 71 57 112.5t155 41.5q78 0 128 -23q29 -14 39.5 -32.5t10.5 -54.5v-44q-32 17 -72.5 27t-78.5 10q-55 0 -79 -8.5t-24 -30.5
q0 -19 20 -29t70 -22q27 -6 48 -12q68 -18 104.5 -53t36.5 -108q0 -77 -61 -117t-166 -40q-115 0 -194 43z" />
    <glyph glyph-name="t" unicode="t" horiz-adv-x="471" 
d="M389.5 118.5q18.5 3.5 46.5 11.5v-116q-63 -26 -135 -26q-185 0 -185 214v186h-93v124h93v153h74q38 0 56 -24.5t18 -66.5v-62h169v-124h-169v-177q0 -46 19 -71t63 -25q25 0 43.5 3.5z" />
    <glyph glyph-name="u" unicode="u" horiz-adv-x="613" 
d="M541 512v-512h-74q-58 0 -71 57q-35 -33 -73 -51.5t-85 -18.5q-80 0 -126 53t-46 149v323h149v-304q0 -91 76 -91q52 0 102 45v350h148z" />
    <glyph glyph-name="v" unicode="v" horiz-adv-x="565" 
d="M559 512l-202 -512h-154l-197 512h92q41 0 62 -17t32 -54l90 -285l118 356h159z" />
    <glyph glyph-name="w" unicode="w" horiz-adv-x="819" 
d="M12 512h75q40 0 60.5 -18t28.5 -56l67 -285l98 359h144l95 -359l84 359h143l-157 -512h-147l-95 360l-98 -360h-145z" />
    <glyph glyph-name="x" unicode="x" horiz-adv-x="570" 
d="M384 0l-106 159l-105 -159h-166l192 262l-182 250h114q39 0 60 -16.5t46 -55.5l53 -80l99 152h160l-179 -251l194 -261h-180z" />
    <glyph glyph-name="y" unicode="y" horiz-adv-x="581" 
d="M229 11l-224 500h91q45 0 67 -19.5t38 -62.5l103 -268l119 350h152l-275 -711h-151z" />
    <glyph glyph-name="z" unicode="z" horiz-adv-x="497" 
d="M464 387l-252 -263h255v-124h-426v125l255 263h-255v124h347q41 0 58.5 -21.5t17.5 -61.5v-42z" />
    <glyph glyph-name="braceleft" unicode="{" horiz-adv-x="444" 
d="M209 -92q-48 26 -74 72.5t-26 106.5v90q0 33 -20 54.5t-55 29.5v111q35 7 55 28.5t20 54.5v90q0 60 26 106.5t74.5 72.5t114.5 26h25q74 0 74 -76v-52h-62q-119 0 -119 -108v-77q0 -40 -22 -74.5t-61 -46.5q39 -13 61 -47t22 -73v-74q0 -54 31.5 -83t86.5 -29h64v-128
h-103q-64 0 -112 26z" />
    <glyph glyph-name="bar" unicode="|" horiz-adv-x="311" 
d="M80 700h152v-808h-152v808z" />
    <glyph glyph-name="braceright" unicode="}" horiz-adv-x="444" 
d="M21 -42v52h62q58 0 88.5 28t30.5 80v78q0 39 22 73.5t61 47.5q-39 12 -61 46.5t-22 73.5v74q0 54 -31 82.5t-87 28.5h-64v128h103q64 0 112 -25.5t74 -72t26 -107.5v-89q0 -33 20 -54.5t55 -29.5v-111q-35 -8 -55 -29.5t-20 -54.5v-89q0 -93 -57.5 -149.5t-156.5 -56.5
h-26q-74 0 -74 76z" />
    <glyph glyph-name="asciitilde" unicode="~" horiz-adv-x="600" 
d="M344.5 266q-26.5 10 -55.5 27q-27 15 -48 23t-44 8q-41 0 -73 -12.5t-69 -43.5v132q37 33 69.5 46t73.5 13q25 0 47.5 -8.5t49.5 -23.5q32 -17 56 -26t52 -9q41 0 73 12.5t69 42.5v-133q-36 -32 -68.5 -45t-74.5 -13q-31 0 -57.5 10z" />
    <glyph glyph-name="uni00A0" unicode="&#xa0;" horiz-adv-x="270" 
 />
    <glyph glyph-name="exclamdown" unicode="&#xa1;" horiz-adv-x="277" 
d="M219 -188h-84q-76 0 -76 74v6l10 411h138zM198 503q23 -22 23 -59t-23.5 -59.5t-59.5 -22.5q-37 0 -60 22.5t-23 59.5t23.5 59t59.5 22q37 0 60 -22z" />
    <glyph glyph-name="cent" unicode="&#xa2;" 
d="M523 139q-54 -28 -110 -35v-117h-138v121q-78 19 -122.5 81t-44.5 159q0 90 46 152.5t123 85.5v115h138v-108q34 -7 64 -24q25 -14 33.5 -32.5t8.5 -51.5v-46q-36 16 -64 22.5t-63 6.5q-70 0 -103 -30t-33 -90q0 -119 125 -119q43 0 73 7t67 23v-120z" />
    <glyph glyph-name="sterling" unicode="&#xa3;" 
d="M571 136v-136h-483v406q0 134 69.5 214.5t206.5 80.5q104 0 157 -35q27 -17 35.5 -37t8.5 -63v-40q-71 43 -165 43q-87 0 -125.5 -36.5t-38.5 -116.5v-4h267v-131h-267v-145h335z" />
    <glyph glyph-name="currency" unicode="&#xa4;" 
d="M518 239l71 -71l-91 -91l-75 75q-49 -23 -104 -23q-56 0 -105 23l-75 -75l-91 91l72 72q-27 48 -27 109t27 110l-72 71l92 91l74 -75q48 24 105 24q56 0 105 -23l74 74l91 -91l-71 -71q27 -49 27 -110t-27 -110zM248 274.5q28 -27.5 71 -27.5q41 0 69.5 28t28.5 74
q0 47 -27.5 74.5t-70.5 27.5q-41 0 -70 -28t-29 -74q0 -47 28 -74.5z" />
    <glyph glyph-name="yen" unicode="&#xa5;" 
d="M440 351h104v-97h-149v-59h149v-96h-149v-99h-155v99h-149v96h149v59h-149v97h103l-178 337h97q45 0 71 -22.5t47 -75.5l87 -190l138 288h164z" />
    <glyph glyph-name="section" unicode="&#xa7;" horiz-adv-x="584" 
d="M527 -19q0 -59 -31.5 -102.5t-90 -67t-136.5 -23.5q-123 0 -213 55v113q96 -42 173 -42q74 0 112 15t38 53q0 25 -17 41t-43 26t-72 22q-14 3 -42 11q-80 24 -121 64t-41 109q0 82 76 131q-58 45 -58 135q0 89 66 140.5t184 51.5q54 0 96 -9t67 -24q28 -18 37.5 -36
t9.5 -57v-40q-87 39 -170 39q-74 0 -110.5 -14t-36.5 -52q0 -25 17 -41t42.5 -25t70.5 -21l44 -12q80 -24 121 -64t41 -108q0 -82 -75 -131q62 -47 62 -137zM214.5 212.5q34.5 -17.5 105.5 -35.5q8 -3 24 -7q31 11 45 28t14 42q0 33 -35 50.5t-108 36.5l-21 6
q-31 -10 -45 -27t-14 -43q0 -33 34.5 -50.5z" />
    <glyph glyph-name="dieresis" unicode="&#xa8;" horiz-adv-x="600" 
d="M132 598q-21 20 -21 54t22 54t55 20q34 0 56 -20t22 -54t-22.5 -54t-55.5 -20q-35 0 -56 20zM354 598q-21 20 -21 54t21.5 54t55.5 20t56 -20t22 -54t-22.5 -54t-56.5 -20t-55 20z" />
    <glyph glyph-name="copyright" unicode="&#xa9;" horiz-adv-x="811" 
d="M219 33q-81 46 -125.5 126.5t-44.5 183.5q0 99 46.5 179.5t128 127t182.5 46.5q105 0 186 -45.5t126 -125.5t45 -182q0 -100 -46 -181t-127 -128t-184 -47q-106 0 -187 46zM555.5 91q65.5 38 102.5 104t37 148q0 83 -36 148.5t-101.5 102t-151.5 36.5q-84 0 -150 -37.5
t-103 -103t-37 -146.5q0 -83 36 -149t101.5 -103.5t152.5 -37.5q84 0 149.5 38zM277 198.5q-54 50.5 -54 144.5q0 60 25 104t69 68t99 24q59 0 94 -23q18 -11 24 -26t6 -41v-34q-27 12 -46.5 17t-45.5 5q-102 0 -102 -93q0 -45 23.5 -69t68.5 -24q34 0 55.5 5t49.5 18v-96
q-34 -17 -63.5 -23.5t-65.5 -6.5q-83 0 -137 50.5z" />
    <glyph glyph-name="ordfeminine" unicode="&#xaa;" horiz-adv-x="481" 
d="M368 669q46 -44 46 -129v-246h-49q-27 0 -42.5 13.5t-19.5 34.5q-30 -25 -60.5 -39.5t-70.5 -14.5q-60 0 -96 32t-36 93q0 60 43 93t121 33q49 0 97 -14v10q0 38 -23 56.5t-72 18.5q-73 0 -138 -29v94q81 38 165 38q89 0 135 -44zM163.5 388.5q14.5 -10.5 40.5 -10.5
q19 0 45 7t52 22v51q-38 7 -80 7q-72 0 -72 -44q0 -22 14.5 -32.5z" />
    <glyph glyph-name="guillemotleft" unicode="&#xab;" horiz-adv-x="579" 
d="M52 254l120 197h134l-123 -197l123 -196h-134zM281 254l121 197h133l-123 -197l123 -196h-133z" />
    <glyph glyph-name="uni00AD" unicode="&#xad;" horiz-adv-x="527" 
d="M66 360h395v-149h-395v149z" />
    <glyph glyph-name="registered" unicode="&#xae;" horiz-adv-x="506" 
d="M364 686q49 -27 76.5 -75.5t27.5 -109.5q0 -60 -28 -109t-77 -77t-110 -28q-62 0 -111 27.5t-76.5 76.5t-27.5 110q0 59 28.5 107.5t77.5 76.5t109 28q62 0 111 -27zM345.5 346q40.5 23 63 63.5t22.5 91.5q0 79 -49 127.5t-129 48.5q-51 0 -91.5 -22.5t-63.5 -63
t-23 -90.5q0 -80 49 -129t129 -49q52 0 92.5 23zM344.5 504q-9.5 -15 -26.5 -24l55 -87h-42q-18 0 -27.5 7.5t-18.5 22.5l-23 42h-9h-29v-72h-60v221h95q46 0 70.5 -19.5t24.5 -56.5q0 -19 -9.5 -34zM224 517h27q41 0 41 21q0 12 -8.5 17.5t-29.5 5.5h-30v-44z" />
    <glyph glyph-name="degree" unicode="&#xb0;" horiz-adv-x="444" 
d="M138 459.5q-38 21.5 -60 58.5t-22 83t22 83t60 58.5t84 21.5t83.5 -21.5t59.5 -58.5t22 -83t-22 -83t-59.5 -58.5t-83.5 -21.5t-84 21.5zM268 554.5q19 19.5 19 46.5t-19 46t-46 19t-46 -19t-19 -46t19 -46.5t46 -19.5t46 19.5z" />
    <glyph glyph-name="plusminus" unicode="&#xb1;" horiz-adv-x="624" 
d="M551 487v-134h-170v-155h-140v155h-168v134h168v156h140v-156h170zM88 135h447v-135h-447v135z" />
    <glyph glyph-name="uni00B2" unicode="&#xb2;" horiz-adv-x="440" 
d="M53 394l21 12q96 54 141 87t45 64q0 21 -17 31t-54 10q-54 0 -142 -31v100q86 34 160 34q88 0 131.5 -33.5t43.5 -93.5q0 -40 -22.5 -71.5t-57.5 -55t-97 -57.5h188v-105h-340v109z" />
    <glyph glyph-name="uni00B3" unicode="&#xb3;" horiz-adv-x="440" 
d="M125 281q-42 9 -79 26v95q79 -28 141 -28q49 0 70 7t21 26q0 22 -32 28.5t-101 7.5v73l105 70h-203v102h271q29 0 43 -13.5t14 -43.5v-31l-114 -85q134 -18 134 -112q0 -61 -51 -96t-139 -35q-38 0 -80 9z" />
    <glyph glyph-name="acute" unicode="&#xb4;" horiz-adv-x="600" 
d="M167 660l266 103v-48q0 -41 -17.5 -60.5t-54.5 -30.5l-194 -55v91z" />
    <glyph glyph-name="paragraph" unicode="&#xb6;" horiz-adv-x="667" 
d="M72 611.5q29 44.5 77 66.5t105 22h129v-808h-129v414q-91 0 -151 50.5t-60 146.5q0 64 29 108.5zM571.5 680.5q17.5 -19.5 17.5 -59.5v-729h-128v808h54q39 0 56.5 -19.5z" />
    <glyph glyph-name="periodcentered" unicode="&#xb7;" horiz-adv-x="286" 
d="M83 250q-23 22 -23 59t23.5 59.5t59.5 22.5q37 0 60 -22.5t23 -59.5t-23.5 -59t-59.5 -22q-37 0 -60 22z" />
    <glyph glyph-name="cedilla" unicode="&#xb8;" horiz-adv-x="600" 
d="M225.5 -225.5q-33.5 6.5 -65.5 23.5v73q35 -16 61.5 -21t58.5 -5q56 0 56 23q0 25 -43 25q-27 0 -46 -3v59q42 6 74 6q56 0 87 -23.5t31 -68.5t-39 -70t-100 -25q-41 0 -74.5 6.5z" />
    <glyph glyph-name="uni00B9" unicode="&#xb9;" horiz-adv-x="440" 
d="M393 390v-105h-336v105h127v192l-130 -27v97l147 43h44q28 0 40.5 -16.5t12.5 -41.5v-247h95z" />
    <glyph glyph-name="ordmasculine" unicode="&#xba;" horiz-adv-x="530" 
d="M157.5 309.5q-49.5 24.5 -79 73t-29.5 116.5t30.5 116t80 73t106.5 25q58 0 107 -24.5t78.5 -73t29.5 -116.5t-30.5 -116.5t-79.5 -73t-105 -24.5q-59 0 -108.5 24.5zM332 420.5q24 29.5 24 78.5q0 50 -23.5 79t-66.5 29q-44 0 -68 -29t-24 -79t23.5 -79t68.5 -29
q42 0 66 29.5z" />
    <glyph glyph-name="guillemotright" unicode="&#xbb;" horiz-adv-x="580" 
d="M167 254l-123 197h134l121 -197l-121 -196h-134zM397 254l-124 197h134l121 -197l-121 -196h-134z" />
    <glyph glyph-name="onequarter" unicode="&#xbc;" horiz-adv-x="997" 
d="M838 700l-440 -700h-138l440 700h138zM184 390v192l-130 -27v97l147 43h44q28 0 40.5 -16.5t12.5 -41.5v-247h95v-105h-336v105h127zM972 83h-58v-83h-107v83h-215v91l215 235h60q47 0 47 -50v-185h58v-91zM807 174v116l-107 -116h107z" />
    <glyph glyph-name="onehalf" unicode="&#xbd;" horiz-adv-x="1059" 
d="M836 700l-441 -700h-138l441 700h138zM184 390v192l-130 -27v97l147 43h44q28 0 40.5 -16.5t12.5 -41.5v-247h95v-105h-336v105h127zM1022 105v-105h-340v109l21 12q96 54 141 87t45 64q0 21 -17 31t-54 10q-54 0 -142 -31v100q86 34 160 34q88 0 131.5 -33.5t43.5 -93.5
q0 -40 -22.5 -71.5t-57.5 -55t-97 -57.5h188z" />
    <glyph glyph-name="threequarters" unicode="&#xbe;" horiz-adv-x="981" 
d="M822 700l-440 -700h-139l441 700h138zM348 307q-51 -35 -139 -35q-38 0 -80 9t-79 26v95q79 -28 141 -28q49 0 70 7t21 26q0 22 -32 28.5t-101 7.5v73l105 70h-203v102h271q29 0 43 -13.5t14 -43.5v-31l-114 -85q134 -18 134 -112q0 -61 -51 -96zM955 83h-57v-83h-107v83
h-215v91l215 235h60q47 0 47 -50v-185h57v-91zM791 174v116l-107 -116h107z" />
    <glyph glyph-name="questiondown" unicode="&#xbf;" horiz-adv-x="585" 
d="M405 151q-81 -19 -124 -38.5t-59 -41.5t-16 -53q0 -41 34.5 -62.5t101.5 -21.5q105 0 220 48v-130q-124 -53 -239 -53q-127 0 -199.5 53t-72.5 147q0 84 50.5 135t161.5 88l3 81h136zM394 503q23 -22 23 -59t-23.5 -59.5t-59.5 -22.5q-37 0 -60.5 22.5t-23.5 59.5t24 59
t60 22q37 0 60 -22z" />
    <glyph glyph-name="Agrave" unicode="&#xc0;" horiz-adv-x="716" 
d="M711 0h-82q-50 0 -76.5 19.5t-40.5 64.5l-27 82h-265l-59 -166h-156l270 700h168zM444 291l-86 261l-93 -261h179zM276 801q-71 17 -71 91v49l272 -93v-96z" />
    <glyph glyph-name="Aacute" unicode="&#xc1;" horiz-adv-x="716" 
d="M711 0h-82q-50 0 -76.5 19.5t-40.5 64.5l-27 82h-265l-59 -166h-156l270 700h168zM444 291l-86 261l-93 -261h179zM240 848l272 93v-49q0 -74 -71 -91l-201 -49v96z" />
    <glyph glyph-name="Acircumflex" unicode="&#xc2;" horiz-adv-x="716" 
d="M711 0h-82q-50 0 -76.5 19.5t-40.5 64.5l-27 82h-265l-59 -166h-156l270 700h168zM444 291l-86 261l-93 -261h179zM182 846l177 96l123 -66q27 -14 40.5 -34t13.5 -50v-42l-177 75l-177 -75v96z" />
    <glyph glyph-name="Atilde" unicode="&#xc3;" horiz-adv-x="716" 
d="M711 0h-82q-50 0 -76.5 19.5t-40.5 64.5l-27 82h-265l-59 -166h-156l270 700h168zM444 291l-86 261l-93 -261h179zM394 763q-19 7 -43 20q-21 11 -36 17t-32 6q-30 0 -54 -9.5t-51 -31.5v102q25 24 49 34t55 10q18 0 34.5 -6.5t38.5 -18.5q21 -12 39.5 -18.5t39.5 -6.5
q30 0 54 9.5t52 31.5v-61q0 -22 -6 -37.5t-23 -26.5q-34 -21 -75 -21q-23 0 -42 7z" />
    <glyph glyph-name="Adieresis" unicode="&#xc4;" horiz-adv-x="716" 
d="M711 0h-82q-50 0 -76.5 19.5t-40.5 64.5l-27 82h-265l-59 -166h-156l270 700h168zM444 291l-86 261l-93 -261h179zM188.5 777.5q-21.5 20.5 -21.5 55.5q0 34 22 54.5t56 20.5q35 0 57.5 -20.5t22.5 -54.5q0 -35 -23 -55.5t-57 -20.5q-35 0 -56.5 20.5zM413.5 777.5
q-21.5 20.5 -21.5 55.5t22 55t57 20t57 -20.5t22 -54.5q0 -35 -23 -55.5t-57 -20.5q-35 0 -56.5 20.5z" />
    <glyph glyph-name="Aring" unicode="&#xc5;" horiz-adv-x="716" 
d="M711 0h-82q-50 0 -76.5 19.5t-40.5 64.5l-27 82h-265l-59 -166h-156l270 700h168zM444 291l-86 261l-93 -261h179zM261.5 690.5q-39.5 38.5 -39.5 95.5q0 58 39.5 96.5t97.5 38.5t97.5 -38.5t39.5 -96.5q0 -57 -39.5 -95.5t-97.5 -38.5t-97.5 38.5zM395 750.5
q15 14.5 15 35.5q0 22 -15 36.5t-36 14.5t-36 -14.5t-15 -36.5q0 -21 15 -35.5t36 -14.5t36 14.5z" />
    <glyph glyph-name="AE" unicode="&#xc6;" horiz-adv-x="1031" 
d="M999 137v-137h-477v166h-246l-101 -166h-170l449 700h464q76 0 76 -78v-59h-327v-143h276v-134h-276v-149h332zM522 291v275l-175 -275h175z" />
    <glyph glyph-name="Ccedilla" unicode="&#xc7;" horiz-adv-x="635" 
d="M196 32q-71 45 -107 127t-36 192t44.5 192t121 126t171.5 44q91 0 149 -36q27 -17 37.5 -40.5t10.5 -63.5v-41q-49 24 -88.5 34t-92.5 10q-98 0 -148 -62.5t-50 -162.5q0 -106 46.5 -166.5t136.5 -60.5q59 0 104 10.5t103 36.5v-127q-58 -32 -109 -44.5t-120 -12.5
q-102 0 -173 45zM262.5 -239.5q-36.5 6.5 -71.5 25.5v79q38 -16 67.5 -21.5t62.5 -5.5q62 0 62 24q0 27 -47 27q-30 0 -50 -3v63q47 6 80 6q61 0 95.5 -25.5t34.5 -73.5q0 -47 -43 -74.5t-109 -27.5q-45 0 -81.5 6.5z" />
    <glyph glyph-name="Egrave" unicode="&#xc8;" horiz-adv-x="609" 
d="M576 137v-137h-498v700h418q76 0 76 -78v-59h-345v-143h294v-134h-294v-149h349zM241 801q-71 17 -71 91v49l272 -93v-96z" />
    <glyph glyph-name="Eacute" unicode="&#xc9;" horiz-adv-x="609" 
d="M576 137v-137h-498v700h418q76 0 76 -78v-59h-345v-143h294v-134h-294v-149h349zM205 848l272 93v-49q0 -74 -71 -91l-201 -49v96z" />
    <glyph glyph-name="Ecircumflex" unicode="&#xca;" horiz-adv-x="609" 
d="M576 137v-137h-498v700h418q76 0 76 -78v-59h-345v-143h294v-134h-294v-149h349zM147 846l177 96l123 -66q27 -14 40.5 -34t13.5 -50v-42l-177 75l-177 -75v96z" />
    <glyph glyph-name="Edieresis" unicode="&#xcb;" horiz-adv-x="609" 
d="M576 137v-137h-498v700h418q76 0 76 -78v-59h-345v-143h294v-134h-294v-149h349zM153.5 777.5q-21.5 20.5 -21.5 55.5q0 34 22 54.5t56 20.5q35 0 57.5 -20.5t22.5 -54.5q0 -35 -23 -55.5t-57 -20.5q-35 0 -56.5 20.5zM378.5 777.5q-21.5 20.5 -21.5 55.5t22 55t57 20
t57 -20.5t22 -54.5q0 -35 -23 -55.5t-57 -20.5q-35 0 -56.5 20.5z" />
    <glyph glyph-name="Igrave" unicode="&#xcc;" horiz-adv-x="311" 
d="M78 700h80q39 0 57 -20t18 -59v-621h-155v700zM72 801q-71 17 -71 91v49l272 -93v-96z" />
    <glyph glyph-name="Iacute" unicode="&#xcd;" horiz-adv-x="311" 
d="M78 700h80q39 0 57 -20t18 -59v-621h-155v700zM36 848l272 93v-49q0 -74 -71 -91l-201 -49v96z" />
    <glyph glyph-name="Icircumflex" unicode="&#xce;" horiz-adv-x="311" 
d="M78 700h80q39 0 57 -20t18 -59v-621h-155v700zM-22 846l177 96l123 -66q27 -14 40.5 -34t13.5 -50v-42l-177 75l-177 -75v96z" />
    <glyph glyph-name="Idieresis" unicode="&#xcf;" horiz-adv-x="311" 
d="M78 700h80q39 0 57 -20t18 -59v-621h-155v700zM-15.5 777.5q-21.5 20.5 -21.5 55.5q0 34 22 54.5t56 20.5q35 0 57.5 -20.5t22.5 -54.5q0 -35 -23 -55.5t-57 -20.5q-35 0 -56.5 20.5zM209.5 777.5q-21.5 20.5 -21.5 55.5t22 55t57 20t57 -20.5t22 -54.5q0 -35 -23 -55.5
t-57 -20.5q-35 0 -56.5 20.5z" />
    <glyph glyph-name="Eth" unicode="&#xd0;" horiz-adv-x="765" 
d="M550 660q76 -40 119 -118.5t43 -189.5q0 -114 -45.5 -193t-122.5 -119t-170 -40h-276v281h-80v137h80v282h276q100 0 176 -40zM508.5 192q47.5 56 47.5 160q0 103 -45 157.5t-137 54.5h-124v-146h155v-137h-155v-145h124q87 0 134.5 56z" />
    <glyph glyph-name="Ntilde" unicode="&#xd1;" horiz-adv-x="744" 
d="M78 700h143l299 -448v448h71q39 0 57 -20t18 -59v-621h-143l-299 438v-438h-146v700zM406 763q-19 7 -43 20q-21 11 -36 17t-32 6q-30 0 -54 -9.5t-51 -31.5v102q25 24 49 34t55 10q18 0 34.5 -6.5t38.5 -18.5q21 -12 39.5 -18.5t39.5 -6.5q30 0 54 9.5t52 31.5v-61
q0 -22 -6 -37.5t-23 -26.5q-34 -21 -75 -21q-23 0 -42 7z" />
    <glyph glyph-name="Ograve" unicode="&#xd2;" horiz-adv-x="767" 
d="M212 30.5q-75 43.5 -117 126t-42 195.5t45.5 194.5t121 124t163.5 42.5q97 0 171.5 -43t116.5 -125t42 -193q0 -114 -44.5 -196.5t-120 -125.5t-165.5 -43q-96 0 -171 43.5zM512 185q46 61 46 167q0 104 -43.5 164t-131.5 60q-82 0 -128 -60t-46 -164q0 -107 43 -167.5
t131 -60.5q83 0 129 61zM300 801q-71 17 -71 91v49l272 -93v-96z" />
    <glyph glyph-name="Oacute" unicode="&#xd3;" horiz-adv-x="767" 
d="M212 30.5q-75 43.5 -117 126t-42 195.5t45.5 194.5t121 124t163.5 42.5q97 0 171.5 -43t116.5 -125t42 -193q0 -114 -44.5 -196.5t-120 -125.5t-165.5 -43q-96 0 -171 43.5zM512 185q46 61 46 167q0 104 -43.5 164t-131.5 60q-82 0 -128 -60t-46 -164q0 -107 43 -167.5
t131 -60.5q83 0 129 61zM264 848l272 93v-49q0 -74 -71 -91l-201 -49v96z" />
    <glyph glyph-name="Ocircumflex" unicode="&#xd4;" horiz-adv-x="767" 
d="M212 30.5q-75 43.5 -117 126t-42 195.5t45.5 194.5t121 124t163.5 42.5q97 0 171.5 -43t116.5 -125t42 -193q0 -114 -44.5 -196.5t-120 -125.5t-165.5 -43q-96 0 -171 43.5zM512 185q46 61 46 167q0 104 -43.5 164t-131.5 60q-82 0 -128 -60t-46 -164q0 -107 43 -167.5
t131 -60.5q83 0 129 61zM206 846l177 96l123 -66q27 -14 40.5 -34t13.5 -50v-42l-177 75l-177 -75v96z" />
    <glyph glyph-name="Otilde" unicode="&#xd5;" horiz-adv-x="767" 
d="M212 30.5q-75 43.5 -117 126t-42 195.5t45.5 194.5t121 124t163.5 42.5q97 0 171.5 -43t116.5 -125t42 -193q0 -114 -44.5 -196.5t-120 -125.5t-165.5 -43q-96 0 -171 43.5zM512 185q46 61 46 167q0 104 -43.5 164t-131.5 60q-82 0 -128 -60t-46 -164q0 -107 43 -167.5
t131 -60.5q83 0 129 61zM418 763q-19 7 -43 20q-21 11 -36 17t-32 6q-30 0 -54 -9.5t-51 -31.5v102q25 24 49 34t55 10q18 0 34.5 -6.5t38.5 -18.5q21 -12 39.5 -18.5t39.5 -6.5q30 0 54 9.5t52 31.5v-61q0 -22 -6 -37.5t-23 -26.5q-34 -21 -75 -21q-23 0 -42 7z" />
    <glyph glyph-name="Odieresis" unicode="&#xd6;" horiz-adv-x="767" 
d="M212 30.5q-75 43.5 -117 126t-42 195.5t45.5 194.5t121 124t163.5 42.5q97 0 171.5 -43t116.5 -125t42 -193q0 -114 -44.5 -196.5t-120 -125.5t-165.5 -43q-96 0 -171 43.5zM512 185q46 61 46 167q0 104 -43.5 164t-131.5 60q-82 0 -128 -60t-46 -164q0 -107 43 -167.5
t131 -60.5q83 0 129 61zM212.5 777.5q-21.5 20.5 -21.5 55.5q0 34 22 54.5t56 20.5q35 0 57.5 -20.5t22.5 -54.5q0 -35 -23 -55.5t-57 -20.5q-35 0 -56.5 20.5zM437.5 777.5q-21.5 20.5 -21.5 55.5t22 55t57 20t57 -20.5t22 -54.5q0 -35 -23 -55.5t-57 -20.5
q-35 0 -56.5 20.5z" />
    <glyph glyph-name="multiply" unicode="&#xd7;" 
d="M95 215l126 126l-126 127l97 97l126 -127l126 127l97 -97l-126 -127l127 -126l-97 -97l-127 127l-126 -127z" />
    <glyph glyph-name="Oslash" unicode="&#xd8;" horiz-adv-x="767" 
d="M644 589q69 -94 69 -237q0 -114 -44.5 -196.5t-120 -125.5t-165.5 -43q-98 0 -172 44l-47 -60h-151l109 141q-69 94 -69 240q0 113 45.5 194.5t121 124t163.5 42.5q97 0 173 -44l46 60h151zM224 242l244 315q-36 19 -85 19q-82 0 -128 -60t-46 -164q0 -62 15 -110z
M543 459l-245 -315q35 -20 85 -20q83 0 129 61t46 167q0 61 -15 107z" />
    <glyph glyph-name="Ugrave" unicode="&#xd9;" horiz-adv-x="739" 
d="M148 75.5q-76 88.5 -76 262.5v362h155v-360q0 -108 31 -162t112 -54q76 0 109 55t33 161v360h80q75 0 75 -79v-282q0 -175 -79.5 -263.5t-217.5 -88.5q-146 0 -222 88.5zM287 801q-71 17 -71 91v49l272 -93v-96z" />
    <glyph glyph-name="Uacute" unicode="&#xda;" horiz-adv-x="739" 
d="M148 75.5q-76 88.5 -76 262.5v362h155v-360q0 -108 31 -162t112 -54q76 0 109 55t33 161v360h80q75 0 75 -79v-282q0 -175 -79.5 -263.5t-217.5 -88.5q-146 0 -222 88.5zM251 848l272 93v-49q0 -74 -71 -91l-201 -49v96z" />
    <glyph glyph-name="Ucircumflex" unicode="&#xdb;" horiz-adv-x="739" 
d="M148 75.5q-76 88.5 -76 262.5v362h155v-360q0 -108 31 -162t112 -54q76 0 109 55t33 161v360h80q75 0 75 -79v-282q0 -175 -79.5 -263.5t-217.5 -88.5q-146 0 -222 88.5zM193 846l177 96l123 -66q27 -14 40.5 -34t13.5 -50v-42l-177 75l-177 -75v96z" />
    <glyph glyph-name="Udieresis" unicode="&#xdc;" horiz-adv-x="739" 
d="M148 75.5q-76 88.5 -76 262.5v362h155v-360q0 -108 31 -162t112 -54q76 0 109 55t33 161v360h80q75 0 75 -79v-282q0 -175 -79.5 -263.5t-217.5 -88.5q-146 0 -222 88.5zM199.5 777.5q-21.5 20.5 -21.5 55.5q0 34 22 54.5t56 20.5q35 0 57.5 -20.5t22.5 -54.5
q0 -35 -23 -55.5t-57 -20.5q-35 0 -56.5 20.5zM424.5 777.5q-21.5 20.5 -21.5 55.5t22 55t57 20t57 -20.5t22 -54.5q0 -35 -23 -55.5t-57 -20.5q-35 0 -56.5 20.5z" />
    <glyph glyph-name="Yacute" unicode="&#xdd;" horiz-adv-x="680" 
d="M262 272l-257 428h94q46 0 75.5 -23t54.5 -70l112 -201l170 294h164l-258 -432v-268h-155v272zM214 848l272 93v-49q0 -74 -71 -91l-201 -49v96z" />
    <glyph glyph-name="Thorn" unicode="&#xde;" horiz-adv-x="664" 
d="M554.5 532.5q65.5 -60.5 65.5 -169.5q0 -112 -72 -174t-198 -62h-117v-127h-155v700h80q39 0 57 -20t18 -59v-28h126q130 0 195.5 -60.5zM429 281.5q33 23.5 33 80.5q0 51 -28.5 75t-97.5 24h-103v-203h97q66 0 99 23.5z" />
    <glyph glyph-name="germandbls" unicode="&#xdf;" horiz-adv-x="635" 
d="M568 305.5q33 -48.5 33 -120.5q0 -60 -26.5 -104t-72 -67.5t-99.5 -23.5q-67 0 -129 31v110q48 -22 98 -22q43 0 68.5 25t25.5 66q0 97 -120 97h-63v113h44q44 0 69.5 26t25.5 70q0 42 -25 65.5t-71 23.5q-57 0 -86.5 -35.5t-29.5 -102.5v-457h-139v465q0 75 31 131
t88.5 86.5t135.5 30.5q69 0 121 -23.5t80 -66t28 -99.5q0 -48 -21 -85.5t-59 -61.5q60 -23 93 -71.5z" />
    <glyph glyph-name="agrave" unicode="&#xe0;" horiz-adv-x="549" 
d="M428 469q55 -55 55 -161v-308h-59q-32 0 -50 16.5t-23 42.5q-36 -31 -73.5 -49.5t-83.5 -18.5q-73 0 -116.5 40.5t-43.5 117.5q0 75 52 118t146 43q55 0 117 -18v15q0 50 -28 74t-86 24q-88 0 -167 -35v108q94 46 198 46q107 0 162 -55zM232 102q23 0 54.5 9.5t62.5 29.5
v69q-45 8 -96 8q-88 0 -88 -60q0 -56 67 -56zM185 624q-38 10 -55 30t-17 61v48l266 -103v-91z" />
    <glyph glyph-name="aacute" unicode="&#xe1;" horiz-adv-x="549" 
d="M428 469q55 -55 55 -161v-308h-59q-32 0 -50 16.5t-23 42.5q-36 -31 -73.5 -49.5t-83.5 -18.5q-73 0 -116.5 40.5t-43.5 117.5q0 75 52 118t146 43q55 0 117 -18v15q0 50 -28 74t-86 24q-88 0 -167 -35v108q94 46 198 46q107 0 162 -55zM232 102q23 0 54.5 9.5t62.5 29.5
v69q-45 8 -96 8q-88 0 -88 -60q0 -56 67 -56zM149 660l266 103v-48q0 -41 -17.5 -60.5t-54.5 -30.5l-194 -55v91z" />
    <glyph glyph-name="acircumflex" unicode="&#xe2;" horiz-adv-x="549" 
d="M428 469q55 -55 55 -161v-308h-59q-32 0 -50 16.5t-23 42.5q-36 -31 -73.5 -49.5t-83.5 -18.5q-73 0 -116.5 40.5t-43.5 117.5q0 75 52 118t146 43q55 0 117 -18v15q0 50 -28 74t-86 24q-88 0 -167 -35v108q94 46 198 46q107 0 162 -55zM232 102q23 0 54.5 9.5t62.5 29.5
v69q-45 8 -96 8q-88 0 -88 -60q0 -56 67 -56zM95 665l169 95l115 -64q30 -16 42 -33.5t12 -50.5v-41l-169 76l-169 -76v94z" />
    <glyph glyph-name="atilde" unicode="&#xe3;" horiz-adv-x="549" 
d="M428 469q55 -55 55 -161v-308h-59q-32 0 -50 16.5t-23 42.5q-36 -31 -73.5 -49.5t-83.5 -18.5q-73 0 -116.5 40.5t-43.5 117.5q0 75 52 118t146 43q55 0 117 -18v15q0 50 -28 74t-86 24q-88 0 -167 -35v108q94 46 198 46q107 0 162 -55zM232 102q23 0 54.5 9.5t62.5 29.5
v69q-45 8 -96 8q-88 0 -88 -60q0 -56 67 -56zM297 590.5q-19 6.5 -42 18.5q-23 11 -37 16t-30 5q-30 0 -52 -8.5t-49 -29.5v100q26 23 49.5 31.5t53.5 8.5q17 0 33 -5.5t36 -15.5q23 -12 41 -18t40 -6q30 0 52.5 8.5t48.5 29.5v-60q0 -47 -35 -66q-29 -15 -68 -15
q-22 0 -41 6.5z" />
    <glyph glyph-name="adieresis" unicode="&#xe4;" horiz-adv-x="549" 
d="M428 469q55 -55 55 -161v-308h-59q-32 0 -50 16.5t-23 42.5q-36 -31 -73.5 -49.5t-83.5 -18.5q-73 0 -116.5 40.5t-43.5 117.5q0 75 52 118t146 43q55 0 117 -18v15q0 50 -28 74t-86 24q-88 0 -167 -35v108q94 46 198 46q107 0 162 -55zM232 102q23 0 54.5 9.5t62.5 29.5
v69q-45 8 -96 8q-88 0 -88 -60q0 -56 67 -56zM96 598q-21 20 -21 54t22 54t55 20q34 0 56 -20t22 -54t-22.5 -54t-55.5 -20q-35 0 -56 20zM318 598q-21 20 -21 54t21.5 54t55.5 20t56 -20t22 -54t-22.5 -54t-56.5 -20t-55 20z" />
    <glyph glyph-name="aring" unicode="&#xe5;" horiz-adv-x="549" 
d="M428 469q55 -55 55 -161v-308h-59q-32 0 -50 16.5t-23 42.5q-36 -31 -73.5 -49.5t-83.5 -18.5q-73 0 -116.5 40.5t-43.5 117.5q0 75 52 118t146 43q55 0 117 -18v15q0 50 -28 74t-86 24q-88 0 -167 -35v108q94 46 198 46q107 0 162 -55zM232 102q23 0 54.5 9.5t62.5 29.5
v69q-45 8 -96 8q-88 0 -88 -60q0 -56 67 -56zM176.5 600.5q-35.5 34.5 -35.5 86.5t35.5 86.5t87.5 34.5t87.5 -34.5t35.5 -86.5t-35.5 -86.5t-87.5 -34.5t-87.5 34.5zM296.5 653.5q13.5 13.5 13.5 33.5q0 19 -13.5 33t-32.5 14t-32.5 -14t-13.5 -33q0 -20 13.5 -33.5
t32.5 -13.5t32.5 13.5z" />
    <glyph glyph-name="ae" unicode="&#xe6;" horiz-adv-x="860" 
d="M815 221h-333q18 -111 141 -111q47 0 86 7.5t87 29.5v-112q-42 -24 -93.5 -35.5t-102.5 -11.5q-63 0 -114 23.5t-85 67.5q-41 -40 -89 -64t-109 -24q-80 0 -124.5 40.5t-44.5 117.5q0 75 51.5 118t144.5 43q55 0 116 -18v12q0 100 -113 100q-44 0 -83 -8t-82 -27v109
q46 22 93 34t103 12q110 0 165 -70q33 33 74 51.5t87 18.5q100 0 162.5 -63t62.5 -198v-42zM680 309q-1 50 -25.5 75.5t-64.5 25.5t-69 -23.5t-38 -77.5h197zM293.5 112q35.5 12 69.5 39q-8 24 -13 57q-45 9 -99 9q-46 0 -66 -15t-20 -44q0 -58 66 -58q27 0 62.5 12z" />
    <glyph glyph-name="ccedilla" unicode="&#xe7;" horiz-adv-x="488" 
d="M162 18q-55 31 -86.5 91.5t-31.5 145.5q0 81 34 142t90.5 94t124.5 33q72 0 116 -28q25 -14 33 -33.5t8 -53.5v-43q-36 17 -62 24t-61 7q-68 0 -101 -37t-33 -104q0 -66 32 -103.5t92 -37.5q41 0 69.5 7.5t65.5 24.5v-118q-42 -23 -79.5 -32.5t-85.5 -9.5q-70 0 -125 31z
M187.5 -225.5q-33.5 6.5 -65.5 23.5v73q35 -16 61.5 -21t58.5 -5q56 0 56 23q0 25 -43 25q-27 0 -46 -3v59q42 6 74 6q56 0 87 -23.5t31 -68.5t-39 -70t-100 -25q-41 0 -74.5 6.5z" />
    <glyph glyph-name="egrave" unicode="&#xe8;" horiz-adv-x="560" 
d="M515 220h-331q18 -110 139 -110q48 0 86.5 7.5t86.5 29.5v-112q-42 -24 -93.5 -35.5t-102.5 -11.5q-74 0 -132 32t-91 92.5t-33 142.5t34 143t90.5 93.5t121.5 32.5q100 0 162.5 -63t62.5 -198v-43zM380 309q-1 50 -25.5 75.5t-64.5 25.5q-39 0 -67.5 -23.5t-37.5 -77.5
h195zM211 624q-38 10 -55 30t-17 61v48l266 -103v-91z" />
    <glyph glyph-name="eacute" unicode="&#xe9;" horiz-adv-x="560" 
d="M515 220h-331q18 -110 139 -110q48 0 86.5 7.5t86.5 29.5v-112q-42 -24 -93.5 -35.5t-102.5 -11.5q-74 0 -132 32t-91 92.5t-33 142.5t34 143t90.5 93.5t121.5 32.5q100 0 162.5 -63t62.5 -198v-43zM380 309q-1 50 -25.5 75.5t-64.5 25.5q-39 0 -67.5 -23.5t-37.5 -77.5
h195zM175 660l266 103v-48q0 -41 -17.5 -60.5t-54.5 -30.5l-194 -55v91z" />
    <glyph glyph-name="ecircumflex" unicode="&#xea;" horiz-adv-x="560" 
d="M515 220h-331q18 -110 139 -110q48 0 86.5 7.5t86.5 29.5v-112q-42 -24 -93.5 -35.5t-102.5 -11.5q-74 0 -132 32t-91 92.5t-33 142.5t34 143t90.5 93.5t121.5 32.5q100 0 162.5 -63t62.5 -198v-43zM380 309q-1 50 -25.5 75.5t-64.5 25.5q-39 0 -67.5 -23.5t-37.5 -77.5
h195zM121 665l169 95l115 -64q30 -16 42 -33.5t12 -50.5v-41l-169 76l-169 -76v94z" />
    <glyph glyph-name="edieresis" unicode="&#xeb;" horiz-adv-x="560" 
d="M515 220h-331q18 -110 139 -110q48 0 86.5 7.5t86.5 29.5v-112q-42 -24 -93.5 -35.5t-102.5 -11.5q-74 0 -132 32t-91 92.5t-33 142.5t34 143t90.5 93.5t121.5 32.5q100 0 162.5 -63t62.5 -198v-43zM380 309q-1 50 -25.5 75.5t-64.5 25.5q-39 0 -67.5 -23.5t-37.5 -77.5
h195zM122 598q-21 20 -21 54t22 54t55 20q34 0 56 -20t22 -54t-22.5 -54t-55.5 -20q-35 0 -56 20zM344 598q-21 20 -21 54t21.5 54t55.5 20t56 -20t22 -54t-22.5 -54t-56.5 -20t-55 20z" />
    <glyph glyph-name="igrave" unicode="&#xec;" horiz-adv-x="292" 
d="M72 512h74q38 0 56 -24.5t18 -66.5v-421h-148v512zM67 624q-38 10 -55 30t-17 61v48l266 -103v-91z" />
    <glyph glyph-name="iacute" unicode="&#xed;" horiz-adv-x="292" 
d="M72 512h74q38 0 56 -24.5t18 -66.5v-421h-148v512zM31 660l266 103v-48q0 -41 -17.5 -60.5t-54.5 -30.5l-194 -55v91z" />
    <glyph glyph-name="icircumflex" unicode="&#xee;" horiz-adv-x="292" 
d="M72 512h74q38 0 56 -24.5t18 -66.5v-421h-148v512zM-23 665l169 95l115 -64q30 -16 42 -33.5t12 -50.5v-41l-169 76l-169 -76v94z" />
    <glyph glyph-name="idieresis" unicode="&#xef;" horiz-adv-x="292" 
d="M72 512h74q38 0 56 -24.5t18 -66.5v-421h-148v512zM-22 598q-21 20 -21 54t22 54t55 20q34 0 56 -20t22 -54t-22.5 -54t-55.5 -20q-35 0 -56 20zM200 598q-21 20 -21 54t21.5 54t55.5 20t56 -20t22 -54t-22.5 -54t-56.5 -20t-55 20z" />
    <glyph glyph-name="eth" unicode="&#xf0;" horiz-adv-x="602" 
d="M542.5 439.5q19.5 -65.5 19.5 -131.5q0 -148 -70 -234.5t-208 -86.5q-107 0 -174.5 59t-67.5 172q0 67 32.5 119t87 81t118.5 29q70 0 125 -27q-14 58 -45 114l-149 -33v94l92 21q-37 45 -83 84h156q25 -20 57 -55l120 27v-94l-64 -14q34 -59 53.5 -124.5zM417 305
q-27 16 -52.5 21.5t-63.5 5.5q-54 0 -84.5 -28.5t-30.5 -79.5q0 -54 28 -83.5t80 -29.5q120 0 123 194z" />
    <glyph glyph-name="ntilde" unicode="&#xf1;" horiz-adv-x="615" 
d="M502.5 471.5q46.5 -52.5 46.5 -148.5v-323h-149v304q0 91 -77 91q-49 0 -103 -45v-350h-149v512h75q57 0 70 -57q35 33 73.5 51t86.5 18q80 0 126.5 -52.5zM350 590.5q-19 6.5 -42 18.5q-23 11 -37 16t-30 5q-30 0 -52 -8.5t-49 -29.5v100q26 23 49.5 31.5t53.5 8.5
q17 0 33 -5.5t36 -15.5q23 -12 41 -18t40 -6q30 0 52.5 8.5t48.5 29.5v-60q0 -47 -35 -66q-29 -15 -68 -15q-22 0 -41 6.5z" />
    <glyph glyph-name="ograve" unicode="&#xf2;" horiz-adv-x="607" 
d="M175.5 18q-59.5 31 -95.5 92t-36 146t36.5 145.5t96 91.5t127.5 31q69 0 128 -31t95 -91.5t36 -145.5t-36.5 -146t-96 -92t-126.5 -31q-69 0 -128.5 31zM385 152.5q29 38.5 29 103.5t-28.5 103.5t-81.5 38.5q-52 0 -81.5 -38.5t-29.5 -103.5q0 -66 28.5 -104t82.5 -38
q52 0 81 38.5zM225 624q-38 10 -55 30t-17 61v48l266 -103v-91z" />
    <glyph glyph-name="oacute" unicode="&#xf3;" horiz-adv-x="607" 
d="M175.5 18q-59.5 31 -95.5 92t-36 146t36.5 145.5t96 91.5t127.5 31q69 0 128 -31t95 -91.5t36 -145.5t-36.5 -146t-96 -92t-126.5 -31q-69 0 -128.5 31zM385 152.5q29 38.5 29 103.5t-28.5 103.5t-81.5 38.5q-52 0 -81.5 -38.5t-29.5 -103.5q0 -66 28.5 -104t82.5 -38
q52 0 81 38.5zM189 660l266 103v-48q0 -41 -17.5 -60.5t-54.5 -30.5l-194 -55v91z" />
    <glyph glyph-name="ocircumflex" unicode="&#xf4;" horiz-adv-x="607" 
d="M175.5 18q-59.5 31 -95.5 92t-36 146t36.5 145.5t96 91.5t127.5 31q69 0 128 -31t95 -91.5t36 -145.5t-36.5 -146t-96 -92t-126.5 -31q-69 0 -128.5 31zM385 152.5q29 38.5 29 103.5t-28.5 103.5t-81.5 38.5q-52 0 -81.5 -38.5t-29.5 -103.5q0 -66 28.5 -104t82.5 -38
q52 0 81 38.5zM135 665l169 95l115 -64q30 -16 42 -33.5t12 -50.5v-41l-169 76l-169 -76v94z" />
    <glyph glyph-name="otilde" unicode="&#xf5;" horiz-adv-x="607" 
d="M175.5 18q-59.5 31 -95.5 92t-36 146t36.5 145.5t96 91.5t127.5 31q69 0 128 -31t95 -91.5t36 -145.5t-36.5 -146t-96 -92t-126.5 -31q-69 0 -128.5 31zM385 152.5q29 38.5 29 103.5t-28.5 103.5t-81.5 38.5q-52 0 -81.5 -38.5t-29.5 -103.5q0 -66 28.5 -104t82.5 -38
q52 0 81 38.5zM337 590.5q-19 6.5 -42 18.5q-23 11 -37 16t-30 5q-30 0 -52 -8.5t-49 -29.5v100q26 23 49.5 31.5t53.5 8.5q17 0 33 -5.5t36 -15.5q23 -12 41 -18t40 -6q30 0 52.5 8.5t48.5 29.5v-60q0 -47 -35 -66q-29 -15 -68 -15q-22 0 -41 6.5z" />
    <glyph glyph-name="odieresis" unicode="&#xf6;" horiz-adv-x="607" 
d="M175.5 18q-59.5 31 -95.5 92t-36 146t36.5 145.5t96 91.5t127.5 31q69 0 128 -31t95 -91.5t36 -145.5t-36.5 -146t-96 -92t-126.5 -31q-69 0 -128.5 31zM385 152.5q29 38.5 29 103.5t-28.5 103.5t-81.5 38.5q-52 0 -81.5 -38.5t-29.5 -103.5q0 -66 28.5 -104t82.5 -38
q52 0 81 38.5zM136 598q-21 20 -21 54t22 54t55 20q34 0 56 -20t22 -54t-22.5 -54t-55.5 -20q-35 0 -56 20zM358 598q-21 20 -21 54t21.5 54t55.5 20t56 -20t22 -54t-22.5 -54t-56.5 -20t-55 20z" />
    <glyph glyph-name="divide" unicode="&#xf7;" 
d="M261 486.5q-22 21.5 -22 57.5q0 35 22.5 56.5t57.5 21.5t57.5 -21.5t22.5 -56.5q0 -36 -23 -57.5t-57 -21.5q-36 0 -58 21.5zM97 409h443v-135h-443v135zM261 82.5q-22 21.5 -22 57.5q0 35 22.5 56.5t57.5 21.5t57.5 -21.5t22.5 -56.5q0 -36 -23 -57.5t-57 -21.5
q-36 0 -58 21.5z" />
    <glyph glyph-name="oslash" unicode="&#xf8;" horiz-adv-x="608" 
d="M505 434q58 -71 58 -178q0 -85 -36.5 -146t-96 -92t-126.5 -31q-75 0 -134 34l-40 -50h-113l86 106q-59 72 -59 179q0 85 36.5 145.5t96 91.5t127.5 31q75 0 134 -34l41 51h112zM200 197l154 190q-22 11 -50 11q-52 0 -81.5 -38.5t-29.5 -103.5q0 -34 7 -59zM407 314
l-153 -189q24 -11 50 -11q52 0 81 38.5t29 103.5q0 33 -7 58z" />
    <glyph glyph-name="ugrave" unicode="&#xf9;" horiz-adv-x="613" 
d="M541 512v-512h-74q-58 0 -71 57q-35 -33 -73 -51.5t-85 -18.5q-80 0 -126 53t-46 149v323h149v-304q0 -91 76 -91q52 0 102 45v350h148zM228 624q-38 10 -55 30t-17 61v48l266 -103v-91z" />
    <glyph glyph-name="uacute" unicode="&#xfa;" horiz-adv-x="613" 
d="M541 512v-512h-74q-58 0 -71 57q-35 -33 -73 -51.5t-85 -18.5q-80 0 -126 53t-46 149v323h149v-304q0 -91 76 -91q52 0 102 45v350h148zM192 660l266 103v-48q0 -41 -17.5 -60.5t-54.5 -30.5l-194 -55v91z" />
    <glyph glyph-name="ucircumflex" unicode="&#xfb;" horiz-adv-x="613" 
d="M541 512v-512h-74q-58 0 -71 57q-35 -33 -73 -51.5t-85 -18.5q-80 0 -126 53t-46 149v323h149v-304q0 -91 76 -91q52 0 102 45v350h148zM138 665l169 95l115 -64q30 -16 42 -33.5t12 -50.5v-41l-169 76l-169 -76v94z" />
    <glyph glyph-name="udieresis" unicode="&#xfc;" horiz-adv-x="613" 
d="M541 512v-512h-74q-58 0 -71 57q-35 -33 -73 -51.5t-85 -18.5q-80 0 -126 53t-46 149v323h149v-304q0 -91 76 -91q52 0 102 45v350h148zM139 598q-21 20 -21 54t22 54t55 20q34 0 56 -20t22 -54t-22.5 -54t-55.5 -20q-35 0 -56 20zM361 598q-21 20 -21 54t21.5 54
t55.5 20t56 -20t22 -54t-22.5 -54t-56.5 -20t-55 20z" />
    <glyph glyph-name="yacute" unicode="&#xfd;" horiz-adv-x="581" 
d="M229 11l-224 500h91q45 0 67 -19.5t38 -62.5l103 -268l119 350h152l-275 -711h-151zM175 660l266 103v-48q0 -41 -17.5 -60.5t-54.5 -30.5l-194 -55v91z" />
    <glyph glyph-name="thorn" unicode="&#xfe;" horiz-adv-x="616" 
d="M471 494.5q47 -29.5 74 -87t27 -138.5q0 -92 -35 -154.5t-92 -93.5t-123 -31q-49 0 -102 24v-214h-149v900h75q38 0 56 -24.5t18 -66.5v-148q70 63 146 63q58 0 105 -29.5zM387.5 151.5q35.5 37.5 35.5 113.5q0 68 -28 100.5t-75 32.5q-50 0 -100 -42v-233q31 -9 71 -9
q61 0 96.5 37.5z" />
    <glyph glyph-name="ydieresis" unicode="&#xff;" horiz-adv-x="581" 
d="M229 11l-224 500h91q45 0 67 -19.5t38 -62.5l103 -268l119 350h152l-275 -711h-151zM122 598q-21 20 -21 54t22 54t55 20q34 0 56 -20t22 -54t-22.5 -54t-55.5 -20q-35 0 -56 20zM344 598q-21 20 -21 54t21.5 54t55.5 20t56 -20t22 -54t-22.5 -54t-56.5 -20t-55 20z" />
    <glyph glyph-name="Abreve" unicode="&#x102;" horiz-adv-x="716" 
d="M711 0h-82q-50 0 -76.5 19.5t-40.5 64.5l-27 82h-265l-59 -166h-156l270 700h168zM444 291l-86 261l-93 -261h179zM274.5 777q-40.5 15 -80.5 51v97q42 -31 80 -48t85 -17t86 17t81 48v-57q0 -46 -42 -73q-54 -33 -124 -33q-45 0 -85.5 15z" />
    <glyph glyph-name="abreve" unicode="&#x103;" horiz-adv-x="549" 
d="M428 469q55 -55 55 -161v-308h-59q-32 0 -50 16.5t-23 42.5q-36 -31 -73.5 -49.5t-83.5 -18.5q-73 0 -116.5 40.5t-43.5 117.5q0 75 52 118t146 43q55 0 117 -18v15q0 50 -28 74t-86 24q-88 0 -167 -35v108q94 46 198 46q107 0 162 -55zM232 102q23 0 54.5 9.5t62.5 29.5
v69q-45 8 -96 8q-88 0 -88 -60q0 -56 67 -56zM179.5 598q-40.5 16 -80.5 54v97q43 -32 80.5 -49.5t83.5 -17.5q47 0 85 17.5t81 49.5v-47q0 -29 -9 -49t-33 -36q-54 -35 -123 -35q-44 0 -84.5 16z" />
    <glyph glyph-name="Dcroat" unicode="&#x110;" horiz-adv-x="765" 
d="M550 660q76 -40 119 -118.5t43 -189.5q0 -114 -45.5 -193t-122.5 -119t-170 -40h-276v281h-80v137h80v282h276q100 0 176 -40zM508.5 192q47.5 56 47.5 160q0 103 -45 157.5t-137 54.5h-124v-146h155v-137h-155v-145h124q87 0 134.5 56z" />
    <glyph glyph-name="dcroat" unicode="&#x111;" horiz-adv-x="615" 
d="M620 531h-76v-531h-74q-58 0 -71 57q-69 -69 -149 -69q-58 0 -105 27t-74 80t-27 127q0 87 34.5 145.5t91.5 86t123 27.5q51 0 103 -24v74h-173v102h173v67h74q32 0 49.5 -18t22.5 -49h78v-102zM220.5 141.5q27.5 -26.5 75.5 -26.5t100 45v187q-38 10 -74 10
q-59 0 -94 -31.5t-35 -98.5q0 -59 27.5 -85.5z" />
    <glyph glyph-name="dotlessi" unicode="&#x131;" horiz-adv-x="292" 
d="M72 512h74q38 0 56 -24.5t18 -66.5v-421h-148v512z" />
    <glyph glyph-name="IJ" unicode="&#x132;" horiz-adv-x="845" 
d="M78 700h80q39 0 57 -20t18 -59v-621h-155v700zM338 33v128q78 -37 147 -37t100 36t31 108v432h80q39 0 57 -20t18 -59v-374q0 -117 -64 -188.5t-181 -71.5q-96 0 -188 46z" />
    <glyph glyph-name="ij" unicode="&#x133;" horiz-adv-x="580" 
d="M72 512h74q38 0 56 -24.5t18 -66.5v-421h-148v512zM85.5 595.5q-22.5 20.5 -22.5 55.5t23.5 56t58.5 21q36 0 59.5 -21t23.5 -56t-24 -55.5t-60 -20.5t-58.5 20.5zM197 -186v114q23 -8 41.5 -11.5t42.5 -3.5q39 0 60.5 25t21.5 70v504h75q38 0 56 -24.5t18 -66.5v-419
q0 -95 -47.5 -154.5t-143.5 -59.5q-61 0 -124 26zM377.5 595.5q-22.5 20.5 -22.5 55.5t23.5 56t58.5 21q36 0 59.5 -21t23.5 -56t-24 -55.5t-60 -20.5t-58.5 20.5z" />
    <glyph glyph-name="OE" unicode="&#x152;" horiz-adv-x="1071" 
d="M1039 137v-137h-477v75q-34 -43 -81 -65.5t-112 -22.5q-91 0 -162.5 43.5t-112.5 126t-41 194.5q0 113 44.5 195t117 124.5t154.5 42.5q124 0 193 -74v61h397q76 0 76 -78v-59h-332v-143h281v-134h-281v-149h336zM503 184.5q44 60.5 44 166.5t-41.5 165.5t-128.5 59.5
q-79 0 -123.5 -60t-44.5 -165q0 -107 41.5 -167t126.5 -60q82 0 126 60.5z" />
    <glyph glyph-name="oe" unicode="&#x153;" horiz-adv-x="954" 
d="M909 221h-333q18 -111 141 -111q48 0 86.5 7.5t86.5 29.5v-112q-42 -24 -93.5 -35.5t-102.5 -11.5q-62 0 -112 23.5t-84 66.5q-35 -44 -85.5 -67.5t-108.5 -23.5q-69 0 -128.5 31t-95.5 92t-36 146t36.5 145.5t96 91.5t127.5 31q61 0 112.5 -25t86.5 -70q33 44 80 69.5
t102 25.5q100 0 162 -63t62 -198v-42zM775 309q-2 50 -26.5 75.5t-63.5 25.5q-40 0 -69.5 -23.5t-38.5 -77.5h198zM385 152.5q29 38.5 29 103.5t-28.5 103.5t-81.5 38.5q-52 0 -81.5 -38.5t-29.5 -103.5q0 -66 28.5 -104t82.5 -38q52 0 81 38.5z" />
    <glyph glyph-name="Scaron" unicode="&#x160;" horiz-adv-x="599" 
d="M149 0q-64 13 -115 40v127q52 -22 111.5 -34t114.5 -12q75 0 108.5 14.5t33.5 57.5q0 28 -18.5 46.5t-47.5 29.5t-79 24q-74 19 -119 43t-69 65t-24 107q0 62 31.5 108.5t90.5 71.5t138 25q108 0 166 -30q32 -17 42.5 -39t10.5 -65v-38q-42 18 -92 28.5t-88 10.5
q-77 0 -111 -14.5t-34 -54.5q0 -36 34 -55t103 -38q110 -29 165.5 -78t55.5 -144q0 -99 -75 -154t-206 -55q-63 0 -127 13zM178 820q-27 14 -40.5 33.5t-13.5 49.5v43l177 -76l177 76v-96l-177 -97z" />
    <glyph glyph-name="scaron" unicode="&#x161;" horiz-adv-x="496" 
d="M39 30v115q38 -18 84.5 -28.5t90.5 -10.5q56 0 81.5 9t25.5 33q0 22 -19 31.5t-65 19.5l-42 10q-46 12 -77.5 28t-52 48t-20.5 85q0 71 57 112.5t155 41.5q78 0 128 -23q29 -14 39.5 -32.5t10.5 -54.5v-44q-32 17 -72.5 27t-78.5 10q-55 0 -79 -8.5t-24 -30.5
q0 -19 20 -29t70 -22q27 -6 48 -12q68 -18 104.5 -53t36.5 -108q0 -77 -61 -117t-166 -40q-115 0 -194 43zM134 636q-30 16 -42 33.5t-12 50.5v41l169 -76l169 76v-94l-169 -95z" />
    <glyph glyph-name="Wcircumflex" unicode="&#x174;" horiz-adv-x="1018" 
d="M15 700h73q48 0 75.5 -24t37.5 -70l100 -433l131 527h169l119 -528l125 528h158l-200 -700h-171l-122 516l-125 -516h-172zM334 846l177 96l123 -66q27 -14 40.5 -34t13.5 -50v-42l-177 75l-177 -75v96z" />
    <glyph glyph-name="wcircumflex" unicode="&#x175;" horiz-adv-x="819" 
d="M12 512h75q40 0 60.5 -18t28.5 -56l67 -285l98 359h144l95 -359l84 359h143l-157 -512h-147l-95 360l-98 -360h-145zM242 665l169 95l115 -64q30 -16 42 -33.5t12 -50.5v-41l-169 76l-169 -76v94z" />
    <glyph glyph-name="Ycircumflex" unicode="&#x176;" horiz-adv-x="680" 
d="M262 272l-257 428h94q46 0 75.5 -23t54.5 -70l112 -201l170 294h164l-258 -432v-268h-155v272zM156 846l177 96l123 -66q27 -14 40.5 -34t13.5 -50v-42l-177 75l-177 -75v96z" />
    <glyph glyph-name="ycircumflex" unicode="&#x177;" horiz-adv-x="581" 
d="M229 11l-224 500h91q45 0 67 -19.5t38 -62.5l103 -268l119 350h152l-275 -711h-151zM121 665l169 95l115 -64q30 -16 42 -33.5t12 -50.5v-41l-169 76l-169 -76v94z" />
    <glyph glyph-name="Ydieresis" unicode="&#x178;" horiz-adv-x="680" 
d="M262 272l-257 428h94q46 0 75.5 -23t54.5 -70l112 -201l170 294h164l-258 -432v-268h-155v272zM162.5 777.5q-21.5 20.5 -21.5 55.5q0 34 22 54.5t56 20.5q35 0 57.5 -20.5t22.5 -54.5q0 -35 -23 -55.5t-57 -20.5q-35 0 -56.5 20.5zM387.5 777.5q-21.5 20.5 -21.5 55.5
t22 55t57 20t57 -20.5t22 -54.5q0 -35 -23 -55.5t-57 -20.5q-35 0 -56.5 20.5z" />
    <glyph glyph-name="Zcaron" unicode="&#x17d;" horiz-adv-x="609" 
d="M41 132l344 429h-339v139h441q77 0 77 -78v-57l-341 -426h348v-139h-530v132zM176 820q-27 14 -40.5 33.5t-13.5 49.5v43l177 -76l177 76v-96l-177 -97z" />
    <glyph glyph-name="zcaron" unicode="&#x17e;" horiz-adv-x="497" 
d="M464 387l-252 -263h255v-124h-426v125l255 263h-255v124h347q41 0 58.5 -21.5t17.5 -61.5v-42zM129 636q-30 16 -42 33.5t-12 50.5v41l169 -76l169 76v-94l-169 -95z" />
    <glyph glyph-name="Scommaaccent" unicode="&#x218;" horiz-adv-x="599" 
d="M149 0q-64 13 -115 40v127q52 -22 111.5 -34t114.5 -12q75 0 108.5 14.5t33.5 57.5q0 28 -18.5 46.5t-47.5 29.5t-79 24q-74 19 -119 43t-69 65t-24 107q0 62 31.5 108.5t90.5 71.5t138 25q108 0 166 -30q32 -17 42.5 -39t10.5 -65v-38q-42 18 -92 28.5t-88 10.5
q-77 0 -111 -14.5t-34 -54.5q0 -36 34 -55t103 -38q110 -29 165.5 -78t55.5 -144q0 -99 -75 -154t-206 -55q-63 0 -127 13zM212 -146.5q15 39.5 25 90.5h132q-5 -46 -22.5 -89.5t-46.5 -78.5h-126q23 38 38 77.5z" />
    <glyph glyph-name="scommaaccent" unicode="&#x219;" horiz-adv-x="496" 
d="M39 30v115q38 -18 84.5 -28.5t90.5 -10.5q56 0 81.5 9t25.5 33q0 22 -19 31.5t-65 19.5l-42 10q-46 12 -77.5 28t-52 48t-20.5 85q0 71 57 112.5t155 41.5q78 0 128 -23q29 -14 39.5 -32.5t10.5 -54.5v-44q-32 17 -72.5 27t-78.5 10q-55 0 -79 -8.5t-24 -30.5
q0 -19 20 -29t70 -22q27 -6 48 -12q68 -18 104.5 -53t36.5 -108q0 -77 -61 -117t-166 -40q-115 0 -194 43zM189 -52h128q-6 -45 -24 -91.5t-45 -79.5h-122q39 60 63 171z" />
    <glyph glyph-name="uni021A" unicode="&#x21a;" horiz-adv-x="617" 
d="M596 563h-210v-563h-154v563h-211v137h500q39 0 57 -20t18 -59v-58zM224 -146.5q15 39.5 25 90.5h132q-5 -46 -22.5 -89.5t-46.5 -78.5h-126q23 38 38 77.5z" />
    <glyph glyph-name="uni021B" unicode="&#x21b;" horiz-adv-x="471" 
d="M389.5 118.5q18.5 3.5 46.5 11.5v-116q-63 -26 -135 -26q-185 0 -185 214v186h-93v124h93v153h74q38 0 56 -24.5t18 -66.5v-62h169v-124h-169v-177q0 -46 19 -71t63 -25q25 0 43.5 3.5zM220 -52h128q-6 -45 -24 -91.5t-45 -79.5h-122q39 60 63 171z" />
    <glyph glyph-name="uni0237" unicode="&#x237;" horiz-adv-x="288" 
d="M-95 -186v114q23 -8 41.5 -11.5t42.5 -3.5q39 0 60.5 25t21.5 70v504h75q38 0 56 -24.5t18 -66.5v-419q0 -95 -47.5 -154.5t-143.5 -59.5q-61 0 -124 26z" />
    <glyph glyph-name="circumflex" unicode="&#x2c6;" horiz-adv-x="600" 
d="M131 665l169 95l115 -64q30 -16 42 -33.5t12 -50.5v-41l-169 76l-169 -76v94z" />
    <glyph glyph-name="caron" unicode="&#x2c7;" horiz-adv-x="600" 
d="M185 636q-30 16 -42 33.5t-12 50.5v41l169 -76l169 76v-94l-169 -95z" />
    <glyph glyph-name="breve" unicode="&#x2d8;" horiz-adv-x="600" 
d="M215.5 598q-40.5 16 -80.5 54v97q43 -32 80.5 -49.5t83.5 -17.5q47 0 85 17.5t81 49.5v-47q0 -29 -9 -49t-33 -36q-54 -35 -123 -35q-44 0 -84.5 16z" />
    <glyph glyph-name="dotaccent" unicode="&#x2d9;" horiz-adv-x="600" 
d="M239.5 595.5q-22.5 20.5 -22.5 55.5t23.5 56t58.5 21q36 0 59.5 -21t23.5 -56t-24 -55.5t-60 -20.5t-58.5 20.5z" />
    <glyph glyph-name="ring" unicode="&#x2da;" horiz-adv-x="600" 
d="M212.5 600.5q-35.5 34.5 -35.5 86.5t35.5 86.5t87.5 34.5t87.5 -34.5t35.5 -86.5t-35.5 -86.5t-87.5 -34.5t-87.5 34.5zM332.5 653.5q13.5 13.5 13.5 33.5q0 19 -13.5 33t-32.5 14t-32.5 -14t-13.5 -33q0 -20 13.5 -33.5t32.5 -13.5t32.5 13.5z" />
    <glyph glyph-name="tilde" unicode="&#x2dc;" horiz-adv-x="600" 
d="M333 590.5q-19 6.5 -42 18.5q-23 11 -37 16t-30 5q-30 0 -52 -8.5t-49 -29.5v100q26 23 49.5 31.5t53.5 8.5q17 0 33 -5.5t36 -15.5q23 -12 41 -18t40 -6q30 0 52.5 8.5t48.5 29.5v-60q0 -47 -35 -66q-29 -15 -68 -15q-22 0 -41 6.5z" />
    <glyph glyph-name="gravecomb" unicode="&#x300;" horiz-adv-x="0" 
d="M-79 624q-38 10 -55 30t-17 61v48l266 -103v-91z" />
    <glyph glyph-name="acutecomb" unicode="&#x301;" horiz-adv-x="0" 
d="M-115 660l266 103v-48q0 -41 -17.5 -60.5t-54.5 -30.5l-194 -55v91z" />
    <glyph glyph-name="uni0302" unicode="&#x302;" horiz-adv-x="0" 
d="M-169 665l169 95l115 -64q30 -16 42 -33.5t12 -50.5v-41l-169 76l-169 -76v94z" />
    <glyph glyph-name="tildecomb" unicode="&#x303;" horiz-adv-x="0" 
d="M33 590.5q-19 6.5 -42 18.5q-23 11 -37 16t-30 5q-30 0 -52 -8.5t-49 -29.5v100q26 23 49.5 31.5t53.5 8.5q17 0 33 -5.5t36 -15.5q23 -12 41 -18t40 -6q30 0 52.5 8.5t48.5 29.5v-60q0 -47 -35 -66q-29 -15 -68 -15q-22 0 -41 6.5z" />
    <glyph glyph-name="uni0306" unicode="&#x306;" horiz-adv-x="0" 
d="M-84.5 598q-40.5 16 -80.5 54v97q43 -32 80.5 -49.5t83.5 -17.5q47 0 85 17.5t81 49.5v-47q0 -29 -9 -49t-33 -36q-54 -35 -123 -35q-44 0 -84.5 16z" />
    <glyph glyph-name="uni0307" unicode="&#x307;" horiz-adv-x="0" 
d="M-60.5 595.5q-22.5 20.5 -22.5 55.5t23.5 56t58.5 21q36 0 59.5 -21t23.5 -56t-24 -55.5t-60 -20.5t-58.5 20.5z" />
    <glyph glyph-name="uni0308" unicode="&#x308;" horiz-adv-x="0" 
d="M-168 598q-21 20 -21 54t22 54t55 20q34 0 56 -20t22 -54t-22.5 -54t-55.5 -20q-35 0 -56 20zM54 598q-21 20 -21 54t21.5 54t55.5 20t56 -20t22 -54t-22.5 -54t-56.5 -20t-55 20z" />
    <glyph glyph-name="uni030A" unicode="&#x30a;" horiz-adv-x="0" 
d="M-87.5 600.5q-35.5 34.5 -35.5 86.5t35.5 86.5t87.5 34.5t87.5 -34.5t35.5 -86.5t-35.5 -86.5t-87.5 -34.5t-87.5 34.5zM32.5 653.5q13.5 13.5 13.5 33.5q0 19 -13.5 33t-32.5 14t-32.5 -14t-13.5 -33q0 -20 13.5 -33.5t32.5 -13.5t32.5 13.5z" />
    <glyph glyph-name="uni030C" unicode="&#x30c;" horiz-adv-x="0" 
d="M-115 636q-30 16 -42 33.5t-12 50.5v41l169 -76l169 76v-94l-169 -95z" />
    <glyph glyph-name="uni0326" unicode="&#x326;" horiz-adv-x="0" 
d="M-60 -52h128q-6 -45 -24 -91.5t-45 -79.5h-122q39 60 63 171z" />
    <glyph glyph-name="uni0327" unicode="&#x327;" horiz-adv-x="0" 
d="M-102.5 -225.5q-33.5 6.5 -65.5 23.5v73q35 -16 61.5 -21t58.5 -5q56 0 56 23q0 25 -43 25q-27 0 -46 -3v59q42 6 74 6q56 0 87 -23.5t31 -68.5t-39 -70t-100 -25q-41 0 -74.5 6.5z" />
    <glyph glyph-name="Wgrave" unicode="&#x1e80;" horiz-adv-x="1018" 
d="M15 700h73q48 0 75.5 -24t37.5 -70l100 -433l131 527h169l119 -528l125 528h158l-200 -700h-171l-122 516l-125 -516h-172zM428 801q-71 17 -71 91v49l272 -93v-96z" />
    <glyph glyph-name="wgrave" unicode="&#x1e81;" horiz-adv-x="819" 
d="M12 512h75q40 0 60.5 -18t28.5 -56l67 -285l98 359h144l95 -359l84 359h143l-157 -512h-147l-95 360l-98 -360h-145zM332 624q-38 10 -55 30t-17 61v48l266 -103v-91z" />
    <glyph glyph-name="Wacute" unicode="&#x1e82;" horiz-adv-x="1018" 
d="M15 700h73q48 0 75.5 -24t37.5 -70l100 -433l131 527h169l119 -528l125 528h158l-200 -700h-171l-122 516l-125 -516h-172zM392 848l272 93v-49q0 -74 -71 -91l-201 -49v96z" />
    <glyph glyph-name="wacute" unicode="&#x1e83;" horiz-adv-x="819" 
d="M12 512h75q40 0 60.5 -18t28.5 -56l67 -285l98 359h144l95 -359l84 359h143l-157 -512h-147l-95 360l-98 -360h-145zM296 660l266 103v-48q0 -41 -17.5 -60.5t-54.5 -30.5l-194 -55v91z" />
    <glyph glyph-name="Wdieresis" unicode="&#x1e84;" horiz-adv-x="1018" 
d="M15 700h73q48 0 75.5 -24t37.5 -70l100 -433l131 527h169l119 -528l125 528h158l-200 -700h-171l-122 516l-125 -516h-172zM340.5 777.5q-21.5 20.5 -21.5 55.5q0 34 22 54.5t56 20.5q35 0 57.5 -20.5t22.5 -54.5q0 -35 -23 -55.5t-57 -20.5q-35 0 -56.5 20.5z
M565.5 777.5q-21.5 20.5 -21.5 55.5t22 55t57 20t57 -20.5t22 -54.5q0 -35 -23 -55.5t-57 -20.5q-35 0 -56.5 20.5z" />
    <glyph glyph-name="wdieresis" unicode="&#x1e85;" horiz-adv-x="819" 
d="M12 512h75q40 0 60.5 -18t28.5 -56l67 -285l98 359h144l95 -359l84 359h143l-157 -512h-147l-95 360l-98 -360h-145zM243 598q-21 20 -21 54t22 54t55 20q34 0 56 -20t22 -54t-22.5 -54t-55.5 -20q-35 0 -56 20zM465 598q-21 20 -21 54t21.5 54t55.5 20t56 -20t22 -54
t-22.5 -54t-56.5 -20t-55 20z" />
    <glyph glyph-name="uni1E9E" unicode="&#x1e9e;" horiz-adv-x="715" 
d="M631 327.5q54 -53.5 54 -134.5q0 -97 -58.5 -151.5t-161.5 -54.5q-46 0 -92 11t-84 34v120q83 -40 152 -40q49 0 76 23t27 65q0 46 -38.5 70.5t-111.5 24.5h-69v78l153 167q-12 21 -39.5 33.5t-70.5 12.5q-71 0 -110.5 -42t-39.5 -128v-416h-147v391q0 149 70 235.5
t229 86.5q130 0 203 -70q21 -21 33 -46t12 -52v-10l-128 -138q87 -16 141 -69.5z" />
    <glyph glyph-name="Ygrave" unicode="&#x1ef2;" horiz-adv-x="680" 
d="M262 272l-257 428h94q46 0 75.5 -23t54.5 -70l112 -201l170 294h164l-258 -432v-268h-155v272zM250 801q-71 17 -71 91v49l272 -93v-96z" />
    <glyph glyph-name="ygrave" unicode="&#x1ef3;" horiz-adv-x="581" 
d="M229 11l-224 500h91q45 0 67 -19.5t38 -62.5l103 -268l119 350h152l-275 -711h-151zM211 624q-38 10 -55 30t-17 61v48l266 -103v-91z" />
    <glyph glyph-name="uni2000" unicode="&#x2000;" horiz-adv-x="500" 
 />
    <glyph glyph-name="uni2001" unicode="&#x2001;" horiz-adv-x="1000" 
 />
    <glyph glyph-name="uni2002" unicode="&#x2002;" horiz-adv-x="500" 
 />
    <glyph glyph-name="uni2003" unicode="&#x2003;" horiz-adv-x="1000" 
 />
    <glyph glyph-name="uni2004" unicode="&#x2004;" horiz-adv-x="335" 
 />
    <glyph glyph-name="uni2005" unicode="&#x2005;" horiz-adv-x="250" 
 />
    <glyph glyph-name="uni2006" unicode="&#x2006;" horiz-adv-x="166" 
 />
    <glyph glyph-name="uni2007" unicode="&#x2007;" horiz-adv-x="640" 
 />
    <glyph glyph-name="uni2008" unicode="&#x2008;" horiz-adv-x="260" 
 />
    <glyph glyph-name="uni2009" unicode="&#x2009;" horiz-adv-x="150" 
 />
    <glyph glyph-name="uni200A" unicode="&#x200a;" horiz-adv-x="125" 
 />
    <glyph glyph-name="uni200B" unicode="&#x200b;" horiz-adv-x="0" 
 />
    <glyph glyph-name="uni2010" unicode="&#x2010;" horiz-adv-x="527" 
d="M66 360h395v-149h-395v149z" />
    <glyph glyph-name="endash" unicode="&#x2013;" horiz-adv-x="500" 
d="M0 359h500v-147h-500v147z" />
    <glyph glyph-name="emdash" unicode="&#x2014;" horiz-adv-x="1000" 
d="M0 359h1000v-147h-1000v147z" />
    <glyph glyph-name="quoteleft" unicode="&#x2018;" horiz-adv-x="276" 
d="M179 435h-131q11 130 86 266h114q-54 -130 -69 -266z" />
    <glyph glyph-name="quoteright" unicode="&#x2019;" horiz-adv-x="276" 
d="M97 700h131q-11 -129 -86 -265h-114q56 135 69 265z" />
    <glyph glyph-name="quotesinglbase" unicode="&#x201a;" horiz-adv-x="249" 
d="M73 126h130q-9 -127 -86 -266h-114q56 133 70 266z" />
    <glyph glyph-name="quotedblleft" unicode="&#x201c;" horiz-adv-x="464" 
d="M175 435h-127q11 130 86 266h111q-55 -128 -70 -266zM367 435h-127q9 127 86 266h110q-56 -135 -69 -266z" />
    <glyph glyph-name="quotedblright" unicode="&#x201d;" horiz-adv-x="464" 
d="M97 700h127q-11 -129 -86 -265h-110q56 135 69 265zM289 700h127q-11 -130 -87 -265h-110q55 128 70 265z" />
    <glyph glyph-name="quotedblbase" unicode="&#x201e;" horiz-adv-x="436" 
d="M73 126h126q-9 -127 -86 -266h-110q56 133 70 266zM264 126h127q-11 -130 -86 -266h-110q54 130 69 266z" />
    <glyph glyph-name="bullet" unicode="&#x2022;" horiz-adv-x="462" 
d="M130.5 256q-40.5 39 -40.5 102t40.5 102.5t100.5 39.5t101 -39.5t41 -102.5t-41 -102t-101 -39t-100.5 39z" />
    <glyph glyph-name="ellipsis" unicode="&#x2026;" horiz-adv-x="778" 
d="M70 9q-23 22 -23 59t23.5 59.5t59.5 22.5q37 0 60 -22.5t23 -59.5t-23.5 -59t-59.5 -22q-37 0 -60 22zM329 9q-23 22 -23 59t23.5 59.5t59.5 22.5q37 0 60 -22.5t23 -59.5t-23.5 -59t-59.5 -22q-37 0 -60 22zM588 9q-23 22 -23 59t23.5 59.5t59.5 22.5q37 0 60 -22.5
t23 -59.5t-23.5 -59t-59.5 -22q-37 0 -60 22z" />
    <glyph glyph-name="minute" unicode="&#x2032;" horiz-adv-x="250" 
d="M50 718h150l-9 -293h-133z" />
    <glyph glyph-name="second" unicode="&#x2033;" horiz-adv-x="468" 
d="M50 718h150l-9 -293h-133zM268 718h151l-9 -293h-133z" />
    <glyph glyph-name="guilsinglleft" unicode="&#x2039;" horiz-adv-x="364" 
d="M52 254l120 198h148l-123 -197l123 -196h-148z" />
    <glyph glyph-name="guilsinglright" unicode="&#x203a;" horiz-adv-x="364" 
d="M167 254l-123 197h148l121 -197l-121 -196h-148z" />
    <glyph glyph-name="Euro" unicode="&#x20ac;" 
d="M508.5 128q39.5 10 84.5 33v-120q-87 -54 -199 -54t-180.5 60.5t-93.5 169.5h-80l19 98h49q-1 10 -1 32q0 19 1 28h-68l19 99h64q30 107 106 167t180 60q83 0 130 -33q25 -16 34 -38.5t9 -61.5v-39q-42 23 -75 32t-75 9q-122 0 -161 -96h192l-19 -99h-193q-1 -9 -1 -29
q0 -21 1 -31h184l-19 -98h-146q37 -99 155 -99q44 0 83.5 10z" />
    <glyph glyph-name="trademark" unicode="&#x2122;" horiz-adv-x="920" 
d="M370 643v-39h-121v-275h-109v275h-123v94h304q49 0 49 -55zM847 685.5q12 -12.5 12 -38.5v-318h-105v237l-74 -135h-73l-76 131v-233h-104v369h119l100 -162l94 162h68q27 0 39 -12.5z" />
    <glyph glyph-name="minus" unicode="&#x2212;" 
d="M97 409h443v-135h-443v135z" />
    <glyph glyph-name="ij.001" horiz-adv-x="580" 
d="M72 512h74q38 0 56 -24.5t18 -66.5v-421h-148v512zM85.5 595.5q-22.5 20.5 -22.5 55.5t23.5 56t58.5 21q36 0 59.5 -21t23.5 -56t-24 -55.5t-60 -20.5t-58.5 20.5zM197 -186v114q23 -8 41.5 -11.5t42.5 -3.5q39 0 60.5 25t21.5 70v504h75q38 0 56 -24.5t18 -66.5v-419
q0 -95 -47.5 -154.5t-143.5 -59.5q-61 0 -124 26zM377.5 595.5q-22.5 20.5 -22.5 55.5t23.5 56t58.5 21q36 0 59.5 -21t23.5 -56t-24 -55.5t-60 -20.5t-58.5 20.5z" />
    <glyph glyph-name="zero.lf" horiz-adv-x="655" 
d="M178.5 28.5q-63.5 41.5 -98 122t-34.5 195.5q0 114 38 194t102 120.5t141 40.5q86 0 149.5 -41t98 -120.5t34.5 -193.5q0 -116 -37 -196.5t-101 -121.5t-144 -41q-85 0 -148.5 41.5zM422.5 181q32.5 57 32.5 165t-29.5 163t-97.5 55q-62 0 -95 -56t-33 -162
q0 -110 29 -166t98 -56q63 0 95.5 57z" />
    <glyph glyph-name="one.lf" horiz-adv-x="612" 
d="M581 136v-136h-511v136h197v403l-207 -53v131l233 72h56q39 0 56 -21.5t17 -57.5v-474h159z" />
    <glyph glyph-name="two.lf" horiz-adv-x="629" 
d="M76 138q67 53 83 65q87 68 132 107.5t73.5 79.5t28.5 79q0 48 -30 71.5t-91 23.5q-86 0 -203 -49v132q125 54 227 54q126 0 189.5 -57t63.5 -155q0 -66 -31 -120t-80.5 -98.5t-144.5 -117.5q-2 -1 -23 -17h295v-136h-489v138z" />
    <glyph glyph-name="three.lf" horiz-adv-x="629" 
d="M170 2.5q-62 15.5 -115 43.5v124q58 -24 109 -37t103 -13q144 0 144 90q0 48 -49.5 68t-154.5 22v100l156 153h-306v135h403q37 0 55.5 -18t18.5 -57v-44l-173 -172q96 -12 148.5 -60.5t52.5 -133.5q0 -64 -33 -113t-95 -76t-146 -27q-56 0 -118 15.5z" />
    <glyph glyph-name="four.lf" horiz-adv-x="635" 
d="M604 151h-92v-151h-142v151h-336v126l336 411h71q38 0 54.5 -21.5t16.5 -57.5v-332h92v-126zM370 277v232l-194 -232h194z" />
    <glyph glyph-name="five.lf" horiz-adv-x="620" 
d="M247 553l-16 -138q54 4 90 4q109 0 173.5 -54.5t64.5 -156.5q0 -65 -33.5 -115t-95.5 -78t-145 -28q-57 0 -114.5 14t-107.5 41v123q55 -22 103.5 -34t97.5 -12q69 0 105.5 23t36.5 70q0 49 -34.5 70.5t-108.5 21.5q-83 0 -173 -14l48 398h310q76 0 76 -78v-57h-277z" />
    <glyph glyph-name="six.lf" horiz-adv-x="623" 
d="M461 407.5q54 -24.5 85 -72.5t31 -115q0 -110 -68.5 -171.5t-183.5 -61.5q-132 0 -203.5 86.5t-71.5 238.5q0 112 37 200t107 138t165 50q52 0 87.5 -11t60.5 -34q18 -17 24.5 -40t6.5 -57v-31q-39 23 -74 32.5t-82 9.5q-79 0 -124 -40t-60 -122q70 25 142 25
q67 0 121 -24.5zM407 136.5q29 27.5 29 77.5q0 48 -31 75.5t-96 27.5q-56 0 -119 -24q2 -86 36 -135t99 -49q53 0 82 27.5z" />
    <glyph glyph-name="seven.lf" horiz-adv-x="586" 
d="M369 550h-336v138h425q74 0 74 -78v-40l-212 -570h-172z" />
    <glyph glyph-name="eight.lf" horiz-adv-x="643" 
d="M569.5 291.5q27.5 -40.5 27.5 -94.5q0 -104 -76 -157t-200 -53q-128 0 -201.5 54.5t-73.5 155.5q0 54 27.5 94t74.5 66q-85 56 -85 147q0 96 73.5 146.5t184.5 50.5q122 0 190.5 -51.5t68.5 -145.5q0 -92 -84 -146q46 -26 73.5 -66.5zM205 496q0 -83 116 -83t116 83
q0 43 -29 62.5t-87 19.5q-116 0 -116 -82zM450 202q0 46 -33 69t-95 23q-128 0 -128 -92q0 -91 128 -91t128 91z" />
    <glyph glyph-name="nine.lf" horiz-adv-x="620" 
d="M503 611q67 -89 67 -245q0 -173 -74.5 -276t-219.5 -103q-53 0 -103.5 13.5t-83.5 33.5v121q37 -20 75.5 -28.5t88.5 -8.5q83 0 122.5 38.5t50.5 122.5q-72 -24 -144 -24q-66 0 -119.5 24t-84.5 72t-31 117q0 72 33.5 124.5t92 80t132.5 27.5q131 0 198 -89zM217.5 397
q31.5 -28 96.5 -28q54 0 117 23q-5 186 -128 186q-53 0 -85 -27t-32 -77q0 -49 31.5 -77z" />
    <glyph glyph-name="zero.tf" 
d="M169.5 28.5q-63.5 41.5 -98 122t-34.5 195.5q0 114 38 194t102 120.5t141 40.5q86 0 149.5 -41t98 -120.5t34.5 -193.5q0 -116 -37 -196.5t-101 -121.5t-144 -41q-85 0 -148.5 41.5zM413.5 181q32.5 57 32.5 165t-29.5 163t-97.5 55q-62 0 -95 -56t-33 -162
q0 -110 29 -166t98 -56q63 0 95.5 57z" />
    <glyph glyph-name="one.tf" 
d="M599 136v-136h-511v136h197v403l-207 -53v131l233 72h56q39 0 56 -21.5t17 -57.5v-474h159z" />
    <glyph glyph-name="two.tf" 
d="M80 138q67 53 83 65q87 68 132 107.5t73.5 79.5t28.5 79q0 48 -30 71.5t-91 23.5q-86 0 -203 -49v132q125 54 227 54q126 0 189.5 -57t63.5 -155q0 -66 -31 -120t-80.5 -98.5t-144.5 -117.5q-2 -1 -23 -17h295v-136h-489v138z" />
    <glyph glyph-name="three.tf" 
d="M174 2.5q-62 15.5 -115 43.5v124q58 -24 109 -37t103 -13q144 0 144 90q0 48 -49.5 68t-154.5 22v100l156 153h-306v135h403q37 0 55.5 -18t18.5 -57v-44l-173 -172q96 -12 148.5 -60.5t52.5 -133.5q0 -64 -33 -113t-95 -76t-146 -27q-56 0 -118 15.5z" />
    <glyph glyph-name="four.tf" 
d="M606 151h-92v-151h-142v151h-336v126l336 411h71q38 0 54.5 -21.5t16.5 -57.5v-332h92v-126zM372 277v232l-194 -232h194z" />
    <glyph glyph-name="five.tf" 
d="M257 553l-16 -138q54 4 90 4q109 0 173.5 -54.5t64.5 -156.5q0 -65 -33.5 -115t-95.5 -78t-145 -28q-57 0 -114.5 14t-107.5 41v123q55 -22 103.5 -34t97.5 -12q69 0 105.5 23t36.5 70q0 49 -34.5 70.5t-108.5 21.5q-83 0 -173 -14l48 398h310q76 0 76 -78v-57h-277z" />
    <glyph glyph-name="six.tf" 
d="M471 407.5q54 -24.5 85 -72.5t31 -115q0 -110 -68.5 -171.5t-183.5 -61.5q-132 0 -203.5 86.5t-71.5 238.5q0 112 37 200t107 138t165 50q52 0 87.5 -11t60.5 -34q18 -17 24.5 -40t6.5 -57v-31q-39 23 -74 32.5t-82 9.5q-79 0 -124 -40t-60 -122q70 25 142 25
q67 0 121 -24.5zM417 136.5q29 27.5 29 77.5q0 48 -31 75.5t-96 27.5q-56 0 -119 -24q2 -86 36 -135t99 -49q53 0 82 27.5z" />
    <glyph glyph-name="seven.tf" 
d="M396 550h-336v138h425q74 0 74 -78v-40l-212 -570h-172z" />
    <glyph glyph-name="eight.tf" 
d="M566.5 291.5q27.5 -40.5 27.5 -94.5q0 -104 -76 -157t-200 -53q-128 0 -201.5 54.5t-73.5 155.5q0 54 27.5 94t74.5 66q-85 56 -85 147q0 96 73.5 146.5t184.5 50.5q122 0 190.5 -51.5t68.5 -145.5q0 -92 -84 -146q46 -26 73.5 -66.5zM202 496q0 -83 116 -83t116 83
q0 43 -29 62.5t-87 19.5q-116 0 -116 -82zM447 202q0 46 -33 69t-95 23q-128 0 -128 -92q0 -91 128 -91t128 91z" />
    <glyph glyph-name="nine.tf" 
d="M507 611q67 -89 67 -245q0 -173 -74.5 -276t-219.5 -103q-53 0 -103.5 13.5t-83.5 33.5v121q37 -20 75.5 -28.5t88.5 -8.5q83 0 122.5 38.5t50.5 122.5q-72 -24 -144 -24q-66 0 -119.5 24t-84.5 72t-31 117q0 72 33.5 124.5t92 80t132.5 27.5q131 0 198 -89zM221.5 397
q31.5 -28 96.5 -28q54 0 117 23q-5 186 -128 186q-53 0 -85 -27t-32 -77q0 -49 31.5 -77z" />
    <glyph glyph-name="backslash.case" horiz-adv-x="503" 
d="M15 769h62q54 0 81 -22.5t44 -70.5l287 -755h-154z" />
    <glyph glyph-name="exclamdown.case" horiz-adv-x="277" 
d="M219 0h-84q-76 0 -76 74v6l10 411h138zM198 691q23 -22 23 -59t-23.5 -59.5t-59.5 -22.5q-37 0 -60 22.5t-23 59.5t23.5 59t59.5 22q37 0 60 -22z" />
    <glyph glyph-name="questiondown.case" horiz-adv-x="575" 
d="M380 342q-81 -19 -124 -38.5t-59 -41.5t-16 -53q0 -41 34.5 -62.5t101.5 -21.5q105 0 220 48v-130q-124 -53 -239 -53q-127 0 -199.5 53t-72.5 147q0 84 50.5 135t161.5 88l3 81h136zM369 694q23 -22 23 -59t-23.5 -59.5t-59.5 -22.5q-37 0 -60.5 22.5t-23.5 59.5t24 59
t60 22q37 0 60 -22z" />
    <glyph glyph-name="slash.case" horiz-adv-x="503" 
d="M335 769h154l-287 -756q-17 -47 -44 -69.5t-81 -22.5h-62z" />
    <glyph glyph-name="braceleft.case" horiz-adv-x="444" 
d="M209 -63q-48 26 -74 72.5t-26 106.5v90q0 33 -20 54.5t-55 29.5v111q35 7 55 28.5t20 54.5v90q0 60 26 106.5t74.5 72.5t114.5 26h25q74 0 74 -76v-52h-62q-119 0 -119 -108v-77q0 -40 -22 -74.5t-61 -46.5q39 -13 61 -47t22 -73v-74q0 -54 31.5 -83t86.5 -29h64v-128
h-103q-64 0 -112 26z" />
    <glyph glyph-name="braceright.case" horiz-adv-x="444" 
d="M21 -13v52h62q58 0 88.5 28t30.5 80v78q0 39 22 73.5t61 47.5q-39 12 -61 46.5t-22 73.5v74q0 54 -31 82.5t-87 28.5h-64v128h103q64 0 112 -25.5t74 -72t26 -107.5v-89q0 -33 20 -54.5t55 -29.5v-111q-35 -8 -55 -29.5t-20 -54.5v-89q0 -93 -57.5 -149.5t-156.5 -56.5
h-26q-74 0 -74 76z" />
    <glyph glyph-name="bracketleft.case" horiz-adv-x="434" 
d="M227 649v-608h187v-130h-330v868h256q74 0 74 -76v-54h-187z" />
    <glyph glyph-name="bracketright.case" horiz-adv-x="434" 
d="M350 -89h-256q-74 0 -74 76v55h187v607h-187v130h330v-868z" />
    <glyph glyph-name="parenleft.case" horiz-adv-x="370" 
d="M99.5 103q-37.5 113 -37.5 241q0 104 28.5 198t73.5 165q30 47 64 70t82 23h47q-72 -106 -109 -215t-37 -241q0 -130 37 -240.5t109 -215.5h-138q-82 102 -119.5 215z" />
    <glyph glyph-name="parenright.case" horiz-adv-x="370" 
d="M122 103.5q37 109.5 37 240.5q0 130 -37 240.5t-109 215.5h138q82 -103 120 -215.5t38 -240.5q0 -104 -29 -197.5t-74 -165.5q-30 -47 -64 -70t-82 -23h-46q71 106 108 215.5z" />
    <glyph glyph-name="emdash.case" horiz-adv-x="1000" 
d="M0 419h1000v-147h-1000v147z" />
    <glyph glyph-name="endash.case" horiz-adv-x="500" 
d="M0 419h500v-147h-500v147z" />
    <glyph glyph-name="hyphen.case" horiz-adv-x="527" 
d="M66 420h395v-149h-395v149z" />
    <glyph glyph-name="uni2010.case" horiz-adv-x="527" 
d="M66 427h395v-149h-395v149z" />
    <glyph glyph-name="uni00AD.case" horiz-adv-x="527" 
d="M66 427h395v-149h-395v149z" />
    <glyph glyph-name="guillemotleft.case" horiz-adv-x="579" 
d="M52 341l120 197h134l-123 -197l123 -196h-134zM281 341l121 197h133l-123 -197l123 -196h-133z" />
    <glyph glyph-name="guillemotright.case" horiz-adv-x="580" 
d="M167 341l-123 197h134l121 -197l-121 -196h-134zM397 341l-124 197h134l121 -197l-121 -196h-134z" />
    <glyph glyph-name="guilsinglleft.case" horiz-adv-x="364" 
d="M52 341l120 198h148l-123 -197l123 -196h-148z" />
    <glyph glyph-name="guilsinglright.case" horiz-adv-x="364" 
d="M167 341l-123 197h148l121 -197l-121 -196h-148z" />
    <glyph glyph-name="at.case" horiz-adv-x="1012" 
d="M831.5 269.5q36.5 57.5 36.5 146.5q0 81 -43 144.5t-118.5 98.5t-170.5 35q-113 0 -202.5 -47.5t-140 -131t-50.5 -188.5q0 -108 48 -191.5t133 -129.5t192 -46q65 0 124 9t102 27v-89q-99 -39 -227 -39q-137 0 -244 57.5t-167 162t-60 239.5q0 129 64.5 234t176.5 165
t251 60q120 0 218.5 -48t155.5 -132.5t57 -189.5q0 -93 -37 -165t-103.5 -112t-153.5 -40h-12q-60 0 -69 65q-67 -65 -141 -65q-52 0 -92.5 27.5t-63.5 77t-23 114.5q0 78 36.5 132.5t95.5 81t126 26.5q53 0 100 -12t98 -34v-316q67 16 103.5 73.5zM590 439q-30 6 -60 6
q-56 0 -88 -32.5t-32 -89.5q0 -111 90 -111q43 0 90 39v188z" />
    <glyph glyph-name="uni0308.case" horiz-adv-x="0" 
d="M-170.5 777.5q-21.5 20.5 -21.5 55.5q0 34 22 54.5t56 20.5q35 0 57.5 -20.5t22.5 -54.5q0 -35 -23 -55.5t-57 -20.5q-35 0 -56.5 20.5zM54.5 777.5q-21.5 20.5 -21.5 55.5t22 55t57 20t57 -20.5t22 -54.5q0 -35 -23 -55.5t-57 -20.5q-35 0 -56.5 20.5z" />
    <glyph glyph-name="gravecomb.case" horiz-adv-x="0" 
d="M-83 801q-71 17 -71 91v49l272 -93v-96z" />
    <glyph glyph-name="acutecomb.case" horiz-adv-x="0" 
d="M-119 848l272 93v-49q0 -74 -71 -91l-201 -49v96z" />
    <glyph glyph-name="uni0302.case" horiz-adv-x="0" 
d="M-177 846l177 96l123 -66q27 -14 40.5 -34t13.5 -50v-42l-177 75l-177 -75v96z" />
    <glyph glyph-name="uni030C.case" horiz-adv-x="0" 
d="M-123 820q-27 14 -40.5 33.5t-13.5 49.5v43l177 -76l177 76v-96l-177 -97z" />
    <glyph glyph-name="uni0306.case" horiz-adv-x="0" 
d="M-84.5 777q-40.5 15 -80.5 51v97q42 -31 80 -48t85 -17t86 17t81 48v-57q0 -46 -42 -73q-54 -33 -124 -33q-45 0 -85.5 15z" />
    <glyph glyph-name="uni030A.case" horiz-adv-x="0" 
d="M-97.5 690.5q-39.5 38.5 -39.5 95.5q0 58 39.5 96.5t97.5 38.5t97.5 -38.5t39.5 -96.5q0 -57 -39.5 -95.5t-97.5 -38.5t-97.5 38.5zM36 750.5q15 14.5 15 35.5q0 22 -15 36.5t-36 14.5t-36 -14.5t-15 -36.5q0 -21 15 -35.5t36 -14.5t36 14.5z" />
    <glyph glyph-name="tildecomb.case" horiz-adv-x="0" 
d="M35 763q-19 7 -43 20q-21 11 -36 17t-32 6q-30 0 -54 -9.5t-51 -31.5v102q25 24 49 34t55 10q18 0 34.5 -6.5t38.5 -18.5q21 -12 39.5 -18.5t39.5 -6.5q30 0 54 9.5t52 31.5v-61q0 -22 -6 -37.5t-23 -26.5q-34 -21 -75 -21q-23 0 -42 7z" />
    <glyph glyph-name="uni0326.case" horiz-adv-x="0" 
d="M-86 -146.5q15 39.5 25 90.5h132q-5 -46 -22.5 -89.5t-46.5 -78.5h-126q23 38 38 77.5z" />
    <glyph glyph-name="uni0327.case" horiz-adv-x="0" 
d="M-111.5 -239.5q-36.5 6.5 -71.5 25.5v79q38 -16 67.5 -21.5t62.5 -5.5q62 0 62 24q0 27 -47 27q-30 0 -50 -3v63q47 6 80 6q61 0 95.5 -25.5t34.5 -73.5q0 -47 -43 -74.5t-109 -27.5q-45 0 -81.5 6.5z" />
    </font>
</defs>
</svg>
