<?xml version="1.0" standalone="no"?>
<!DOCTYPE svg PUBLIC "-//W3C//DTD SVG 1.1//EN" "http://www.w3.org/Graphics/SVG/1.1/DTD/svg11.dtd" >
<svg xmlns="http://www.w3.org/2000/svg" xmlns:xlink="http://www.w3.org/1999/xlink" version="1.1">
<metadata>
Created by FontForge 20170731 at Tue Sep 26 13:57:54 2017
 By Aleksey,,,
Copyright (c) 2017 Votorantim SA. All rights reserved.
</metadata>
<defs>
<font id="VotorantimSans-Regular" horiz-adv-x="637" >
  <font-face 
    font-family="Votorantim Sans"
    font-weight="400"
    font-stretch="normal"
    units-per-em="1000"
    panose-1="2 1 5 3 3 2 2 5 2 3"
    ascent="800"
    descent="-200"
    x-height="499"
    cap-height="700"
    bbox="-174 -232 1030 926"
    underline-thickness="50"
    underline-position="-150"
    unicode-range="U+0020-2212"
  />
<missing-glyph horiz-adv-x="500" 
d="M410 -200h-317v1000h317v-1000zM168 733v-33h65v-37h-66v-33h166v33h-66v37h66v33h-165zM167 604v-104h166v34h-66v70h-100zM233 534h-33v36h33v-36zM167 473v-33h66v-37h-66v-33h100v70h66v33h-166zM300 413v-66h-133v-34h166v100h-33zM233 291v-56h34v23h33v-47h-100
v80h-33v-113h166v113h-100zM167 118v-113h166v113h-166zM300 38h-100v47h100v-47zM167 -18v-33h70l-70 -47v-33h166v33h-102l70 47h32v33h-166z" />
    <glyph glyph-name="f_f" unicode="ff" horiz-adv-x="745" 
d="M572 608.5q-25 -26.5 -25 -78.5v-30h174v-75h-174v-425h-89v425h-250v-425h-89v425h-93v75h93v27q0 76 40 130.5t126 54.5q43 0 71 -14t28 -55v-24q-41 16 -84 16q-44 0 -68 -26.5t-24 -78.5v-30h250v27q0 76 41 130.5t129 54.5q43 0 71 -14t28 -55v-24q-41 16 -84 16
q-46 0 -71 -26.5z" />
    <glyph glyph-name=".notdef" horiz-adv-x="500" 
d="M410 -200h-317v1000h317v-1000zM168 733v-33h65v-37h-66v-33h166v33h-66v37h66v33h-165zM167 604v-104h166v34h-66v70h-100zM233 534h-33v36h33v-36zM167 473v-33h66v-37h-66v-33h100v70h66v33h-166zM300 413v-66h-133v-34h166v100h-33zM233 291v-56h34v23h33v-47h-100
v80h-33v-113h166v113h-100zM167 118v-113h166v113h-166zM300 38h-100v47h100v-47zM167 -18v-33h70l-70 -47v-33h166v33h-102l70 47h32v33h-166z" />
    <glyph glyph-name=".null" horiz-adv-x="0" 
 />
    <glyph glyph-name="nonmarkingreturn" horiz-adv-x="333" 
 />
    <glyph glyph-name="space" unicode=" " horiz-adv-x="270" 
 />
    <glyph glyph-name="exclam" unicode="!" horiz-adv-x="242" 
d="M73 700h43q51 0 51 -55v-4l-6 -464h-81zM79.5 4.5q-16.5 16.5 -16.5 44.5t16.5 44.5t41.5 16.5t41.5 -16.5t16.5 -44.5t-17 -44.5t-41 -16.5q-25 0 -41.5 16.5z" />
    <glyph glyph-name="quotedbl" unicode="&#x22;" horiz-adv-x="406" 
d="M67 718h89l-6 -274h-77zM250 718h89l-5 -274h-78z" />
    <glyph glyph-name="numbersign" unicode="#" horiz-adv-x="657" 
d="M501 429l-24 -172h102v-79h-113l-20 -145h-81l20 145h-161l-20 -145h-81l20 145h-86v79h97l24 172h-101v79h112l21 148h81l-21 -148h161l21 148h81l-21 -148h87v-79h-98zM420 429h-161l-24 -172h161z" />
    <glyph glyph-name="dollar" unicode="$" 
d="M510.5 54q-53.5 -49 -152.5 -59v-148h-80v146q-56 2 -111 16t-99 37v73q54 -22 112.5 -34.5t114.5 -12.5q98 0 138 25t40 83q0 39 -24.5 64.5t-61 40t-100.5 31.5q-65 18 -108.5 39t-71 60t-27.5 101q0 75 53 121.5t155 55.5v138h80v-137q55 -4 109 -22q36 -12 45.5 -30
t9.5 -49v-17q-87 40 -192 40q-93 0 -133 -23t-40 -75q0 -37 22 -60.5t56.5 -37.5t94.5 -30q69 -19 115.5 -40.5t77.5 -62.5t31 -106q0 -78 -53.5 -127z" />
    <glyph glyph-name="percent" unicode="%" horiz-adv-x="895" 
d="M90 362q-48 51 -48 144q0 61 24 105t64 66.5t88 22.5q80 0 128 -50.5t48 -143.5q0 -94 -49.5 -144.5t-126.5 -50.5q-80 0 -128 51zM630 700h96l-462 -700h-96zM290.5 411.5q25.5 32.5 25.5 94.5q0 127 -98 127q-46 0 -72 -32.5t-26 -94.5q0 -127 98 -127q47 0 72.5 32.5z
M549 39q-48 51 -48 144q0 61 24 105t64 66.5t88 22.5q80 0 128 -50.5t48 -143.5q0 -94 -49.5 -144.5t-126.5 -50.5q-80 0 -128 51zM749.5 88.5q25.5 32.5 25.5 94.5q0 127 -98 127q-46 0 -72 -32.5t-26 -94.5q0 -127 98 -127q47 0 72.5 32.5z" />
    <glyph glyph-name="ampersand" unicode="&#x26;" horiz-adv-x="690" 
d="M658 332h-70q1 -16 1 -46q0 -97 -51 -174l94 -112h-99l-46 54q-78 -66 -190 -66q-80 0 -138 27t-88.5 74.5t-30.5 109.5q0 71 38.5 125.5t108.5 85.5q-56 75 -56 143q0 46 23.5 82t67.5 56.5t102 20.5q76 0 126 -25q21 -10 27 -24t6 -42v-23q-63 38 -146 38
q-59 0 -90.5 -24.5t-31.5 -64.5q0 -27 13.5 -53t39.5 -57l218 -261q27 56 27 121q0 56 -6 102h151v-67zM438 113l-205 242q-107 -42 -107 -151q0 -61 45.5 -100.5t125.5 -39.5q85 0 141 49z" />
    <glyph glyph-name="quotesingle" unicode="'" horiz-adv-x="223" 
d="M67 718h89l-6 -274h-77z" />
    <glyph glyph-name="parenleft" unicode="(" horiz-adv-x="322" 
d="M104.5 70q-39.5 110 -39.5 245q0 133 38 234.5t90 172.5q36 49 90 49h29q-74 -99 -114.5 -203t-40.5 -253q0 -144 41.5 -251.5t113.5 -204.5h-84q-84 101 -123.5 211z" />
    <glyph glyph-name="parenright" unicode=")" horiz-adv-x="323" 
d="M125.5 62.5q40.5 104.5 40.5 253.5q0 144 -41.5 252t-114.5 204h85q84 -101 123.5 -211t39.5 -245q0 -133 -38 -235.5t-90 -172.5q-36 -49 -90 -49h-29q74 99 114.5 203.5z" />
    <glyph glyph-name="asterisk" unicode="*" horiz-adv-x="449" 
d="M282 518l117 -63l-33 -57l-112 70l6 -132h-70l6 132l-112 -70l-34 57l118 63l-118 63l34 57l112 -70l-6 132h70l-6 -132l112 70l33 -57z" />
    <glyph glyph-name="plus" unicode="+" 
d="M546 300h-186v-186h-84v186h-185v79h185v186h84v-186h186v-79z" />
    <glyph glyph-name="comma" unicode="," horiz-adv-x="260" 
d="M99 92h84q-10 -107 -85 -231h-70q55 118 71 231z" />
    <glyph glyph-name="hyphen" unicode="-" horiz-adv-x="527" 
d="M74 328h379v-91h-379v91z" />
    <glyph glyph-name="period" unicode="." horiz-adv-x="260" 
d="M88.5 4.5q-16.5 16.5 -16.5 44.5t16.5 44.5t41.5 16.5t41.5 -16.5t16.5 -44.5t-17 -44.5t-41 -16.5q-25 0 -41.5 16.5z" />
    <glyph glyph-name="slash" unicode="/" horiz-adv-x="491" 
d="M379 746h92l-334 -794q-12 -29 -29 -44.5t-47 -15.5h-41z" />
    <glyph glyph-name="zero" unicode="0" 
d="M174.5 29.5q-61.5 41.5 -95.5 121.5t-34 194q0 112 35.5 192.5t97.5 121.5t141 41q83 0 144 -41t94.5 -120.5t33.5 -193.5q0 -113 -35 -193.5t-96.5 -122t-140.5 -41.5q-83 0 -144.5 41.5zM453 140.5q46 72.5 46 204.5q0 133 -44.5 204t-135.5 71q-88 0 -135 -72
t-47 -203q0 -134 45 -205.5t137 -71.5q88 0 134 72.5z" />
    <glyph glyph-name="one" unicode="1" 
d="M583 83v-83h-454v83h194v520l-213 -67v76l226 80h28q25 0 37 -15t12 -41v-553h170z" />
    <glyph glyph-name="two" unicode="2" 
d="M94 86l82 73q104 91 155 140.5t80 96.5t29 94q0 130 -150 130q-88 0 -200 -47v77q110 50 207 50q115 0 175 -55t60 -148q0 -67 -36 -126.5t-97 -117.5t-194 -170h344v-83h-455v86z" />
    <glyph glyph-name="three" unicode="3" 
d="M176.5 4q-57.5 16 -107.5 43v74q62 -28 106 -40.5t107 -12.5q86 0 130 35.5t44 95.5q0 69 -55 96.5t-171 31.5v68l191 210h-350v83h407q46 0 46 -48v-21l-204 -225q104 -10 166 -59t62 -140q0 -59 -31.5 -106t-90.5 -74t-139 -27q-53 0 -110.5 16z" />
    <glyph glyph-name="four" unicode="4" 
d="M598 173h-100v-173h-86v173h-353v80l355 435h39q25 0 35 -14t10 -42v-379h100v-80zM412 253v319l-263 -319h263z" />
    <glyph glyph-name="five" unicode="5" 
d="M225 605l-29 -204q72 8 121 8q112 0 175 -54.5t63 -155.5q0 -60 -32 -108t-90.5 -75.5t-135.5 -27.5q-112 0 -219 56v74q60 -26 106 -38t108 -12q80 0 125.5 36.5t45.5 95.5q0 70 -44.5 101.5t-129.5 31.5q-45 0 -94.5 -4.5t-84.5 -11.5l50 371h310q25 0 37 -15t12 -41
v-27h-294z" />
    <glyph glyph-name="six" unicode="6" 
d="M510.5 371.5q64.5 -54.5 64.5 -153.5q0 -106 -66.5 -168t-178.5 -62q-83 0 -142 40t-89 110.5t-30 162.5q0 123 37 213t104 138t157 48q95 0 144 -40q14 -12 18.5 -26.5t4.5 -39.5v-23q-36 25 -72.5 37t-85.5 12q-183 0 -212 -230q88 36 168 36q114 0 178.5 -54.5z
M444 105.5q40 37.5 40 109.5q0 66 -40.5 99.5t-125.5 33.5q-40 0 -82.5 -9t-76.5 -23v-13q0 -105 44.5 -170t127.5 -65q73 0 113 37.5z" />
    <glyph glyph-name="seven" unicode="7" 
d="M450 605h-372v83h418q24 0 36.5 -14.5t12.5 -37.5v-17l-233 -619h-99z" />
    <glyph glyph-name="eight" unicode="8" 
d="M553 296q31 -43 31 -104q0 -97 -71.5 -150.5t-193.5 -53.5q-123 0 -194 54t-71 150q0 60 32.5 102.5t88.5 65.5q-47 23 -74 62.5t-27 91.5q0 88 68 137t177 49q117 0 181 -48.5t64 -137.5q0 -52 -26 -90.5t-72 -61.5q56 -23 87 -66zM161 511q0 -116 158 -116
q159 0 159 116q0 58 -39 85t-120 27q-158 0 -158 -112zM496 193q0 63 -44.5 95.5t-131.5 32.5t-132 -32.5t-45 -95.5t44.5 -95t132.5 -32q176 0 176 127z" />
    <glyph glyph-name="nine" unicode="9" 
d="M495.5 610q62.5 -90 62.5 -239q0 -186 -70.5 -284.5t-210.5 -98.5q-49 0 -95.5 13t-77.5 33v74q35 -21 74 -30.5t89 -9.5q98 0 145.5 54.5t58.5 170.5q-87 -33 -169 -33q-110 0 -174.5 55.5t-64.5 160.5q0 67 32 117.5t88 78.5t125 28q125 0 187.5 -90zM399.5 344.5
q41.5 9.5 74.5 23.5v9q0 112 -40.5 177.5t-126.5 65.5q-71 0 -113.5 -37t-42.5 -106q0 -68 41.5 -105t125.5 -37q40 0 81.5 9.5z" />
    <glyph glyph-name="colon" unicode=":" horiz-adv-x="260" 
d="M88.5 396.5q-16.5 16.5 -16.5 44.5t16.5 44.5t41.5 16.5t41.5 -16.5t16.5 -44.5t-17 -44.5t-41 -16.5q-25 0 -41.5 16.5zM88.5 4.5q-16.5 16.5 -16.5 44.5t16.5 44.5t41.5 16.5t41.5 -16.5t16.5 -44.5t-17 -44.5t-41 -16.5q-25 0 -41.5 16.5z" />
    <glyph glyph-name="semicolon" unicode=";" horiz-adv-x="260" 
d="M95.5 396.5q-16.5 16.5 -16.5 44.5t16.5 44.5t41.5 16.5t41.5 -16.5t16.5 -44.5t-17 -44.5t-41 -16.5q-25 0 -41.5 16.5zM96 92h84q-10 -107 -85 -231h-70q55 118 71 231z" />
    <glyph glyph-name="less" unicode="&#x3c;" 
d="M522 479l-330 -135l330 -143v-87l-408 190v82l408 180v-87z" />
    <glyph glyph-name="equal" unicode="=" 
d="M104 490h428v-82h-428v82zM104 275h428v-82h-428v82z" />
    <glyph glyph-name="greater" unicode="&#x3e;" 
d="M522 376v-82l-408 -180v87l330 135l-330 143v87z" />
    <glyph glyph-name="question" unicode="?" horiz-adv-x="538" 
d="M195 326q84 23 130 50t63.5 58.5t17.5 74.5q0 56 -42 89.5t-125 33.5q-47 0 -100.5 -12t-103.5 -32v77q111 47 210 47q119 0 186 -54.5t67 -148.5q0 -79 -50 -133t-170 -94l-2 -105h-79zM194.5 4.5q-16.5 16.5 -16.5 44.5t16.5 44.5t41.5 16.5t41.5 -16.5t16.5 -44.5
t-17 -44.5t-41 -16.5q-25 0 -41.5 16.5z" />
    <glyph glyph-name="at" unicode="@" horiz-adv-x="1000" 
d="M820 172q47 63 47 153q0 84 -43 150.5t-120 104t-175 37.5q-116 0 -206 -49.5t-140 -135.5t-50 -191q0 -107 48 -192t134 -133.5t195 -48.5q130 0 210 33v-71q-92 -37 -211 -37q-133 0 -237 57t-162 159t-58 233q0 126 61.5 229t170.5 162t245 59q118 0 214 -47.5
t150.5 -131t54.5 -187.5q0 -88 -37.5 -158t-101.5 -109.5t-141 -39.5h-8q-26 0 -39 15t-15 47q-33 -31 -68.5 -47.5t-70.5 -16.5q-52 0 -92.5 26.5t-63 75t-22.5 111.5q0 70 30.5 124t84 83.5t120.5 29.5q50 0 88 -8t82 -26v-336q79 13 126 76zM606 381q-34 9 -82 9
q-66 0 -107 -42t-41 -115q0 -141 113 -141q32 0 58.5 12t58.5 40v237z" />
    <glyph glyph-name="A" unicode="A" horiz-adv-x="663" 
d="M657 0h-41q-33 0 -52 16t-30 47l-48 129h-313l-74 -192h-93l279 700h98zM456 275l-123 332l-128 -332h251z" />
    <glyph glyph-name="B" unicode="B" horiz-adv-x="626" 
d="M563 299.5q30 -43.5 30 -104.5q0 -92 -65 -143.5t-183 -51.5h-259v700h244q237 0 237 -185q0 -103 -91 -150q57 -22 87 -65.5zM172 397h141q88 0 127.5 25t39.5 88q0 62 -38.5 87t-123.5 25h-146v-225zM460 107q41 29 41 93q0 63 -38 90.5t-119 27.5h-172v-240h161
q86 0 127 29z" />
    <glyph glyph-name="C" unicode="C" horiz-adv-x="627" 
d="M203 32.5q-69 44.5 -106.5 126.5t-37.5 192q0 109 41.5 191t114.5 126t165 44q44 0 85.5 -10t68.5 -26q27 -17 34 -34t7 -48v-19q-49 31 -93.5 44t-100.5 13q-72 0 -124 -37t-79 -101t-27 -143q0 -82 25 -146t74 -100.5t118 -36.5q61 0 108 12t109 42v-77
q-54 -29 -107.5 -43t-113.5 -14q-92 0 -161 44.5z" />
    <glyph glyph-name="D" unicode="D" horiz-adv-x="723" 
d="M509.5 658.5q73.5 -41.5 114 -120t40.5 -187.5t-42.5 -188t-116 -121t-165.5 -42h-254v700h254q96 0 169.5 -41.5zM511 153q61 71 61 198q0 128 -60 197.5t-172 69.5h-163v-536h163q110 0 171 71z" />
    <glyph glyph-name="E" unicode="E" horiz-adv-x="575" 
d="M542 83v-83h-456v700h404q25 0 37 -15t12 -41v-27h-362v-219h316v-83h-316v-232h365z" />
    <glyph glyph-name="F" unicode="F" horiz-adv-x="550" 
d="M177 617v-222h303v-83h-303v-312h-91v700h387q25 0 37 -15t12 -41v-27h-345z" />
    <glyph glyph-name="G" unicode="G" horiz-adv-x="687" 
d="M617 44q-55 -28 -117 -42t-125 -14q-97 0 -168.5 44t-109.5 126t-38 193q0 110 42 191.5t117 125.5t172 44q50 0 92.5 -10t71.5 -27q28 -16 35 -33t7 -49v-19q-50 31 -97.5 44.5t-107.5 13.5q-77 0 -131 -37t-81 -100.5t-27 -143.5q0 -127 58 -205t168 -78q85 0 154 21
v194h-141v80h226v-319z" />
    <glyph glyph-name="H" unicode="H" horiz-adv-x="703" 
d="M605 685q12 -15 12 -41v-644h-92v315h-347v-315h-92v700h92v-302h347v302h43q25 0 37 -15z" />
    <glyph glyph-name="I" unicode="I" horiz-adv-x="264" 
d="M86 700h43q25 0 37 -15t12 -41v-644h-92v700z" />
    <glyph glyph-name="J" unicode="J" horiz-adv-x="518" 
d="M24 38v76q43 -23 82.5 -34.5t87.5 -11.5q152 0 152 171v461h43q25 0 37 -15t12 -41v-417q0 -109 -58 -174t-172 -65q-96 0 -184 50z" />
    <glyph glyph-name="K" unicode="K" horiz-adv-x="663" 
d="M658 0h-60q-25 0 -42.5 8t-28 20t-28.5 35l-218 286l-105 -109v-240h-90v700h90v-349l335 349h106l-276 -288z" />
    <glyph glyph-name="L" unicode="L" horiz-adv-x="541" 
d="M521 83v-83h-435v700h43q25 0 37 -15t12 -41v-561h343z" />
    <glyph glyph-name="M" unicode="M" horiz-adv-x="799" 
d="M86 700h101l214 -376l212 376h51q25 0 37 -15t12 -41v-644h-89v567l-193 -341h-63l-194 331v-557h-88v700z" />
    <glyph glyph-name="N" unicode="N" horiz-adv-x="707" 
d="M86 700h84l364 -550v550h39q24 0 36 -15t12 -41v-644h-85l-363 546v-546h-87v700z" />
    <glyph glyph-name="O" unicode="O" horiz-adv-x="753" 
d="M212 32.5q-72 44.5 -112.5 126.5t-40.5 192q0 108 42 190t114.5 126.5t161.5 44.5q93 0 165 -44t112 -126t40 -191t-42 -191.5t-114 -127t-161 -44.5q-93 0 -165 44.5zM497 103q51 35 78 99t27 149q0 129 -58.5 205t-166.5 76q-69 0 -120 -35t-78.5 -98.5t-27.5 -147.5
q0 -130 59 -206.5t167 -76.5q69 0 120 35z" />
    <glyph glyph-name="P" unicode="P" horiz-adv-x="617" 
d="M519 642.5q60 -57.5 60 -153.5q0 -70 -32 -118.5t-86 -72.5t-121 -24h-163v-274h-91v700h263q110 0 170 -57.5zM442.5 385q42.5 28 42.5 103q0 63 -35 96t-119 33h-154v-260h148q75 0 117.5 28z" />
    <glyph glyph-name="Q" unicode="Q" horiz-adv-x="753" 
d="M708 -71h-33q-39 0 -60.5 14.5t-45.5 47.5l-30 42q-74 -45 -162 -45q-93 0 -165 44.5t-112.5 126.5t-40.5 192q0 108 42 190t114.5 126.5t161.5 44.5q93 0 165 -44t112 -126t40 -191q0 -84 -25.5 -153t-71.5 -117zM491 99l-110 152h93l73 -100q27 37 41 88t14 112
q0 129 -58.5 205t-166.5 76q-69 0 -120 -35t-78.5 -98.5t-27.5 -147.5q0 -130 59 -206.5t167 -76.5q64 0 114 31z" />
    <glyph glyph-name="R" unicode="R" horiz-adv-x="624" 
d="M604 0h-39q-38 0 -58.5 14.5t-36.5 44.5l-117 222q-7 -1 -22 -1h-154v-280h-91v700h254q110 0 170 -56t60 -151q0 -71 -35.5 -120t-93.5 -73zM434 390q42 27 42 102q0 63 -34.5 94t-119.5 31h-145v-254h139q76 0 118 27z" />
    <glyph glyph-name="S" unicode="S" horiz-adv-x="578" 
d="M147.5 2q-61.5 14 -109.5 41v74q53 -23 111.5 -36t113.5 -13q96 0 135.5 26.5t39.5 86.5q0 41 -24 67.5t-61.5 42.5t-98.5 33q-65 18 -107.5 39.5t-69.5 61.5t-27 104q0 86 64 134.5t187 48.5q76 0 141 -23q36 -13 46 -31t10 -50v-16q-90 41 -190 41q-92 0 -131.5 -24.5
t-39.5 -77.5q0 -39 21.5 -63.5t55 -38.5t93.5 -31q69 -19 115.5 -41.5t77 -65t30.5 -109.5q0 -91 -68 -142.5t-191 -51.5q-62 0 -123.5 14z" />
    <glyph glyph-name="T" unicode="T" horiz-adv-x="576" 
d="M556 617h-224v-617h-92v617h-220v83h487q25 0 37 -15t12 -41v-27z" />
    <glyph glyph-name="U" unicode="U" horiz-adv-x="707" 
d="M80 330v370h92v-368q0 -133 42 -198.5t140 -65.5q96 0 138.5 66t42.5 198v368h43q25 0 37 -15t12 -41v-310q0 -168 -70 -257t-202 -89q-275 0 -275 342z" />
    <glyph glyph-name="V" unicode="V" horiz-adv-x="653" 
d="M648 700l-275 -700h-97l-271 700h41q32 0 51.5 -16t30.5 -47l198 -540l228 603h94z" />
    <glyph glyph-name="W" unicode="W" horiz-adv-x="935" 
d="M16 700h30q32 0 51.5 -17t27.5 -48l134 -530l163 595h101l157 -598l151 598h88l-194 -700h-98l-158 596l-162 -596h-102z" />
    <glyph glyph-name="X" unicode="X" horiz-adv-x="618" 
d="M510 0l-205 298l-201 -298h-99l251 368l-236 332h48q32 0 53.5 -15t43.5 -47l145 -208l183 270h96l-230 -336l255 -364h-104z" />
    <glyph glyph-name="Y" unicode="Y" horiz-adv-x="607" 
d="M258 291l-252 409h48q31 0 48 -14t38 -49l165 -273l201 336h95l-251 -409v-291h-92v291z" />
    <glyph glyph-name="Z" unicode="Z" horiz-adv-x="585" 
d="M44 79l392 538h-384v83h436q25 0 37 -15t12 -41v-23l-392 -538h392v-83h-493v79z" />
    <glyph glyph-name="bracketleft" unicode="[" horiz-adv-x="384" 
d="M179 663v-688h185v-83h-274v854h225q25 0 37 -15t12 -41v-27h-185z" />
    <glyph glyph-name="backslash" unicode="\" horiz-adv-x="491" 
d="M20 746h41q30 0 47 -15.5t29 -44.5l334 -794h-92z" />
    <glyph glyph-name="bracketright" unicode="]" horiz-adv-x="384" 
d="M294 -108h-225q-25 0 -37 15t-12 41v27h185v688h-185v83h274v-854z" />
    <glyph glyph-name="asciicircum" unicode="^" horiz-adv-x="600" 
d="M59 354l241 211l241 -211v-82l-241 191l-241 -191v82z" />
    <glyph glyph-name="underscore" unicode="_" horiz-adv-x="500" 
d="M0 -72h500v-75h-500v75z" />
    <glyph glyph-name="grave" unicode="`" horiz-adv-x="600" 
d="M235 632q-30 10 -43 24.5t-13 38.5v38l241 -104v-64z" />
    <glyph glyph-name="a" unicode="a" horiz-adv-x="533" 
d="M406 460q51 -52 51 -152v-308h-34q-25 0 -37 15t-12 41v2q-45 -33 -86 -50.5t-88 -17.5q-70 0 -114 39.5t-44 111.5q0 76 52 118.5t149 42.5q64 0 131 -18v31q0 61 -32 91t-98 30q-46 0 -85 -8.5t-81 -28.5v69q77 44 180 44q97 0 148 -52zM374 125v97q-58 11 -122 11
q-63 0 -93.5 -21t-30.5 -65q0 -81 96 -81q63 0 150 59z" />
    <glyph glyph-name="b" unicode="b" horiz-adv-x="586" 
d="M434 483q46 -29 73 -84.5t27 -132.5q0 -89 -34 -150.5t-93.5 -93t-137.5 -31.5q-103 0 -188 39v670h41q48 0 48 -56v-198q39 32 77.5 49t84.5 17q56 0 102 -29zM400.5 115q44.5 48 44.5 151q0 90 -37.5 129t-97.5 39q-66 0 -140 -56v-301q40 -10 99 -10q87 0 131.5 48z
" />
    <glyph glyph-name="c" unicode="c" horiz-adv-x="484" 
d="M163 20q-53 32 -82 91t-29 139q0 79 31.5 138.5t86 91.5t120.5 32q59 0 103 -16q35 -13 43.5 -28.5t8.5 -44.5v-26q-41 21 -70.5 29t-70.5 8q-78 0 -120.5 -49t-42.5 -135q0 -83 41 -133.5t114 -50.5q45 0 77.5 7t74.5 27v-71q-39 -22 -77.5 -31.5t-85.5 -9.5
q-69 0 -122 32z" />
    <glyph glyph-name="d" unicode="d" horiz-adv-x="585" 
d="M492 685q12 -15 12 -41v-644h-40q-25 0 -37 14.5t-12 40.5q-38 -32 -76 -48.5t-85 -16.5q-56 0 -102 28.5t-73 83.5t-27 132q0 88 32.5 150t88 93.5t123.5 31.5q56 0 119 -28v219h40q25 0 37 -15zM178 106q38 -38 98 -38q64 0 139 55v289q-57 19 -118 19
q-74 0 -115.5 -48t-41.5 -149q0 -90 38 -128z" />
    <glyph glyph-name="e" unicode="e" horiz-adv-x="544" 
d="M492 224h-354q7 -73 50 -116t117 -43q45 0 83 8.5t80 28.5v-70q-77 -44 -174 -44q-73 0 -127.5 32t-84.5 91t-30 139q0 78 32 138t85.5 92t114.5 32q56 0 103.5 -24.5t76 -77t28.5 -131.5v-55zM409 297q-3 71 -37 105.5t-88 34.5q-57 0 -95.5 -36.5t-48.5 -103.5h269z
" />
    <glyph glyph-name="f" unicode="f" horiz-adv-x="406" 
d="M233 608.5q-25 -26.5 -25 -78.5v-30h174v-75h-174v-425h-89v425h-93v75h93v27q0 76 41 130.5t129 54.5q43 0 71 -14t28 -55v-24q-41 16 -84 16q-46 0 -71 -26.5z" />
    <glyph glyph-name="g" unicode="g" horiz-adv-x="547" 
d="M527 441q-45 0 -81 -11q28 -41 28 -102q0 -57 -29 -98.5t-78 -63.5t-110 -22q-20 0 -40 3l-16 -84q50 6 83 6q98 0 153.5 -31.5t55.5 -107.5t-65.5 -109t-172.5 -33q-51 0 -116 12.5t-103 34.5v71q40 -19 98 -29.5t107 -10.5q76 0 118 13.5t42 50.5q0 41 -33 53t-107 12
q-68 0 -151 -10l35 181q-49 22 -77 64t-28 98q0 57 29 98.5t78 63.5t110 22q86 0 140 -34q65 34 130 34v-71zM355.5 242.5q35.5 28.5 35.5 85.5q0 55 -35.5 84.5t-98.5 29.5q-61 0 -97.5 -30t-36.5 -84q0 -58 34.5 -86t99.5 -28q63 0 98.5 28.5z" />
    <glyph glyph-name="h" unicode="h" horiz-adv-x="581" 
d="M461.5 461.5q43.5 -50.5 43.5 -144.5v-317h-89v309q0 125 -104 125q-65 0 -142 -55v-379h-89v700h41q48 0 48 -56v-198q40 32 81 49t88 17q79 0 122.5 -50.5z" />
    <glyph glyph-name="i" unicode="i" horiz-adv-x="253" 
d="M82 500h41q24 0 36 -15t12 -41v-444h-89v500zM86.5 599q-15.5 16 -15.5 42t16 42t39 16q24 0 40 -16t16 -42t-16.5 -42t-39.5 -16q-24 0 -39.5 16z" />
    <glyph glyph-name="j" unicode="j" horiz-adv-x="251" 
d="M-96 -191v72q24 -8 42 -11.5t43 -3.5q43 0 67.5 26.5t24.5 83.5v524h41q48 0 48 -56v-469q0 -79 -41 -133t-124 -54q-49 0 -101 21zM85.5 599q-15.5 16 -15.5 42t16 42t39 16q24 0 40 -16t16 -42t-16.5 -42t-39.5 -16q-24 0 -39.5 16z" />
    <glyph glyph-name="k" unicode="k" horiz-adv-x="530" 
d="M247 255l-78 -74v-181h-88v700h40q24 0 36 -15t12 -41v-360l228 216h107l-196 -186l220 -314h-106z" />
    <glyph glyph-name="l" unicode="l" horiz-adv-x="251" 
d="M81 700h41q48 0 48 -56v-644h-89v700z" />
    <glyph glyph-name="m" unicode="m" horiz-adv-x="874" 
d="M756 463.5q42 -48.5 42 -141.5v-322h-89v314q0 64 -25 92t-74 28q-64 0 -131 -49q5 -32 5 -63v-322h-89v314q0 64 -24 92t-72 28q-32 0 -63 -13.5t-66 -40.5v-380h-89v500h41q46 0 48 -52q39 32 75.5 48t80.5 16q93 0 131 -67q88 67 181 67q76 0 118 -48.5z" />
    <glyph glyph-name="n" unicode="n" horiz-adv-x="581" 
d="M461.5 461.5q43.5 -50.5 43.5 -144.5v-317h-89v309q0 125 -104 125q-65 0 -142 -55v-379h-89v500h41q46 0 48 -54q40 32 81 49t88 17q79 0 122.5 -50.5z" />
    <glyph glyph-name="o" unicode="o" horiz-adv-x="587" 
d="M169 20q-55 32 -86 91.5t-31 138.5t32 138.5t87.5 91.5t122.5 32q69 0 124 -32t86 -91.5t31 -138.5t-32 -138.5t-87 -91.5t-122 -32q-70 0 -125 32zM405.5 116.5q40.5 50.5 40.5 133.5q0 84 -40 134t-112 50q-71 0 -112 -50.5t-41 -133.5q0 -84 40 -134t113 -50
q71 0 111.5 50.5z" />
    <glyph glyph-name="p" unicode="p" horiz-adv-x="586" 
d="M434 483q46 -29 73 -84.5t27 -132.5q0 -88 -32.5 -150t-88.5 -93.5t-124 -31.5q-31 0 -59 7.5t-60 20.5v-219h-89v700h41q46 0 48 -54q39 32 77.5 49t84.5 17q56 0 102 -29zM403.5 117q41.5 48 41.5 149q0 90 -37.5 129t-97.5 39q-66 0 -140 -56v-290q57 -19 118 -19
q74 0 115.5 48z" />
    <glyph glyph-name="q" unicode="q" horiz-adv-x="586" 
d="M505 471v-671h-41q-25 0 -37 15t-12 41v198q-38 -32 -76 -48.5t-85 -16.5q-56 0 -102 29t-73 84.5t-27 132.5q0 89 33.5 150.5t93 93t137.5 31.5q102 0 189 -39zM415 424q-40 10 -99 10q-87 0 -131.5 -48t-44.5 -151q0 -90 38 -129t98 -39q64 0 139 55v302z" />
    <glyph glyph-name="r" unicode="r" horiz-adv-x="408" 
d="M380 504v-79q-26 6 -61 6q-43 0 -78.5 -13.5t-70.5 -39.5v-378h-89v500h41q46 0 48 -53q40 31 78.5 47.5t80.5 16.5q29 0 51 -7z" />
    <glyph glyph-name="s" unicode="s" horiz-adv-x="471" 
d="M129 -0.5q-47 11.5 -87 33.5v71q80 -38 175 -38q71 0 98 16t27 53q0 35 -30 51.5t-95 32.5q-54 13 -87.5 27.5t-57.5 44.5t-24 82q0 67 53.5 103t147.5 36q61 0 106 -17q24 -9 35 -19.5t13.5 -21.5t2.5 -31v-26q-37 20 -74 28.5t-79 8.5q-63 0 -91.5 -13.5t-28.5 -46.5
t28.5 -49t99.5 -34q53 -14 88 -29.5t58.5 -47t23.5 -84.5q0 -68 -57 -105t-151 -37q-47 0 -94 11.5z" />
    <glyph glyph-name="t" unicode="t" horiz-adv-x="417" 
d="M385 81v-72q-52 -21 -101 -21q-95 0 -130 51t-35 136v250h-93v75h93v147h41q48 0 48 -56v-91h174v-75h-174v-250q0 -56 20.5 -82.5t68.5 -26.5q41 0 88 15z" />
    <glyph glyph-name="u" unicode="u" horiz-adv-x="579" 
d="M498 500v-500h-41q-46 0 -48 53q-41 -32 -81 -48.5t-87 -16.5q-78 0 -121.5 50.5t-43.5 144.5v317h89v-309q0 -125 103 -125q64 0 141 55v379h89z" />
    <glyph glyph-name="v" unicode="v" horiz-adv-x="501" 
d="M493 500l-198 -500h-89l-198 500h48q29 0 45.5 -14.5t26.5 -41.5l124 -351l148 407h93z" />
    <glyph glyph-name="w" unicode="w" horiz-adv-x="745" 
d="M12 500h40q28 0 45 -18t25 -46l91 -339l120 403h94l116 -403l103 403h88l-150 -500h-89l-119 405l-122 -405h-90z" />
    <glyph glyph-name="x" unicode="x" horiz-adv-x="482" 
d="M375 0l-139 197l-138 -197h-94l186 257l-178 243h57q30 0 49 -15.5t39 -44.5l85 -124l131 184h94l-179 -244l190 -256h-103z" />
    <glyph glyph-name="y" unicode="y" horiz-adv-x="514" 
d="M226 7l-218 492h46q30 0 46 -13t29 -47l141 -346l145 406h91l-270 -699h-86z" />
    <glyph glyph-name="z" unicode="z" horiz-adv-x="441" 
d="M419 422l-288 -347h288v-75h-387v78l290 347h-290v75h339q48 0 48 -56v-22z" />
    <glyph glyph-name="braceleft" unicode="{" horiz-adv-x="387" 
d="M201 -83.5q-43 24.5 -67 69t-24 104.5v96q0 35 -22 60.5t-58 35.5v74q36 10 58 35.5t22 60.5v96q0 91 53 144.5t144 53.5h11q25 0 37 -15t12 -41v-24h-42q-65 0 -97 -30.5t-32 -94.5v-87q0 -44 -20 -81t-64 -54q44 -17 64 -54t20 -81v-77q0 -66 33.5 -100.5t92.5 -34.5
h45v-80h-67q-56 0 -99 24.5z" />
    <glyph glyph-name="bar" unicode="|" horiz-adv-x="264" 
d="M86 700h92v-808h-92v808z" />
    <glyph glyph-name="braceright" unicode="}" horiz-adv-x="387" 
d="M32 -93q-12 15 -12 41v24h42q65 0 97 31t32 95v87q0 44 20 81t64 54q-44 17 -64 54t-20 81v77q0 66 -33.5 100.5t-92.5 34.5h-45v80h67q56 0 99 -24.5t67 -69t24 -104.5v-96q0 -35 22 -60.5t58 -35.5v-74q-36 -10 -58 -35.5t-22 -60.5v-96q0 -92 -53 -145.5t-144 -53.5
h-11q-25 0 -37 15z" />
    <glyph glyph-name="asciitilde" unicode="~" horiz-adv-x="600" 
d="M344.5 295q-27.5 10 -58.5 27q-26 15 -47 23t-41 8q-40 0 -72 -13.5t-64 -42.5v78q33 31 64.5 44.5t72.5 13.5q27 0 52.5 -9t54.5 -26q28 -16 51 -24.5t46 -8.5q40 0 72 13t64 42v-78q-33 -31 -65 -44t-73 -13q-29 0 -56.5 10z" />
    <glyph glyph-name="uni00A0" unicode="&#xa0;" horiz-adv-x="270" 
 />
    <glyph glyph-name="exclamdown" unicode="&#xa1;" horiz-adv-x="242" 
d="M169 -200h-43q-51 0 -51 55v4l6 464h81zM162.5 495.5q16.5 -16.5 16.5 -44.5t-16.5 -44.5t-41.5 -16.5t-41.5 16.5t-16.5 44.5t17 44.5t41 16.5q25 0 41.5 -16.5z" />
    <glyph glyph-name="cent" unicode="&#xa2;" 
d="M516 156q-60 -32 -123 -36v-132h-80v133q-88 12 -138.5 72.5t-50.5 155.5q0 93 53 153.5t138 74.5v123h80v-122q39 -3 67 -15q24 -10 35 -19.5t13.5 -20.5t2.5 -29v-25q-41 20 -70 27.5t-70 7.5q-162 0 -162 -155q0 -76 39.5 -116t113.5 -40q44 0 77.5 7t74.5 25v-69z
" />
    <glyph glyph-name="sterling" unicode="&#xa3;" 
d="M556 83v-83h-453v436q0 121 67.5 192.5t190.5 71.5q96 0 148 -32q23 -14 30.5 -30.5t7.5 -44.5v-27q-74 54 -170 54q-94 0 -139 -44.5t-45 -137.5v-53h302v-83h-302v-219h363z" />
    <glyph glyph-name="currency" unicode="&#xa4;" 
d="M498 223l75 -76l-56 -57l-77 77q-52 -35 -120 -35q-71 0 -124 35l-76 -77l-57 57l76 76q-37 52 -37 126q0 71 38 126l-76 76l57 57l76 -77q55 36 123 36q69 0 121 -35l76 76l56 -57l-74 -74q37 -56 37 -128t-38 -126zM216.5 243.5q39.5 -40.5 103.5 -40.5
q61 0 100.5 41.5t39.5 104.5q0 65 -38.5 106t-101.5 41q-62 0 -102.5 -41.5t-40.5 -105.5q0 -65 39.5 -105.5z" />
    <glyph glyph-name="yen" unicode="&#xa5;" 
d="M393 338h128v-76h-159v-77h159v-76h-159v-109h-88v109h-158v76h158v77h-158v76h126l-199 350h49q29 0 45 -14.5t36 -50.5l145 -269l181 334h94z" />
    <glyph glyph-name="section" unicode="&#xa7;" horiz-adv-x="561" 
d="M500 -36q0 -80 -63.5 -128t-179.5 -48q-56 0 -107.5 12.5t-89.5 34.5v75q45 -22 86 -32.5t93 -10.5q89 0 131 24.5t42 73.5q0 35 -19.5 56.5t-49 33.5t-80.5 26q-20 5 -35 10q-87 25 -133.5 63.5t-46.5 109.5q0 46 24.5 81t69.5 58q-38 22 -58 54.5t-20 81.5q0 81 61 127
t178 46q49 0 90 -8.5t65 -21.5q25 -13 32.5 -26t7.5 -39v-25q-43 21 -84 31t-94 10q-89 0 -130 -23t-41 -72q0 -34 18.5 -55t47 -32t78.5 -25q8 -2 40 -11q88 -27 134 -63.5t46 -107.5q0 -46 -25 -82t-69 -59q81 -46 81 -139zM154 211.5q23 -21.5 55 -33.5t95 -30l33 -10
q46 14 69.5 40.5t23.5 62.5q0 34 -22.5 55t-53 32t-97.5 30l-34 10q-46 -14 -69 -40t-23 -61q0 -34 23 -55.5z" />
    <glyph glyph-name="dieresis" unicode="&#xa8;" horiz-adv-x="600" 
d="M160.5 601q-15.5 16 -15.5 42t16 42t39 16q24 0 40 -16t16 -42t-16.5 -42t-39.5 -16q-24 0 -39.5 16zM358.5 601q-15.5 16 -15.5 42t16 42t39 16q24 0 40 -16t16 -42t-16.5 -42t-39.5 -16q-24 0 -39.5 16z" />
    <glyph glyph-name="copyright" unicode="&#xa9;" horiz-adv-x="824" 
d="M225 33q-81 46 -125.5 126.5t-44.5 183.5q0 99 46.5 179.5t128 127t182.5 46.5q105 0 186 -45.5t126 -125.5t45 -182q0 -100 -46 -181t-127 -128t-184 -47q-106 0 -187 46zM566 83q68 39 105.5 107.5t37.5 152.5q0 86 -36.5 153t-104 105t-156.5 38q-86 0 -153.5 -38.5
t-105.5 -106.5t-38 -151q0 -86 36.5 -154t104 -106.5t156.5 -38.5q86 0 154 39zM281.5 199q-51.5 50 -51.5 144q0 60 26 104t69.5 67t96.5 23q50 0 85 -14q26 -10 32.5 -23t6.5 -37v-24q-32 16 -54.5 22t-53.5 6q-62 0 -94 -31.5t-32 -92.5q0 -60 31 -92t87 -32
q35 0 60.5 5.5t58.5 20.5v-64q-32 -18 -62.5 -25t-67.5 -7q-86 0 -137.5 50z" />
    <glyph glyph-name="ordfeminine" unicode="&#xaa;" horiz-adv-x="472" 
d="M352 669.5q43 -42.5 43 -124.5v-248h-33q-22 0 -33.5 13t-12.5 34q-35 -26 -68 -40.5t-71 -14.5q-60 0 -95.5 32t-35.5 91q0 61 43 95.5t122 34.5q51 0 105 -14v19q0 47 -25.5 69.5t-78.5 22.5q-37 0 -69 -7t-67 -22v66q67 36 152 36q81 0 124 -42.5zM199 360
q52 0 117 42v69q-43 8 -95 8q-49 0 -72 -14.5t-23 -46.5q0 -58 73 -58z" />
    <glyph glyph-name="guillemotleft" unicode="&#xab;" horiz-adv-x="517" 
d="M58 253l128 193h86l-128 -193l128 -194h-86zM253 253l128 193h85l-128 -193l128 -194h-85z" />
    <glyph glyph-name="uni00AD" unicode="&#xad;" horiz-adv-x="527" 
d="M74 328h379v-91h-379v91z" />
    <glyph glyph-name="registered" unicode="&#xae;" horiz-adv-x="506" 
d="M363.5 686q48.5 -27 75.5 -75t27 -109q0 -60 -27.5 -108.5t-76.5 -76t-109 -27.5q-62 0 -110.5 27t-75.5 75.5t-27 109.5q0 59 28 107.5t76.5 76t108.5 27.5q62 0 110.5 -27zM343.5 348.5q39.5 22.5 62 63t22.5 90.5q0 77 -48 126t-125 49q-51 0 -91.5 -22.5t-63 -62.5
t-22.5 -90q0 -79 48 -127.5t127 -48.5q51 0 90.5 22.5zM339 507q-10 -15 -27 -24l55 -87h-37q-16 0 -24.5 6.5t-16.5 20.5l-27 47h-10h-32v-74h-53v218h91q44 0 67.5 -19t23.5 -54q0 -19 -10 -34zM220 516h30q44 0 44 25q0 14 -9.5 19.5t-31.5 5.5h-33v-50z" />
    <glyph glyph-name="degree" unicode="&#xb0;" horiz-adv-x="388" 
d="M122 489q-33 19 -52.5 52t-19.5 72q0 40 19 72.5t52.5 51.5t72.5 19q40 0 73 -19t52 -51.5t19 -72.5q0 -39 -19 -72t-52 -52t-73 -19q-39 0 -72 19zM246.5 559.5q21.5 21.5 21.5 53.5t-21.5 54t-52.5 22t-52.5 -22t-21.5 -54q0 -31 21.5 -53t52.5 -22t52.5 21.5z" />
    <glyph glyph-name="plusminus" unicode="&#xb1;" horiz-adv-x="600" 
d="M527 419v-79h-186v-186h-84v186h-185v79h185v186h84v-186h186zM80 81h439v-81h-439v81z" />
    <glyph glyph-name="uni00B2" unicode="&#xb2;" horiz-adv-x="440" 
d="M63 372q7 4 16 10t19 13q71 46 107 71.5t57.5 51t21.5 50.5q0 29 -21 42t-66 13q-61 0 -138 -28v73q77 32 148 32q82 0 124.5 -33t42.5 -89q0 -40 -22.5 -72.5t-62 -62t-114.5 -76.5h210v-73h-322v78z" />
    <glyph glyph-name="uni00B3" unicode="&#xb3;" horiz-adv-x="440" 
d="M126.5 291q-40.5 9 -75.5 25v73q40 -15 72.5 -22.5t71.5 -7.5q52 0 78 12t26 37q0 29 -32.5 39t-109.5 12v58l114 98h-219v73h275q21 0 31.5 -10t10.5 -31v-22l-127 -107q68 -5 106.5 -34t38.5 -80q0 -56 -49 -89t-134 -33q-37 0 -77.5 9z" />
    <glyph glyph-name="acute" unicode="&#xb4;" horiz-adv-x="600" 
d="M179 629l241 104v-38q0 -24 -13 -38t-43 -25l-185 -67v64z" />
    <glyph glyph-name="paragraph" unicode="&#xb6;" horiz-adv-x="584" 
d="M60 612.5q29 44.5 76.5 66t103.5 21.5h90v-808h-90v417q-90 0 -149.5 50t-59.5 145q0 64 29 108.5zM486.5 687q11.5 -13 11.5 -43v-752h-90v808h43q24 0 35.5 -13z" />
    <glyph glyph-name="periodcentered" unicode="&#xb7;" horiz-adv-x="260" 
d="M88.5 264.5q-16.5 16.5 -16.5 44.5t16.5 44.5t41.5 16.5t41.5 -16.5t16.5 -44.5t-17 -44.5t-41 -16.5q-25 0 -41.5 16.5z" />
    <glyph glyph-name="cedilla" unicode="&#xb8;" horiz-adv-x="600" 
d="M231.5 -222.5q-32.5 6.5 -63.5 23.5v60q35 -16 61.5 -21.5t58.5 -5.5q61 0 61 31q0 29 -48 29q-29 0 -48 -3v50q37 6 69 6q52 0 81 -23.5t29 -63.5t-36.5 -64.5t-92.5 -24.5q-39 0 -71.5 6.5z" />
    <glyph glyph-name="uni00B9" unicode="&#xb9;" horiz-adv-x="440" 
d="M383 367v-73h-312v73h126v248l-135 -32v68l147 43h28q41 0 41 -44v-283h105z" />
    <glyph glyph-name="ordmasculine" unicode="&#xba;" horiz-adv-x="521" 
d="M157 312.5q-46 25.5 -72.5 73.5t-26.5 113t27.5 113t73.5 74t102 26q57 0 103 -26t72.5 -74t26.5 -113q0 -64 -27.5 -112.5t-73.5 -74t-101 -25.5q-58 0 -104 25.5zM347 399q31 38 31 100q0 63 -31 101t-86 38t-86.5 -38t-31.5 -101t31 -100.5t87 -37.5q55 0 86 38z" />
    <glyph glyph-name="guillemotright" unicode="&#xbb;" horiz-adv-x="518" 
d="M179 252l-128 194h86l128 -194l-128 -193h-86zM374 252l-128 194h86l128 -194l-128 -193h-86z" />
    <glyph glyph-name="onequarter" unicode="&#xbc;" horiz-adv-x="932" 
d="M800 700l-462 -700h-96l462 700h96zM197 367v248l-135 -32v68l147 43h28q41 0 41 -44v-283h105v-73h-312v73h126zM897 91h-61v-91h-82v91h-220v69l221 243h41q40 0 40 -44v-199h61v-69zM754 160v144l-133 -144h133z" />
    <glyph glyph-name="onehalf" unicode="&#xbd;" horiz-adv-x="1005" 
d="M793 700l-462 -700h-96l462 700h96zM197 367v248l-135 -32v68l147 43h28q41 0 41 -44v-283h105v-73h-312v73h126zM955 73v-73h-322v78q7 4 16 10t19 13q71 46 107 71.5t57.5 51t21.5 50.5q0 29 -21 42t-66 13q-61 0 -138 -28v73q77 32 148 32q82 0 124.5 -33t42.5 -89
q0 -40 -22.5 -72.5t-62 -62t-114.5 -76.5h210z" />
    <glyph glyph-name="threequarters" unicode="&#xbe;" horiz-adv-x="912" 
d="M780 700l-462 -700h-96l462 700h96zM338 315q-49 -33 -134 -33q-37 0 -77.5 9t-75.5 25v73q40 -15 72.5 -22.5t71.5 -7.5q52 0 78 12t26 37q0 29 -32.5 39t-109.5 12v58l114 98h-219v73h275q21 0 31.5 -10t10.5 -31v-22l-127 -107q68 -5 106.5 -34t38.5 -80
q0 -56 -49 -89zM877 91h-61v-91h-82v91h-220v69l221 243h41q40 0 40 -44v-199h61v-69zM734 160v144l-133 -144h133z" />
    <glyph glyph-name="questiondown" unicode="&#xbf;" horiz-adv-x="538" 
d="M360 174q-84 -23 -130 -50t-63.5 -58.5t-17.5 -74.5q0 -56 42 -89.5t125 -33.5q47 0 100.5 12t103.5 32v-77q-111 -47 -210 -47q-119 0 -186 54.5t-67 148.5q0 79 50 133t170 94l2 105h79zM360.5 495.5q16.5 -16.5 16.5 -44.5t-16.5 -44.5t-41.5 -16.5t-41.5 16.5
t-16.5 44.5t17 44.5t41 16.5q25 0 41.5 -16.5z" />
    <glyph glyph-name="Agrave" unicode="&#xc0;" horiz-adv-x="663" 
d="M657 0h-41q-33 0 -52 16t-30 47l-48 129h-313l-74 -192h-93l279 700h98zM456 275l-123 332l-128 -332h251zM240 817q-28 9 -42.5 24.5t-14.5 40.5v36l245 -94v-66z" />
    <glyph glyph-name="Aacute" unicode="&#xc1;" horiz-adv-x="663" 
d="M657 0h-41q-33 0 -52 16t-30 47l-48 129h-313l-74 -192h-93l279 700h98zM456 275l-123 332l-128 -332h251zM238 824l245 94v-36q0 -25 -14.5 -40.5t-42.5 -24.5l-188 -59v66z" />
    <glyph glyph-name="Acircumflex" unicode="&#xc2;" horiz-adv-x="663" 
d="M657 0h-41q-33 0 -52 16t-30 47l-48 129h-313l-74 -192h-93l279 700h98zM456 275l-123 332l-128 -332h251zM174 824l160 95l113 -67q25 -15 36 -29t11 -41v-24l-160 77l-160 -77v66z" />
    <glyph glyph-name="Atilde" unicode="&#xc3;" horiz-adv-x="663" 
d="M657 0h-41q-33 0 -52 16t-30 47l-48 129h-313l-74 -192h-93l279 700h98zM456 275l-123 332l-128 -332h251zM323 799q-37 22 -63 22q-29 0 -51.5 -9.5t-46.5 -31.5v68q23 23 46.5 33t52.5 10q19 0 35.5 -6.5t40.5 -19.5q22 -12 38 -18.5t33 -6.5q29 0 51.5 10.5t46.5 32.5
v-39q0 -35 -25 -51q-35 -22 -74 -22q-37 0 -84 28z" />
    <glyph glyph-name="Adieresis" unicode="&#xc4;" horiz-adv-x="663" 
d="M657 0h-41q-33 0 -52 16t-30 47l-48 129h-313l-74 -192h-93l279 700h98zM456 275l-123 332l-128 -332h251zM192.5 785q-15.5 16 -15.5 42t16 42t39 16q24 0 40 -16t16 -42t-16.5 -42t-39.5 -16q-24 0 -39.5 16zM394.5 785q-15.5 16 -15.5 42t16 42t39 16q24 0 40 -16
t16 -42t-16.5 -42t-39.5 -16q-24 0 -39.5 16z" />
    <glyph glyph-name="Aring" unicode="&#xc5;" horiz-adv-x="663" 
d="M657 0h-41q-33 0 -52 16t-30 47l-48 129h-313l-74 -192h-93l279 700h98zM456 275l-123 332l-128 -332h251zM248.5 682q-35.5 35 -35.5 85q0 51 35 85.5t86 34.5t86 -34.5t35 -85.5q0 -50 -35.5 -85t-85.5 -35t-85.5 35zM376 724q17 17 17 43t-17 43t-42 17t-42 -17
t-17 -43t17 -43t42 -17t42 17z" />
    <glyph glyph-name="AE" unicode="&#xc6;" horiz-adv-x="974" 
d="M941 83v-83h-440v192h-276l-124 -192h-97l460 700h425q25 0 37 -15t12 -41v-27h-349v-219h303v-83h-303v-232h352zM501 275v346l-227 -346h227z" />
    <glyph glyph-name="Ccedilla" unicode="&#xc7;" horiz-adv-x="627" 
d="M203 32.5q-69 44.5 -106.5 126.5t-37.5 192q0 109 41.5 191t114.5 126t165 44q44 0 85.5 -10t68.5 -26q27 -17 34 -34t7 -48v-19q-49 31 -93.5 44t-100.5 13q-72 0 -124 -37t-79 -101t-27 -143q0 -82 25 -146t74 -100.5t118 -36.5q61 0 108 12t109 42v-77
q-54 -29 -107.5 -43t-113.5 -14q-92 0 -161 44.5zM267.5 -225.5q-34.5 6.5 -68.5 24.5v61q38 -16 66.5 -22t62.5 -6q65 0 65 32q0 31 -51 31q-31 0 -51 -3v51q41 6 73 6q57 0 88 -24t31 -66t-39 -66.5t-100 -24.5q-42 0 -76.5 6.5z" />
    <glyph glyph-name="Egrave" unicode="&#xc8;" horiz-adv-x="575" 
d="M542 83v-83h-456v700h404q25 0 37 -15t12 -41v-27h-362v-219h316v-83h-316v-232h365zM224 817q-28 9 -42.5 24.5t-14.5 40.5v36l245 -94v-66z" />
    <glyph glyph-name="Eacute" unicode="&#xc9;" horiz-adv-x="575" 
d="M542 83v-83h-456v700h404q25 0 37 -15t12 -41v-27h-362v-219h316v-83h-316v-232h365zM222 824l245 94v-36q0 -25 -14.5 -40.5t-42.5 -24.5l-188 -59v66z" />
    <glyph glyph-name="Ecircumflex" unicode="&#xca;" horiz-adv-x="575" 
d="M542 83v-83h-456v700h404q25 0 37 -15t12 -41v-27h-362v-219h316v-83h-316v-232h365zM158 824l160 95l113 -67q25 -15 36 -29t11 -41v-24l-160 77l-160 -77v66z" />
    <glyph glyph-name="Edieresis" unicode="&#xcb;" horiz-adv-x="575" 
d="M542 83v-83h-456v700h404q25 0 37 -15t12 -41v-27h-362v-219h316v-83h-316v-232h365zM176.5 785q-15.5 16 -15.5 42t16 42t39 16q24 0 40 -16t16 -42t-16.5 -42t-39.5 -16q-24 0 -39.5 16zM378.5 785q-15.5 16 -15.5 42t16 42t39 16q24 0 40 -16t16 -42t-16.5 -42
t-39.5 -16q-24 0 -39.5 16z" />
    <glyph glyph-name="Igrave" unicode="&#xcc;" horiz-adv-x="264" 
d="M86 700h43q25 0 37 -15t12 -41v-644h-92v700zM36 817q-28 9 -42.5 24.5t-14.5 40.5v36l245 -94v-66z" />
    <glyph glyph-name="Iacute" unicode="&#xcd;" horiz-adv-x="264" 
d="M86 700h43q25 0 37 -15t12 -41v-644h-92v700zM34 824l245 94v-36q0 -25 -14.5 -40.5t-42.5 -24.5l-188 -59v66z" />
    <glyph glyph-name="Icircumflex" unicode="&#xce;" horiz-adv-x="264" 
d="M86 700h43q25 0 37 -15t12 -41v-644h-92v700zM-30 824l160 95l113 -67q25 -15 36 -29t11 -41v-24l-160 77l-160 -77v66z" />
    <glyph glyph-name="Idieresis" unicode="&#xcf;" horiz-adv-x="264" 
d="M86 700h43q25 0 37 -15t12 -41v-644h-92v700zM-11.5 785q-15.5 16 -15.5 42t16 42t39 16q24 0 40 -16t16 -42t-16.5 -42t-39.5 -16q-24 0 -39.5 16zM190.5 785q-15.5 16 -15.5 42t16 42t39 16q24 0 40 -16t16 -42t-16.5 -42t-39.5 -16q-24 0 -39.5 16z" />
    <glyph glyph-name="Eth" unicode="&#xd0;" horiz-adv-x="743" 
d="M529.5 658.5q73.5 -41.5 114 -120t40.5 -187.5t-42.5 -188t-116 -121t-165.5 -42h-254v308h-80v83h80v309h254q96 0 169.5 -41.5zM531 153q61 71 61 198q0 128 -60 197.5t-172 69.5h-163v-227h194v-83h-194v-226h163q110 0 171 71z" />
    <glyph glyph-name="Ntilde" unicode="&#xd1;" horiz-adv-x="707" 
d="M86 700h84l364 -550v550h39q24 0 36 -15t12 -41v-644h-85l-363 546v-546h-87v700zM336 799q-37 22 -63 22q-29 0 -51.5 -9.5t-46.5 -31.5v68q23 23 46.5 33t52.5 10q19 0 35.5 -6.5t40.5 -19.5q22 -12 38 -18.5t33 -6.5q29 0 51.5 10.5t46.5 32.5v-39q0 -35 -25 -51
q-35 -22 -74 -22q-37 0 -84 28z" />
    <glyph glyph-name="Ograve" unicode="&#xd2;" horiz-adv-x="753" 
d="M212 32.5q-72 44.5 -112.5 126.5t-40.5 192q0 108 42 190t114.5 126.5t161.5 44.5q93 0 165 -44t112 -126t40 -191t-42 -191.5t-114 -127t-161 -44.5q-93 0 -165 44.5zM497 103q51 35 78 99t27 149q0 129 -58.5 205t-166.5 76q-69 0 -120 -35t-78.5 -98.5t-27.5 -147.5
q0 -130 59 -206.5t167 -76.5q69 0 120 35zM283 817q-28 9 -42.5 24.5t-14.5 40.5v36l245 -94v-66z" />
    <glyph glyph-name="Oacute" unicode="&#xd3;" horiz-adv-x="753" 
d="M212 32.5q-72 44.5 -112.5 126.5t-40.5 192q0 108 42 190t114.5 126.5t161.5 44.5q93 0 165 -44t112 -126t40 -191t-42 -191.5t-114 -127t-161 -44.5q-93 0 -165 44.5zM497 103q51 35 78 99t27 149q0 129 -58.5 205t-166.5 76q-69 0 -120 -35t-78.5 -98.5t-27.5 -147.5
q0 -130 59 -206.5t167 -76.5q69 0 120 35zM281 824l245 94v-36q0 -25 -14.5 -40.5t-42.5 -24.5l-188 -59v66z" />
    <glyph glyph-name="Ocircumflex" unicode="&#xd4;" horiz-adv-x="753" 
d="M212 32.5q-72 44.5 -112.5 126.5t-40.5 192q0 108 42 190t114.5 126.5t161.5 44.5q93 0 165 -44t112 -126t40 -191t-42 -191.5t-114 -127t-161 -44.5q-93 0 -165 44.5zM497 103q51 35 78 99t27 149q0 129 -58.5 205t-166.5 76q-69 0 -120 -35t-78.5 -98.5t-27.5 -147.5
q0 -130 59 -206.5t167 -76.5q69 0 120 35zM217 824l160 95l113 -67q25 -15 36 -29t11 -41v-24l-160 77l-160 -77v66z" />
    <glyph glyph-name="Otilde" unicode="&#xd5;" horiz-adv-x="753" 
d="M212 32.5q-72 44.5 -112.5 126.5t-40.5 192q0 108 42 190t114.5 126.5t161.5 44.5q93 0 165 -44t112 -126t40 -191t-42 -191.5t-114 -127t-161 -44.5q-93 0 -165 44.5zM497 103q51 35 78 99t27 149q0 129 -58.5 205t-166.5 76q-69 0 -120 -35t-78.5 -98.5t-27.5 -147.5
q0 -130 59 -206.5t167 -76.5q69 0 120 35zM366 799q-37 22 -63 22q-29 0 -51.5 -9.5t-46.5 -31.5v68q23 23 46.5 33t52.5 10q19 0 35.5 -6.5t40.5 -19.5q22 -12 38 -18.5t33 -6.5q29 0 51.5 10.5t46.5 32.5v-39q0 -35 -25 -51q-35 -22 -74 -22q-37 0 -84 28z" />
    <glyph glyph-name="Odieresis" unicode="&#xd6;" horiz-adv-x="753" 
d="M212 32.5q-72 44.5 -112.5 126.5t-40.5 192q0 108 42 190t114.5 126.5t161.5 44.5q93 0 165 -44t112 -126t40 -191t-42 -191.5t-114 -127t-161 -44.5q-93 0 -165 44.5zM497 103q51 35 78 99t27 149q0 129 -58.5 205t-166.5 76q-69 0 -120 -35t-78.5 -98.5t-27.5 -147.5
q0 -130 59 -206.5t167 -76.5q69 0 120 35zM235.5 785q-15.5 16 -15.5 42t16 42t39 16q24 0 40 -16t16 -42t-16.5 -42t-39.5 -16q-24 0 -39.5 16zM437.5 785q-15.5 16 -15.5 42t16 42t39 16q24 0 40 -16t16 -42t-16.5 -42t-39.5 -16q-24 0 -39.5 16z" />
    <glyph glyph-name="multiply" unicode="&#xd7;" 
d="M125 204l136 136l-136 136l57 57l136 -136l136 136l57 -57l-136 -136l136 -136l-57 -57l-136 136l-136 -136z" />
    <glyph glyph-name="Oslash" unicode="&#xd8;" horiz-adv-x="753" 
d="M618 600q76 -98 76 -249q0 -109 -42 -191.5t-114 -127t-161 -44.5q-110 0 -189 61l-55 -71h-95l97 124q-37 47 -56.5 110.5t-19.5 138.5q0 108 42 190t114.5 126.5t161.5 44.5q110 0 188 -60l54 70h94zM191 173l322 414q-54 45 -136 45q-69 0 -120 -35t-78.5 -98.5
t-27.5 -147.5q0 -108 40 -178zM562 528l-323 -414q55 -46 138 -46q69 0 120 35t78 99t27 149q0 106 -40 177z" />
    <glyph glyph-name="Ugrave" unicode="&#xd9;" horiz-adv-x="707" 
d="M80 330v370h92v-368q0 -133 42 -198.5t140 -65.5q96 0 138.5 66t42.5 198v368h43q25 0 37 -15t12 -41v-310q0 -168 -70 -257t-202 -89q-275 0 -275 342zM260 817q-28 9 -42.5 24.5t-14.5 40.5v36l245 -94v-66z" />
    <glyph glyph-name="Uacute" unicode="&#xda;" horiz-adv-x="707" 
d="M80 330v370h92v-368q0 -133 42 -198.5t140 -65.5q96 0 138.5 66t42.5 198v368h43q25 0 37 -15t12 -41v-310q0 -168 -70 -257t-202 -89q-275 0 -275 342zM258 824l245 94v-36q0 -25 -14.5 -40.5t-42.5 -24.5l-188 -59v66z" />
    <glyph glyph-name="Ucircumflex" unicode="&#xdb;" horiz-adv-x="707" 
d="M80 330v370h92v-368q0 -133 42 -198.5t140 -65.5q96 0 138.5 66t42.5 198v368h43q25 0 37 -15t12 -41v-310q0 -168 -70 -257t-202 -89q-275 0 -275 342zM194 824l160 95l113 -67q25 -15 36 -29t11 -41v-24l-160 77l-160 -77v66z" />
    <glyph glyph-name="Udieresis" unicode="&#xdc;" horiz-adv-x="707" 
d="M80 330v370h92v-368q0 -133 42 -198.5t140 -65.5q96 0 138.5 66t42.5 198v368h43q25 0 37 -15t12 -41v-310q0 -168 -70 -257t-202 -89q-275 0 -275 342zM212.5 785q-15.5 16 -15.5 42t16 42t39 16q24 0 40 -16t16 -42t-16.5 -42t-39.5 -16q-24 0 -39.5 16zM414.5 785
q-15.5 16 -15.5 42t16 42t39 16q24 0 40 -16t16 -42t-16.5 -42t-39.5 -16q-24 0 -39.5 16z" />
    <glyph glyph-name="Yacute" unicode="&#xdd;" horiz-adv-x="607" 
d="M258 291l-252 409h48q31 0 48 -14t38 -49l165 -273l201 336h95l-251 -409v-291h-92v291zM199 824l245 94v-36q0 -25 -14.5 -40.5t-42.5 -24.5l-188 -59v66z" />
    <glyph glyph-name="Thorn" unicode="&#xde;" horiz-adv-x="621" 
d="M519 522.5q60 -57.5 60 -153.5q0 -70 -32 -119t-86 -73.5t-121 -24.5h-162v-152h-92v700h43q25 0 37 -15t12 -41v-64h171q110 0 170 -57.5zM442.5 264q42.5 29 42.5 104q0 63 -35 96t-119 33h-153v-262h147q75 0 117.5 29z" />
    <glyph glyph-name="germandbls" unicode="&#xdf;" horiz-adv-x="610" 
d="M535 302.5q35 -49.5 35 -124.5q0 -55 -26 -98t-70.5 -67t-97.5 -24q-72 0 -136 33v71q32 -15 59 -21t59 -6q56 0 90 33.5t34 87.5q0 64 -40 97.5t-118 33.5h-65v74h50q55 0 90.5 35.5t35.5 90.5t-33.5 86.5t-91.5 31.5q-69 0 -105.5 -40.5t-36.5 -115.5v-480h-87v482
q0 106 61.5 168t167.5 62q95 0 153 -50t58 -134q0 -51 -23 -93t-64 -65q66 -18 101 -67.5z" />
    <glyph glyph-name="agrave" unicode="&#xe0;" horiz-adv-x="533" 
d="M406 460q51 -52 51 -152v-308h-34q-25 0 -37 15t-12 41v2q-45 -33 -86 -50.5t-88 -17.5q-70 0 -114 39.5t-44 111.5q0 76 52 118.5t149 42.5q64 0 131 -18v31q0 61 -32 91t-98 30q-46 0 -85 -8.5t-81 -28.5v69q77 44 180 44q97 0 148 -52zM374 125v97q-58 11 -122 11
q-63 0 -93.5 -21t-30.5 -65q0 -81 96 -81q63 0 150 59zM160 632q-30 10 -43 24.5t-13 38.5v38l241 -104v-64z" />
    <glyph glyph-name="aacute" unicode="&#xe1;" horiz-adv-x="533" 
d="M406 460q51 -52 51 -152v-308h-34q-25 0 -37 15t-12 41v2q-45 -33 -86 -50.5t-88 -17.5q-70 0 -114 39.5t-44 111.5q0 76 52 118.5t149 42.5q64 0 131 -18v31q0 61 -32 91t-98 30q-46 0 -85 -8.5t-81 -28.5v69q77 44 180 44q97 0 148 -52zM374 125v97q-58 11 -122 11
q-63 0 -93.5 -21t-30.5 -65q0 -81 96 -81q63 0 150 59zM161 629l241 104v-38q0 -24 -13 -38t-43 -25l-185 -67v64z" />
    <glyph glyph-name="acircumflex" unicode="&#xe2;" horiz-adv-x="533" 
d="M406 460q51 -52 51 -152v-308h-34q-25 0 -37 15t-12 41v2q-45 -33 -86 -50.5t-88 -17.5q-70 0 -114 39.5t-44 111.5q0 76 52 118.5t149 42.5q64 0 131 -18v31q0 61 -32 91t-98 30q-46 0 -85 -8.5t-81 -28.5v69q77 44 180 44q97 0 148 -52zM374 125v97q-58 11 -122 11
q-63 0 -93.5 -21t-30.5 -65q0 -81 96 -81q63 0 150 59zM106 631l147 99l102 -68q25 -17 35 -31.5t10 -38.5v-27l-147 85l-147 -85v66z" />
    <glyph glyph-name="atilde" unicode="&#xe3;" horiz-adv-x="533" 
d="M406 460q51 -52 51 -152v-308h-34q-25 0 -37 15t-12 41v2q-45 -33 -86 -50.5t-88 -17.5q-70 0 -114 39.5t-44 111.5q0 76 52 118.5t149 42.5q64 0 131 -18v31q0 61 -32 91t-98 30q-46 0 -85 -8.5t-81 -28.5v69q77 44 180 44q97 0 148 -52zM374 125v97q-58 11 -122 11
q-63 0 -93.5 -21t-30.5 -65q0 -81 96 -81q63 0 150 59zM285 596.5q-19 6.5 -42 18.5q-20 10 -34 15.5t-29 5.5q-29 0 -51 -8.5t-45 -29.5v67q23 22 45.5 31t51.5 9q18 0 34.5 -6t40.5 -18q22 -11 37.5 -17t32.5 -6q29 0 51 9.5t45 30.5v-34q0 -41 -33 -59q-26 -15 -64 -15
q-21 0 -40 6.5z" />
    <glyph glyph-name="adieresis" unicode="&#xe4;" horiz-adv-x="533" 
d="M406 460q51 -52 51 -152v-308h-34q-25 0 -37 15t-12 41v2q-45 -33 -86 -50.5t-88 -17.5q-70 0 -114 39.5t-44 111.5q0 76 52 118.5t149 42.5q64 0 131 -18v31q0 61 -32 91t-98 30q-46 0 -85 -8.5t-81 -28.5v69q77 44 180 44q97 0 148 -52zM374 125v97q-58 11 -122 11
q-63 0 -93.5 -21t-30.5 -65q0 -81 96 -81q63 0 150 59zM113.5 601q-15.5 16 -15.5 42t16 42t39 16q24 0 40 -16t16 -42t-16.5 -42t-39.5 -16q-24 0 -39.5 16zM311.5 601q-15.5 16 -15.5 42t16 42t39 16q24 0 40 -16t16 -42t-16.5 -42t-39.5 -16q-24 0 -39.5 16z" />
    <glyph glyph-name="aring" unicode="&#xe5;" horiz-adv-x="533" 
d="M406 460q51 -52 51 -152v-308h-34q-25 0 -37 15t-12 41v2q-45 -33 -86 -50.5t-88 -17.5q-70 0 -114 39.5t-44 111.5q0 76 52 118.5t149 42.5q64 0 131 -18v31q0 61 -32 91t-98 30q-46 0 -85 -8.5t-81 -28.5v69q77 44 180 44q97 0 148 -52zM374 125v97q-58 11 -122 11
q-63 0 -93.5 -21t-30.5 -65q0 -81 96 -81q63 0 150 59zM172.5 594q-33.5 33 -33.5 80q0 48 33 80.5t81 32.5t81 -32.5t33 -80.5q0 -47 -33.5 -80t-80.5 -33t-80.5 33zM293 633.5q16 16.5 16 40.5t-16 40.5t-40 16.5t-40 -16.5t-16 -40.5t16 -40.5t40 -16.5t40 16.5z" />
    <glyph glyph-name="ae" unicode="&#xe6;" horiz-adv-x="857" 
d="M805 224h-354q7 -73 50 -116t117 -43q45 0 83 8.5t80 28.5v-70q-77 -44 -174 -44q-65 0 -115.5 25.5t-82.5 72.5q-44 -46 -95 -71t-106 -25q-78 0 -122 39t-44 112q0 76 51.5 118.5t145.5 42.5q59 0 127 -17v30q0 121 -126 121q-45 0 -82 -8.5t-80 -28.5v69q77 44 176 44
q61 0 104 -22t66 -65q32 41 77 64t96 23q56 0 103.5 -24.5t76 -77t28.5 -131.5v-55zM722 297q-3 71 -37 105.5t-88 34.5q-57 0 -95.5 -36.5t-48.5 -103.5h269zM382 140q-13 42 -16 82q-56 11 -118 11q-63 0 -91.5 -21t-28.5 -65q0 -81 94 -81q87 0 160 74z" />
    <glyph glyph-name="ccedilla" unicode="&#xe7;" horiz-adv-x="484" 
d="M163 20q-53 32 -82 91t-29 139q0 79 31.5 138.5t86 91.5t120.5 32q59 0 103 -16q35 -13 43.5 -28.5t8.5 -44.5v-26q-41 21 -70.5 29t-70.5 8q-78 0 -120.5 -49t-42.5 -135q0 -83 41 -133.5t114 -50.5q45 0 77.5 7t74.5 27v-71q-39 -22 -77.5 -31.5t-85.5 -9.5
q-69 0 -122 32zM188.5 -222.5q-32.5 6.5 -63.5 23.5v60q35 -16 61.5 -21.5t58.5 -5.5q61 0 61 31q0 29 -48 29q-29 0 -48 -3v50q37 6 69 6q52 0 81 -23.5t29 -63.5t-36.5 -64.5t-92.5 -24.5q-39 0 -71.5 6.5z" />
    <glyph glyph-name="egrave" unicode="&#xe8;" horiz-adv-x="544" 
d="M492 224h-354q7 -73 50 -116t117 -43q45 0 83 8.5t80 28.5v-70q-77 -44 -174 -44q-73 0 -127.5 32t-84.5 91t-30 139q0 78 32 138t85.5 92t114.5 32q56 0 103.5 -24.5t76 -77t28.5 -131.5v-55zM409 297q-3 71 -37 105.5t-88 34.5q-57 0 -95.5 -36.5t-48.5 -103.5h269z
M190 632q-30 10 -43 24.5t-13 38.5v38l241 -104v-64z" />
    <glyph glyph-name="eacute" unicode="&#xe9;" horiz-adv-x="544" 
d="M492 224h-354q7 -73 50 -116t117 -43q45 0 83 8.5t80 28.5v-70q-77 -44 -174 -44q-73 0 -127.5 32t-84.5 91t-30 139q0 78 32 138t85.5 92t114.5 32q56 0 103.5 -24.5t76 -77t28.5 -131.5v-55zM409 297q-3 71 -37 105.5t-88 34.5q-57 0 -95.5 -36.5t-48.5 -103.5h269z
M191 629l241 104v-38q0 -24 -13 -38t-43 -25l-185 -67v64z" />
    <glyph glyph-name="ecircumflex" unicode="&#xea;" horiz-adv-x="544" 
d="M492 224h-354q7 -73 50 -116t117 -43q45 0 83 8.5t80 28.5v-70q-77 -44 -174 -44q-73 0 -127.5 32t-84.5 91t-30 139q0 78 32 138t85.5 92t114.5 32q56 0 103.5 -24.5t76 -77t28.5 -131.5v-55zM409 297q-3 71 -37 105.5t-88 34.5q-57 0 -95.5 -36.5t-48.5 -103.5h269z
M136 631l147 99l102 -68q25 -17 35 -31.5t10 -38.5v-27l-147 85l-147 -85v66z" />
    <glyph glyph-name="edieresis" unicode="&#xeb;" horiz-adv-x="544" 
d="M492 224h-354q7 -73 50 -116t117 -43q45 0 83 8.5t80 28.5v-70q-77 -44 -174 -44q-73 0 -127.5 32t-84.5 91t-30 139q0 78 32 138t85.5 92t114.5 32q56 0 103.5 -24.5t76 -77t28.5 -131.5v-55zM409 297q-3 71 -37 105.5t-88 34.5q-57 0 -95.5 -36.5t-48.5 -103.5h269z
M143.5 601q-15.5 16 -15.5 42t16 42t39 16q24 0 40 -16t16 -42t-16.5 -42t-39.5 -16q-24 0 -39.5 16zM341.5 601q-15.5 16 -15.5 42t16 42t39 16q24 0 40 -16t16 -42t-16.5 -42t-39.5 -16q-24 0 -39.5 16z" />
    <glyph glyph-name="igrave" unicode="&#xec;" horiz-adv-x="253" 
d="M82 500h41q24 0 36 -15t12 -41v-444h-89v500zM34 632q-30 10 -43 24.5t-13 38.5v38l241 -104v-64z" />
    <glyph glyph-name="iacute" unicode="&#xed;" horiz-adv-x="253" 
d="M82 500h41q24 0 36 -15t12 -41v-444h-89v500zM35 629l241 104v-38q0 -24 -13 -38t-43 -25l-185 -67v64z" />
    <glyph glyph-name="icircumflex" unicode="&#xee;" horiz-adv-x="253" 
d="M82 500h41q24 0 36 -15t12 -41v-444h-89v500zM-20 631l147 99l102 -68q25 -17 35 -31.5t10 -38.5v-27l-147 85l-147 -85v66z" />
    <glyph glyph-name="idieresis" unicode="&#xef;" horiz-adv-x="253" 
d="M82 500h41q24 0 36 -15t12 -41v-444h-89v500zM-12.5 601q-15.5 16 -15.5 42t16 42t39 16q24 0 40 -16t16 -42t-16.5 -42t-39.5 -16q-24 0 -39.5 16zM185.5 601q-15.5 16 -15.5 42t16 42t39 16q24 0 40 -16t16 -42t-16.5 -42t-39.5 -16q-24 0 -39.5 16z" />
    <glyph glyph-name="eth" unicode="&#xf0;" horiz-adv-x="587" 
d="M510.5 447.5q24.5 -72.5 24.5 -149.5q0 -141 -63 -225.5t-189 -84.5q-68 0 -120.5 28t-81.5 81.5t-29 125.5q0 66 31.5 117.5t85.5 80.5t119 29q43 0 77.5 -9.5t70.5 -28.5q-19 77 -67 150l-151 -39v61l112 29q-44 50 -96 87h104q33 -26 69 -68l112 29v-61l-74 -19
q41 -61 65.5 -133.5zM449 305q0 23 -1 35q-35 18 -69.5 25t-80.5 7q-75 0 -117.5 -38t-42.5 -108q0 -76 39 -118t111 -42q161 0 161 239z" />
    <glyph glyph-name="ntilde" unicode="&#xf1;" horiz-adv-x="581" 
d="M461.5 461.5q43.5 -50.5 43.5 -144.5v-317h-89v309q0 125 -104 125q-65 0 -142 -55v-379h-89v500h41q46 0 48 -54q40 32 81 49t88 17q79 0 122.5 -50.5zM331 596.5q-19 6.5 -42 18.5q-20 10 -34 15.5t-29 5.5q-29 0 -51 -8.5t-45 -29.5v67q23 22 45.5 31t51.5 9
q18 0 34.5 -6t40.5 -18q22 -11 37.5 -17t32.5 -6q29 0 51 9.5t45 30.5v-34q0 -41 -33 -59q-26 -15 -64 -15q-21 0 -40 6.5z" />
    <glyph glyph-name="ograve" unicode="&#xf2;" horiz-adv-x="587" 
d="M169 20q-55 32 -86 91.5t-31 138.5t32 138.5t87.5 91.5t122.5 32q69 0 124 -32t86 -91.5t31 -138.5t-32 -138.5t-87 -91.5t-122 -32q-70 0 -125 32zM405.5 116.5q40.5 50.5 40.5 133.5q0 84 -40 134t-112 50q-71 0 -112 -50.5t-41 -133.5q0 -84 40 -134t113 -50
q71 0 111.5 50.5zM201 632q-30 10 -43 24.5t-13 38.5v38l241 -104v-64z" />
    <glyph glyph-name="oacute" unicode="&#xf3;" horiz-adv-x="587" 
d="M169 20q-55 32 -86 91.5t-31 138.5t32 138.5t87.5 91.5t122.5 32q69 0 124 -32t86 -91.5t31 -138.5t-32 -138.5t-87 -91.5t-122 -32q-70 0 -125 32zM405.5 116.5q40.5 50.5 40.5 133.5q0 84 -40 134t-112 50q-71 0 -112 -50.5t-41 -133.5q0 -84 40 -134t113 -50
q71 0 111.5 50.5zM202 629l241 104v-38q0 -24 -13 -38t-43 -25l-185 -67v64z" />
    <glyph glyph-name="ocircumflex" unicode="&#xf4;" horiz-adv-x="587" 
d="M169 20q-55 32 -86 91.5t-31 138.5t32 138.5t87.5 91.5t122.5 32q69 0 124 -32t86 -91.5t31 -138.5t-32 -138.5t-87 -91.5t-122 -32q-70 0 -125 32zM405.5 116.5q40.5 50.5 40.5 133.5q0 84 -40 134t-112 50q-71 0 -112 -50.5t-41 -133.5q0 -84 40 -134t113 -50
q71 0 111.5 50.5zM147 631l147 99l102 -68q25 -17 35 -31.5t10 -38.5v-27l-147 85l-147 -85v66z" />
    <glyph glyph-name="otilde" unicode="&#xf5;" horiz-adv-x="587" 
d="M169 20q-55 32 -86 91.5t-31 138.5t32 138.5t87.5 91.5t122.5 32q69 0 124 -32t86 -91.5t31 -138.5t-32 -138.5t-87 -91.5t-122 -32q-70 0 -125 32zM405.5 116.5q40.5 50.5 40.5 133.5q0 84 -40 134t-112 50q-71 0 -112 -50.5t-41 -133.5q0 -84 40 -134t113 -50
q71 0 111.5 50.5zM326 596.5q-19 6.5 -42 18.5q-20 10 -34 15.5t-29 5.5q-29 0 -51 -8.5t-45 -29.5v67q23 22 45.5 31t51.5 9q18 0 34.5 -6t40.5 -18q22 -11 37.5 -17t32.5 -6q29 0 51 9.5t45 30.5v-34q0 -41 -33 -59q-26 -15 -64 -15q-21 0 -40 6.5z" />
    <glyph glyph-name="odieresis" unicode="&#xf6;" horiz-adv-x="587" 
d="M169 20q-55 32 -86 91.5t-31 138.5t32 138.5t87.5 91.5t122.5 32q69 0 124 -32t86 -91.5t31 -138.5t-32 -138.5t-87 -91.5t-122 -32q-70 0 -125 32zM405.5 116.5q40.5 50.5 40.5 133.5q0 84 -40 134t-112 50q-71 0 -112 -50.5t-41 -133.5q0 -84 40 -134t113 -50
q71 0 111.5 50.5zM154.5 601q-15.5 16 -15.5 42t16 42t39 16q24 0 40 -16t16 -42t-16.5 -42t-39.5 -16q-24 0 -39.5 16zM352.5 601q-15.5 16 -15.5 42t16 42t39 16q24 0 40 -16t16 -42t-16.5 -42t-39.5 -16q-24 0 -39.5 16z" />
    <glyph glyph-name="divide" unicode="&#xf7;" 
d="M276.5 476.5q-16.5 16.5 -16.5 44.5t16.5 44.5t41.5 16.5t41.5 -16.5t16.5 -44.5t-17 -44.5t-41 -16.5q-25 0 -41.5 16.5zM104 380h428v-81h-428v81zM276.5 113.5q-16.5 16.5 -16.5 44.5t16.5 44.5t41.5 16.5t41.5 -16.5t16.5 -44.5t-17 -44.5t-41 -16.5
q-25 0 -41.5 16.5z" />
    <glyph glyph-name="oslash" unicode="&#xf8;" horiz-adv-x="590" 
d="M483 422q52 -69 52 -172q0 -79 -32 -138.5t-87 -91.5t-122 -32q-78 0 -140 41l-43 -51h-88l82 98q-53 71 -53 174q0 79 32 138.5t87.5 91.5t122.5 32q81 0 141 -43l45 53h87zM163 144l220 262q-37 28 -89 28q-71 0 -112 -50.5t-41 -133.5q0 -63 22 -106zM425 353
l-219 -261q37 -26 88 -26q71 0 111.5 50.5t40.5 133.5q0 61 -21 103z" />
    <glyph glyph-name="ugrave" unicode="&#xf9;" horiz-adv-x="579" 
d="M498 500v-500h-41q-46 0 -48 53q-41 -32 -81 -48.5t-87 -16.5q-78 0 -121.5 50.5t-43.5 144.5v317h89v-309q0 -125 103 -125q64 0 141 55v379h89zM197 632q-30 10 -43 24.5t-13 38.5v38l241 -104v-64z" />
    <glyph glyph-name="uacute" unicode="&#xfa;" horiz-adv-x="579" 
d="M498 500v-500h-41q-46 0 -48 53q-41 -32 -81 -48.5t-87 -16.5q-78 0 -121.5 50.5t-43.5 144.5v317h89v-309q0 -125 103 -125q64 0 141 55v379h89zM198 629l241 104v-38q0 -24 -13 -38t-43 -25l-185 -67v64z" />
    <glyph glyph-name="ucircumflex" unicode="&#xfb;" horiz-adv-x="579" 
d="M498 500v-500h-41q-46 0 -48 53q-41 -32 -81 -48.5t-87 -16.5q-78 0 -121.5 50.5t-43.5 144.5v317h89v-309q0 -125 103 -125q64 0 141 55v379h89zM143 631l147 99l102 -68q25 -17 35 -31.5t10 -38.5v-27l-147 85l-147 -85v66z" />
    <glyph glyph-name="udieresis" unicode="&#xfc;" horiz-adv-x="579" 
d="M498 500v-500h-41q-46 0 -48 53q-41 -32 -81 -48.5t-87 -16.5q-78 0 -121.5 50.5t-43.5 144.5v317h89v-309q0 -125 103 -125q64 0 141 55v379h89zM150.5 601q-15.5 16 -15.5 42t16 42t39 16q24 0 40 -16t16 -42t-16.5 -42t-39.5 -16q-24 0 -39.5 16zM348.5 601
q-15.5 16 -15.5 42t16 42t39 16q24 0 40 -16t16 -42t-16.5 -42t-39.5 -16q-24 0 -39.5 16z" />
    <glyph glyph-name="yacute" unicode="&#xfd;" horiz-adv-x="514" 
d="M226 7l-218 492h46q30 0 46 -13t29 -47l141 -346l145 406h91l-270 -699h-86zM178 629l241 104v-38q0 -24 -13 -38t-43 -25l-185 -67v64z" />
    <glyph glyph-name="thorn" unicode="&#xfe;" horiz-adv-x="586" 
d="M434 483q46 -29 73 -84.5t27 -132.5q0 -88 -32.5 -150t-88.5 -93.5t-124 -31.5q-31 0 -59 7.5t-60 20.5v-219h-89v900h41q48 0 48 -56v-198q39 32 77.5 49t84.5 17q56 0 102 -29zM403.5 117q41.5 48 41.5 149q0 90 -37.5 129t-97.5 39q-66 0 -140 -56v-290
q57 -19 118 -19q74 0 115.5 48z" />
    <glyph glyph-name="ydieresis" unicode="&#xff;" horiz-adv-x="514" 
d="M226 7l-218 492h46q30 0 46 -13t29 -47l141 -346l145 406h91l-270 -699h-86zM130.5 601q-15.5 16 -15.5 42t16 42t39 16q24 0 40 -16t16 -42t-16.5 -42t-39.5 -16q-24 0 -39.5 16zM328.5 601q-15.5 16 -15.5 42t16 42t39 16q24 0 40 -16t16 -42t-16.5 -42t-39.5 -16
q-24 0 -39.5 16z" />
    <glyph glyph-name="Abreve" unicode="&#x102;" horiz-adv-x="663" 
d="M657 0h-41q-33 0 -52 16t-30 47l-48 129h-313l-74 -192h-93l279 700h98zM456 275l-123 332l-128 -332h251zM179 830v70q37 -31 74 -48t81 -17t81 17t74 48v-38q0 -22 -11 -37.5t-24 -24.5q-56 -37 -120 -37q-88 0 -155 67z" />
    <glyph glyph-name="abreve" unicode="&#x103;" horiz-adv-x="533" 
d="M406 460q51 -52 51 -152v-308h-34q-25 0 -37 15t-12 41v2q-45 -33 -86 -50.5t-88 -17.5q-70 0 -114 39.5t-44 111.5q0 76 52 118.5t149 42.5q64 0 131 -18v31q0 61 -32 91t-98 30q-46 0 -85 -8.5t-81 -28.5v69q77 44 180 44q97 0 148 -52zM374 125v97q-58 11 -122 11
q-63 0 -93.5 -21t-30.5 -65q0 -81 96 -81q63 0 150 59zM98 651v68q37 -31 74 -48.5t81 -17.5t81 17.5t74 48.5v-25q0 -24 -7 -41t-27 -31q-53 -38 -121 -38q-88 0 -155 67z" />
    <glyph glyph-name="Dcroat" unicode="&#x110;" horiz-adv-x="743" 
d="M529.5 658.5q73.5 -41.5 114 -120t40.5 -187.5t-42.5 -188t-116 -121t-165.5 -42h-254v308h-80v83h80v309h254q96 0 169.5 -41.5zM531 153q61 71 61 198q0 128 -60 197.5t-172 69.5h-163v-227h194v-83h-194v-226h163q110 0 171 71z" />
    <glyph glyph-name="dcroat" unicode="&#x111;" horiz-adv-x="585" 
d="M591 559h-87v-559h-40q-25 0 -37 14.5t-12 40.5q-38 -32 -76 -48.5t-85 -16.5q-57 0 -102.5 27.5t-72.5 80.5t-27 128q0 86 32.5 146t88 90.5t123.5 30.5q56 0 119 -28v94h-180v71h180v70h40q25 0 37 -15t12 -41v-14h87v-71zM276 68q64 0 139 55v273q-57 19 -118 19
q-74 0 -115.5 -45.5t-41.5 -143.5q0 -158 136 -158z" />
    <glyph glyph-name="dotlessi" unicode="&#x131;" horiz-adv-x="253" 
d="M82 500h41q24 0 36 -15t12 -41v-444h-89v500z" />
    <glyph glyph-name="IJ" unicode="&#x132;" horiz-adv-x="782" 
d="M86 700h43q25 0 37 -15t12 -41v-644h-92v700zM288 38v76q43 -23 82.5 -34.5t87.5 -11.5q152 0 152 171v461h43q25 0 37 -15t12 -41v-417q0 -109 -58 -174t-172 -65q-96 0 -184 50z" />
    <glyph glyph-name="ij" unicode="&#x133;" horiz-adv-x="504" 
d="M82 500h41q24 0 36 -15t12 -41v-444h-89v500zM86.5 599q-15.5 16 -15.5 42t16 42t39 16q24 0 40 -16t16 -42t-16.5 -42t-39.5 -16q-24 0 -39.5 16zM157 -191v72q24 -8 42 -11.5t43 -3.5q43 0 67.5 26.5t24.5 83.5v524h41q48 0 48 -56v-469q0 -79 -41 -133t-124 -54
q-49 0 -101 21zM338.5 599q-15.5 16 -15.5 42t16 42t39 16q24 0 40 -16t16 -42t-16.5 -42t-39.5 -16q-24 0 -39.5 16z" />
    <glyph glyph-name="OE" unicode="&#x152;" horiz-adv-x="1063" 
d="M1030 83v-83h-440v128q-34 -67 -91.5 -103.5t-137.5 -36.5q-88 0 -156.5 44t-107 126t-38.5 192q0 108 40.5 190.5t110 127t151.5 44.5q80 0 137 -32.5t92 -92.5v113h388q25 0 37 -15t12 -41v-27h-349v-219h303v-83h-303v-232h352zM525.5 144q57.5 76 57.5 206
q0 131 -56 206.5t-162 75.5q-65 0 -113.5 -35t-74.5 -99t-26 -148q0 -130 56 -206t158 -76q103 0 160.5 76z" />
    <glyph glyph-name="oe" unicode="&#x153;" horiz-adv-x="944" 
d="M892 224h-354q7 -73 50 -116t117 -43q45 0 83 8.5t80 28.5v-70q-77 -44 -174 -44q-67 0 -119 27t-83 78q-33 -50 -84.5 -77.5t-113.5 -27.5q-70 0 -125 32t-86 91.5t-31 138.5t32 138.5t87.5 91.5t122.5 32q65 0 118 -28.5t84 -80.5q31 51 80.5 80t107.5 29
q56 0 103.5 -24.5t76 -77t28.5 -131.5v-55zM809 297q-3 71 -37 105.5t-88 34.5q-57 0 -95.5 -36.5t-48.5 -103.5h269zM405.5 116.5q40.5 50.5 40.5 133.5q0 84 -40 134t-112 50q-71 0 -112 -50.5t-41 -133.5q0 -84 40 -134t113 -50q71 0 111.5 50.5z" />
    <glyph glyph-name="Scaron" unicode="&#x160;" horiz-adv-x="578" 
d="M147.5 2q-61.5 14 -109.5 41v74q53 -23 111.5 -36t113.5 -13q96 0 135.5 26.5t39.5 86.5q0 41 -24 67.5t-61.5 42.5t-98.5 33q-65 18 -107.5 39.5t-69.5 61.5t-27 104q0 86 64 134.5t187 48.5q76 0 141 -23q36 -13 46 -31t10 -50v-16q-90 41 -190 41q-92 0 -131.5 -24.5
t-39.5 -77.5q0 -39 21.5 -63.5t55 -38.5t93.5 -31q69 -19 115.5 -41.5t77 -65t30.5 -109.5q0 -91 -68 -142.5t-191 -51.5q-62 0 -123.5 14zM181 832q-25 15 -36 29t-11 41v24l160 -77l160 77v-66l-160 -95z" />
    <glyph glyph-name="scaron" unicode="&#x161;" horiz-adv-x="471" 
d="M129 -0.5q-47 11.5 -87 33.5v71q80 -38 175 -38q71 0 98 16t27 53q0 35 -30 51.5t-95 32.5q-54 13 -87.5 27.5t-57.5 44.5t-24 82q0 67 53.5 103t147.5 36q61 0 106 -17q24 -9 35 -19.5t13.5 -21.5t2.5 -31v-26q-37 20 -74 28.5t-79 8.5q-63 0 -91.5 -13.5t-28.5 -46.5
t28.5 -49t99.5 -34q53 -14 88 -29.5t58.5 -47t23.5 -84.5q0 -68 -57 -105t-151 -37q-47 0 -94 11.5zM134 639q-25 17 -35 31.5t-10 38.5v27l147 -85l147 85v-66l-147 -99z" />
    <glyph glyph-name="Wcircumflex" unicode="&#x174;" horiz-adv-x="935" 
d="M16 700h30q32 0 51.5 -17t27.5 -48l134 -530l163 595h101l157 -598l151 598h88l-194 -700h-98l-158 596l-162 -596h-102zM307 824l160 95l113 -67q25 -15 36 -29t11 -41v-24l-160 77l-160 -77v66z" />
    <glyph glyph-name="wcircumflex" unicode="&#x175;" horiz-adv-x="745" 
d="M12 500h40q28 0 45 -18t25 -46l91 -339l120 403h94l116 -403l103 403h88l-150 -500h-89l-119 405l-122 -405h-90zM229 631l147 99l102 -68q25 -17 35 -31.5t10 -38.5v-27l-147 85l-147 -85v66z" />
    <glyph glyph-name="Ycircumflex" unicode="&#x176;" horiz-adv-x="607" 
d="M258 291l-252 409h48q31 0 48 -14t38 -49l165 -273l201 336h95l-251 -409v-291h-92v291zM135 824l160 95l113 -67q25 -15 36 -29t11 -41v-24l-160 77l-160 -77v66z" />
    <glyph glyph-name="ycircumflex" unicode="&#x177;" horiz-adv-x="514" 
d="M226 7l-218 492h46q30 0 46 -13t29 -47l141 -346l145 406h91l-270 -699h-86zM123 631l147 99l102 -68q25 -17 35 -31.5t10 -38.5v-27l-147 85l-147 -85v66z" />
    <glyph glyph-name="Ydieresis" unicode="&#x178;" horiz-adv-x="607" 
d="M258 291l-252 409h48q31 0 48 -14t38 -49l165 -273l201 336h95l-251 -409v-291h-92v291zM153.5 785q-15.5 16 -15.5 42t16 42t39 16q24 0 40 -16t16 -42t-16.5 -42t-39.5 -16q-24 0 -39.5 16zM355.5 785q-15.5 16 -15.5 42t16 42t39 16q24 0 40 -16t16 -42t-16.5 -42
t-39.5 -16q-24 0 -39.5 16z" />
    <glyph glyph-name="Zcaron" unicode="&#x17d;" horiz-adv-x="585" 
d="M44 79l392 538h-384v83h436q25 0 37 -15t12 -41v-23l-392 -538h392v-83h-493v79zM174 832q-25 15 -36 29t-11 41v24l160 -77l160 77v-66l-160 -95z" />
    <glyph glyph-name="zcaron" unicode="&#x17e;" horiz-adv-x="441" 
d="M419 422l-288 -347h288v-75h-387v78l290 347h-290v75h339q48 0 48 -56v-22zM117 639q-25 17 -35 31.5t-10 38.5v27l147 -85l147 85v-66l-147 -99z" />
    <glyph glyph-name="Scommaaccent" unicode="&#x218;" horiz-adv-x="578" 
d="M147.5 2q-61.5 14 -109.5 41v74q53 -23 111.5 -36t113.5 -13q96 0 135.5 26.5t39.5 86.5q0 41 -24 67.5t-61.5 42.5t-98.5 33q-65 18 -107.5 39.5t-69.5 61.5t-27 104q0 86 64 134.5t187 48.5q76 0 141 -23q36 -13 46 -31t10 -50v-16q-90 41 -190 41q-92 0 -131.5 -24.5
t-39.5 -77.5q0 -39 21.5 -63.5t55 -38.5t93.5 -31q69 -19 115.5 -41.5t77 -65t30.5 -109.5q0 -91 -68 -142.5t-191 -51.5q-62 0 -123.5 14zM258 -56h79q-5 -40 -21.5 -80t-43.5 -73h-75q45 66 61 153z" />
    <glyph glyph-name="scommaaccent" unicode="&#x219;" horiz-adv-x="471" 
d="M129 -0.5q-47 11.5 -87 33.5v71q80 -38 175 -38q71 0 98 16t27 53q0 35 -30 51.5t-95 32.5q-54 13 -87.5 27.5t-57.5 44.5t-24 82q0 67 53.5 103t147.5 36q61 0 106 -17q24 -9 35 -19.5t13.5 -21.5t2.5 -31v-26q-37 20 -74 28.5t-79 8.5q-63 0 -91.5 -13.5t-28.5 -46.5
t28.5 -49t99.5 -34q53 -14 88 -29.5t58.5 -47t23.5 -84.5q0 -68 -57 -105t-151 -37q-47 0 -94 11.5zM205 -56h76q-4 -40 -20 -79.5t-42 -71.5h-72q44 66 58 151z" />
    <glyph glyph-name="uni021A" unicode="&#x21a;" horiz-adv-x="576" 
d="M556 617h-224v-617h-92v617h-220v83h487q25 0 37 -15t12 -41v-27zM257 -56h79q-5 -40 -21.5 -80t-43.5 -73h-75q45 66 61 153z" />
    <glyph glyph-name="uni021B" unicode="&#x21b;" horiz-adv-x="417" 
d="M385 81v-72q-52 -21 -101 -21q-95 0 -130 51t-35 136v250h-93v75h93v147h41q48 0 48 -56v-91h174v-75h-174v-250q0 -56 20.5 -82.5t68.5 -26.5q41 0 88 15zM228 -56h76q-4 -40 -20 -79.5t-42 -71.5h-72q44 66 58 151z" />
    <glyph glyph-name="uni0237" unicode="&#x237;" horiz-adv-x="251" 
d="M-96 -191v72q24 -8 42 -11.5t43 -3.5q43 0 67.5 26.5t24.5 83.5v524h41q48 0 48 -56v-469q0 -79 -41 -133t-124 -54q-49 0 -101 21z" />
    <glyph glyph-name="circumflex" unicode="&#x2c6;" horiz-adv-x="600" 
d="M153 631l147 99l102 -68q25 -17 35 -31.5t10 -38.5v-27l-147 85l-147 -85v66z" />
    <glyph glyph-name="caron" unicode="&#x2c7;" horiz-adv-x="600" 
d="M198 639q-25 17 -35 31.5t-10 38.5v27l147 -85l147 85v-66l-147 -99z" />
    <glyph glyph-name="breve" unicode="&#x2d8;" horiz-adv-x="600" 
d="M145 651v68q37 -31 74 -48.5t81 -17.5t81 17.5t74 48.5v-25q0 -24 -7 -41t-27 -31q-53 -38 -121 -38q-88 0 -155 67z" />
    <glyph glyph-name="dotaccent" unicode="&#x2d9;" horiz-adv-x="600" 
d="M259.5 599q-15.5 16 -15.5 42t16 42t39 16q24 0 40 -16t16 -42t-16.5 -42t-39.5 -16q-24 0 -39.5 16z" />
    <glyph glyph-name="ring" unicode="&#x2da;" horiz-adv-x="600" 
d="M219.5 594q-33.5 33 -33.5 80q0 48 33 80.5t81 32.5t81 -32.5t33 -80.5q0 -47 -33.5 -80t-80.5 -33t-80.5 33zM340 633.5q16 16.5 16 40.5t-16 40.5t-40 16.5t-40 -16.5t-16 -40.5t16 -40.5t40 -16.5t40 16.5z" />
    <glyph glyph-name="tilde" unicode="&#x2dc;" horiz-adv-x="600" 
d="M332 596.5q-19 6.5 -42 18.5q-20 10 -34 15.5t-29 5.5q-29 0 -51 -8.5t-45 -29.5v67q23 22 45.5 31t51.5 9q18 0 34.5 -6t40.5 -18q22 -11 37.5 -17t32.5 -6q29 0 51 9.5t45 30.5v-34q0 -41 -33 -59q-26 -15 -64 -15q-21 0 -40 6.5z" />
    <glyph glyph-name="gravecomb" unicode="&#x300;" horiz-adv-x="0" 
d="M-94 632q-30 10 -43 24.5t-13 38.5v38l241 -104v-64z" />
    <glyph glyph-name="acutecomb" unicode="&#x301;" horiz-adv-x="0" 
d="M-92 629l241 104v-38q0 -24 -13 -38t-43 -25l-185 -67v64z" />
    <glyph glyph-name="uni0302" unicode="&#x302;" horiz-adv-x="0" 
d="M-147 631l147 99l102 -68q25 -17 35 -31.5t10 -38.5v-27l-147 85l-147 -85v66z" />
    <glyph glyph-name="tildecomb" unicode="&#x303;" horiz-adv-x="0" 
d="M32 596.5q-19 6.5 -42 18.5q-20 10 -34 15.5t-29 5.5q-29 0 -51 -8.5t-45 -29.5v67q23 22 45.5 31t51.5 9q18 0 34.5 -6t40.5 -18q22 -11 37.5 -17t32.5 -6q29 0 51 9.5t45 30.5v-34q0 -41 -33 -59q-26 -15 -64 -15q-21 0 -40 6.5z" />
    <glyph glyph-name="uni0306" unicode="&#x306;" horiz-adv-x="0" 
d="M-155 651v68q37 -31 74 -48.5t81 -17.5t81 17.5t74 48.5v-25q0 -24 -7 -41t-27 -31q-53 -38 -121 -38q-88 0 -155 67z" />
    <glyph glyph-name="uni0307" unicode="&#x307;" horiz-adv-x="0" 
d="M-40.5 599q-15.5 16 -15.5 42t16 42t39 16q24 0 40 -16t16 -42t-16.5 -42t-39.5 -16q-24 0 -39.5 16z" />
    <glyph glyph-name="uni0308" unicode="&#x308;" horiz-adv-x="0" 
d="M-139.5 601q-15.5 16 -15.5 42t16 42t39 16q24 0 40 -16t16 -42t-16.5 -42t-39.5 -16q-24 0 -39.5 16zM58.5 601q-15.5 16 -15.5 42t16 42t39 16q24 0 40 -16t16 -42t-16.5 -42t-39.5 -16q-24 0 -39.5 16z" />
    <glyph glyph-name="uni030A" unicode="&#x30a;" horiz-adv-x="0" 
d="M-80.5 594q-33.5 33 -33.5 80q0 48 33 80.5t81 32.5t81 -32.5t33 -80.5q0 -47 -33.5 -80t-80.5 -33t-80.5 33zM40 633.5q16 16.5 16 40.5t-16 40.5t-40 16.5t-40 -16.5t-16 -40.5t16 -40.5t40 -16.5t40 16.5z" />
    <glyph glyph-name="uni030C" unicode="&#x30c;" horiz-adv-x="0" 
d="M-102 639q-25 17 -35 31.5t-10 38.5v27l147 -85l147 85v-66l-147 -99z" />
    <glyph glyph-name="uni0326" unicode="&#x326;" horiz-adv-x="0" 
d="M-31 -56h76q-4 -40 -20 -79.5t-42 -71.5h-72q44 66 58 151z" />
    <glyph glyph-name="uni0327" unicode="&#x327;" horiz-adv-x="0" 
d="M-96.5 -222.5q-32.5 6.5 -63.5 23.5v60q35 -16 61.5 -21.5t58.5 -5.5q61 0 61 31q0 29 -48 29q-29 0 -48 -3v50q37 6 69 6q52 0 81 -23.5t29 -63.5t-36.5 -64.5t-92.5 -24.5q-39 0 -71.5 6.5z" />
    <glyph glyph-name="Wgrave" unicode="&#x1e80;" horiz-adv-x="935" 
d="M16 700h30q32 0 51.5 -17t27.5 -48l134 -530l163 595h101l157 -598l151 598h88l-194 -700h-98l-158 596l-162 -596h-102zM373 817q-28 9 -42.5 24.5t-14.5 40.5v36l245 -94v-66z" />
    <glyph glyph-name="wgrave" unicode="&#x1e81;" horiz-adv-x="745" 
d="M12 500h40q28 0 45 -18t25 -46l91 -339l120 403h94l116 -403l103 403h88l-150 -500h-89l-119 405l-122 -405h-90zM283 632q-30 10 -43 24.5t-13 38.5v38l241 -104v-64z" />
    <glyph glyph-name="Wacute" unicode="&#x1e82;" horiz-adv-x="935" 
d="M16 700h30q32 0 51.5 -17t27.5 -48l134 -530l163 595h101l157 -598l151 598h88l-194 -700h-98l-158 596l-162 -596h-102zM371 824l245 94v-36q0 -25 -14.5 -40.5t-42.5 -24.5l-188 -59v66z" />
    <glyph glyph-name="wacute" unicode="&#x1e83;" horiz-adv-x="745" 
d="M12 500h40q28 0 45 -18t25 -46l91 -339l120 403h94l116 -403l103 403h88l-150 -500h-89l-119 405l-122 -405h-90zM284 629l241 104v-38q0 -24 -13 -38t-43 -25l-185 -67v64z" />
    <glyph glyph-name="Wdieresis" unicode="&#x1e84;" horiz-adv-x="935" 
d="M16 700h30q32 0 51.5 -17t27.5 -48l134 -530l163 595h101l157 -598l151 598h88l-194 -700h-98l-158 596l-162 -596h-102zM325.5 785q-15.5 16 -15.5 42t16 42t39 16q24 0 40 -16t16 -42t-16.5 -42t-39.5 -16q-24 0 -39.5 16zM527.5 785q-15.5 16 -15.5 42t16 42t39 16
q24 0 40 -16t16 -42t-16.5 -42t-39.5 -16q-24 0 -39.5 16z" />
    <glyph glyph-name="wdieresis" unicode="&#x1e85;" horiz-adv-x="745" 
d="M12 500h40q28 0 45 -18t25 -46l91 -339l120 403h94l116 -403l103 403h88l-150 -500h-89l-119 405l-122 -405h-90zM236.5 601q-15.5 16 -15.5 42t16 42t39 16q24 0 40 -16t16 -42t-16.5 -42t-39.5 -16q-24 0 -39.5 16zM434.5 601q-15.5 16 -15.5 42t16 42t39 16
q24 0 40 -16t16 -42t-16.5 -42t-39.5 -16q-24 0 -39.5 16z" />
    <glyph glyph-name="uni1E9E" unicode="&#x1e9e;" horiz-adv-x="675" 
d="M577 329q64 -53 64 -141q0 -90 -58 -145t-161 -55q-94 0 -172 46v78q50 -24 83.5 -34.5t80.5 -10.5q61 0 98.5 31.5t37.5 89.5q0 64 -49.5 97t-135.5 33h-67v54l194 197q-11 29 -49 46.5t-93 17.5q-89 0 -136.5 -52t-47.5 -155v-426h-90v414q0 144 71.5 221t203.5 77
q58 0 106.5 -15.5t79.5 -43.5q20 -18 31 -41t11 -44v-7l-175 -174q109 -5 173 -58z" />
    <glyph glyph-name="Ygrave" unicode="&#x1ef2;" horiz-adv-x="607" 
d="M258 291l-252 409h48q31 0 48 -14t38 -49l165 -273l201 336h95l-251 -409v-291h-92v291zM201 817q-28 9 -42.5 24.5t-14.5 40.5v36l245 -94v-66z" />
    <glyph glyph-name="ygrave" unicode="&#x1ef3;" horiz-adv-x="514" 
d="M226 7l-218 492h46q30 0 46 -13t29 -47l141 -346l145 406h91l-270 -699h-86zM177 632q-30 10 -43 24.5t-13 38.5v38l241 -104v-64z" />
    <glyph glyph-name="uni2000" unicode="&#x2000;" horiz-adv-x="500" 
 />
    <glyph glyph-name="uni2001" unicode="&#x2001;" horiz-adv-x="1000" 
 />
    <glyph glyph-name="uni2002" unicode="&#x2002;" horiz-adv-x="500" 
 />
    <glyph glyph-name="uni2003" unicode="&#x2003;" horiz-adv-x="1000" 
 />
    <glyph glyph-name="uni2004" unicode="&#x2004;" horiz-adv-x="335" 
 />
    <glyph glyph-name="uni2005" unicode="&#x2005;" horiz-adv-x="250" 
 />
    <glyph glyph-name="uni2006" unicode="&#x2006;" horiz-adv-x="166" 
 />
    <glyph glyph-name="uni2007" unicode="&#x2007;" 
 />
    <glyph glyph-name="uni2008" unicode="&#x2008;" horiz-adv-x="260" 
 />
    <glyph glyph-name="uni2009" unicode="&#x2009;" horiz-adv-x="150" 
 />
    <glyph glyph-name="uni200A" unicode="&#x200a;" horiz-adv-x="125" 
 />
    <glyph glyph-name="uni200B" unicode="&#x200b;" horiz-adv-x="0" 
 />
    <glyph glyph-name="uni2010" unicode="&#x2010;" horiz-adv-x="527" 
d="M74 328h379v-91h-379v91z" />
    <glyph glyph-name="endash" unicode="&#x2013;" horiz-adv-x="500" 
d="M0 328h500v-91h-500v91z" />
    <glyph glyph-name="emdash" unicode="&#x2014;" horiz-adv-x="1000" 
d="M0 328h1000v-91h-1000v91z" />
    <glyph glyph-name="quoteleft" unicode="&#x2018;" horiz-adv-x="260" 
d="M153 465h-86q6 106 79 235h72q-52 -119 -65 -235z" />
    <glyph glyph-name="quoteright" unicode="&#x2019;" horiz-adv-x="260" 
d="M107 700h86q-6 -106 -79 -235h-72q52 119 65 235z" />
    <glyph glyph-name="quotesinglbase" unicode="&#x201a;" horiz-adv-x="252" 
d="M90 92h86q-6 -106 -79 -235h-72q52 119 65 235z" />
    <glyph glyph-name="quotedblleft" unicode="&#x201c;" horiz-adv-x="410" 
d="M151 465h-84q6 106 79 235h70q-52 -119 -65 -235zM303 465h-84q6 106 79 235h70q-52 -119 -65 -235z" />
    <glyph glyph-name="quotedblright" unicode="&#x201d;" horiz-adv-x="410" 
d="M107 700h84q-6 -106 -79 -235h-70q52 119 65 235zM259 700h84q-6 -106 -79 -235h-70q52 119 65 235z" />
    <glyph glyph-name="quotedblbase" unicode="&#x201e;" horiz-adv-x="402" 
d="M90 92h84q-6 -106 -79 -235h-70q52 119 65 235zM242 92h84q-6 -106 -79 -235h-70q52 119 65 235z" />
    <glyph glyph-name="bullet" unicode="&#x2022;" horiz-adv-x="440" 
d="M132 268q-36 34 -36 90t36 90t88 34t88 -34t36 -90t-36 -90t-88 -34t-88 34z" />
    <glyph glyph-name="ellipsis" unicode="&#x2026;" horiz-adv-x="752" 
d="M88.5 4.5q-16.5 16.5 -16.5 44.5t16.5 44.5t41.5 16.5t41.5 -16.5t16.5 -44.5t-17 -44.5t-41 -16.5q-25 0 -41.5 16.5zM334.5 4.5q-16.5 16.5 -16.5 44.5t16.5 44.5t41.5 16.5t41.5 -16.5t16.5 -44.5t-17 -44.5t-41 -16.5q-25 0 -41.5 16.5zM580.5 4.5
q-16.5 16.5 -16.5 44.5t16.5 44.5t41.5 16.5t41.5 -16.5t16.5 -44.5t-17 -44.5t-41 -16.5q-25 0 -41.5 16.5z" />
    <glyph glyph-name="minute" unicode="&#x2032;" horiz-adv-x="223" 
d="M67 718h89l-6 -274h-77z" />
    <glyph glyph-name="second" unicode="&#x2033;" horiz-adv-x="406" 
d="M67 718h89l-6 -274h-77zM250 718h89l-5 -274h-78z" />
    <glyph glyph-name="guilsinglleft" unicode="&#x2039;" horiz-adv-x="326" 
d="M58 253l128 194h89l-128 -194l128 -193h-89z" />
    <glyph glyph-name="guilsinglright" unicode="&#x203a;" horiz-adv-x="326" 
d="M179 252l-128 194h89l128 -194l-128 -193h-89z" />
    <glyph glyph-name="Euro" unicode="&#x20ac;" 
d="M493 79.5q41 11.5 97 40.5v-76q-49 -29 -96.5 -42.5t-100.5 -13.5q-101 0 -169.5 63t-91.5 178h-81l17 76h55q-1 12 -1 37q0 17 2 49h-73l17 76h69q28 109 100.5 171t170.5 62q39 0 76 -8.5t61 -24.5q23 -15 29.5 -33t6.5 -49v-20q-43 30 -82 42.5t-89 12.5
q-69 0 -115.5 -40.5t-68.5 -112.5h241l-17 -76h-238q-2 -30 -2 -46q0 -27 1 -40h225l-18 -76h-195q19 -76 64 -118.5t112 -42.5q53 0 94 11.5z" />
    <glyph glyph-name="trademark" unicode="&#x2122;" horiz-adv-x="897" 
d="M364 659v-25h-136v-311h-74v311h-136v65h308q38 0 38 -40zM830 660v-337h-73v284l-104 -169h-52l-105 165v-280h-72v376h84l120 -187l117 187h47q38 0 38 -39z" />
    <glyph glyph-name="minus" unicode="&#x2212;" 
d="M104 380h428v-81h-428v81z" />
    <glyph glyph-name="ij.001" horiz-adv-x="504" 
d="M82 500h41q24 0 36 -15t12 -41v-444h-89v500zM86.5 599q-15.5 16 -15.5 42t16 42t39 16q24 0 40 -16t16 -42t-16.5 -42t-39.5 -16q-24 0 -39.5 16zM157 -191v72q24 -8 42 -11.5t43 -3.5q43 0 67.5 26.5t24.5 83.5v524h41q48 0 48 -56v-469q0 -79 -41 -133t-124 -54
q-49 0 -101 21zM338.5 599q-15.5 16 -15.5 42t16 42t39 16q24 0 40 -16t16 -42t-16.5 -42t-39.5 -16q-24 0 -39.5 16z" />
    <glyph glyph-name="zero.lf" horiz-adv-x="652" 
d="M182.5 29.5q-61.5 41.5 -95.5 121.5t-34 194q0 112 35.5 192.5t97.5 121.5t141 41q83 0 144 -41t94.5 -120.5t33.5 -193.5q0 -113 -35 -193.5t-96.5 -122t-140.5 -41.5q-83 0 -144.5 41.5zM461 140.5q46 72.5 46 204.5q0 133 -44.5 204t-135.5 71q-88 0 -135 -72
t-47 -203q0 -134 45 -205.5t137 -71.5q88 0 134 72.5z" />
    <glyph glyph-name="one.lf" horiz-adv-x="567" 
d="M533 83v-83h-454v83h194v520l-213 -67v76l226 80h28q25 0 37 -15t12 -41v-553h170z" />
    <glyph glyph-name="two.lf" horiz-adv-x="615" 
d="M82 86l82 73q104 91 155 140.5t80 96.5t29 94q0 130 -150 130q-88 0 -200 -47v77q110 50 207 50q115 0 175 -55t60 -148q0 -67 -36 -126.5t-97 -117.5t-194 -170h344v-83h-455v86z" />
    <glyph glyph-name="three.lf" horiz-adv-x="619" 
d="M162.5 4q-57.5 16 -107.5 43v74q62 -28 106 -40.5t107 -12.5q86 0 130 35.5t44 95.5q0 69 -55 96.5t-171 31.5v68l191 210h-350v83h407q46 0 46 -48v-21l-204 -225q104 -10 166 -59t62 -140q0 -59 -31.5 -106t-90.5 -74t-139 -27q-53 0 -110.5 16z" />
    <glyph glyph-name="four.lf" horiz-adv-x="616" 
d="M577 173h-100v-173h-86v173h-353v80l355 435h39q25 0 35 -14t10 -42v-379h100v-80zM391 253v319l-263 -319h263z" />
    <glyph glyph-name="five.lf" horiz-adv-x="607" 
d="M215 605l-29 -204q72 8 121 8q112 0 175 -54.5t63 -155.5q0 -60 -32 -108t-90.5 -75.5t-135.5 -27.5q-112 0 -219 56v74q60 -26 106 -38t108 -12q80 0 125.5 36.5t45.5 95.5q0 70 -44.5 101.5t-129.5 31.5q-45 0 -94.5 -4.5t-84.5 -11.5l50 371h310q25 0 37 -15t12 -41
v-27h-294z" />
    <glyph glyph-name="six.lf" horiz-adv-x="616" 
d="M499.5 371.5q64.5 -54.5 64.5 -153.5q0 -106 -66.5 -168t-178.5 -62q-83 0 -142 40t-89 110.5t-30 162.5q0 123 37 213t104 138t157 48q95 0 144 -40q14 -12 18.5 -26.5t4.5 -39.5v-23q-36 25 -72.5 37t-85.5 12q-183 0 -212 -230q88 36 168 36q114 0 178.5 -54.5z
M433 105.5q40 37.5 40 109.5q0 66 -40.5 99.5t-125.5 33.5q-40 0 -82.5 -9t-76.5 -23v-13q0 -105 44.5 -170t127.5 -65q73 0 113 37.5z" />
    <glyph glyph-name="seven.lf" horiz-adv-x="578" 
d="M420 605h-372v83h418q24 0 36.5 -14.5t12.5 -37.5v-17l-233 -619h-99z" />
    <glyph glyph-name="eight.lf" horiz-adv-x="654" 
d="M561 296q31 -43 31 -104q0 -97 -71.5 -150.5t-193.5 -53.5q-123 0 -194 54t-71 150q0 60 32.5 102.5t88.5 65.5q-47 23 -74 62.5t-27 91.5q0 88 68 137t177 49q117 0 181 -48.5t64 -137.5q0 -52 -26 -90.5t-72 -61.5q56 -23 87 -66zM169 511q0 -116 158 -116
q159 0 159 116q0 58 -39 85t-120 27q-158 0 -158 -112zM504 193q0 63 -44.5 95.5t-131.5 32.5t-132 -32.5t-45 -95.5t44.5 -95t132.5 -32q176 0 176 127z" />
    <glyph glyph-name="nine.lf" horiz-adv-x="605" 
d="M484.5 610q62.5 -90 62.5 -239q0 -186 -70.5 -284.5t-210.5 -98.5q-49 0 -95.5 13t-77.5 33v74q35 -21 74 -30.5t89 -9.5q98 0 145.5 54.5t58.5 170.5q-87 -33 -169 -33q-110 0 -174.5 55.5t-64.5 160.5q0 67 32 117.5t88 78.5t125 28q125 0 187.5 -90zM388.5 344.5
q41.5 9.5 74.5 23.5v9q0 112 -40.5 177.5t-126.5 65.5q-71 0 -113.5 -37t-42.5 -106q0 -68 41.5 -105t125.5 -37q40 0 81.5 9.5z" />
    <glyph glyph-name="zero.tf" 
d="M174.5 29.5q-61.5 41.5 -95.5 121.5t-34 194q0 112 35.5 192.5t97.5 121.5t141 41q83 0 144 -41t94.5 -120.5t33.5 -193.5q0 -113 -35 -193.5t-96.5 -122t-140.5 -41.5q-83 0 -144.5 41.5zM453 140.5q46 72.5 46 204.5q0 133 -44.5 204t-135.5 71q-88 0 -135 -72
t-47 -203q0 -134 45 -205.5t137 -71.5q88 0 134 72.5z" />
    <glyph glyph-name="one.tf" 
d="M583 83v-83h-454v83h194v520l-213 -67v76l226 80h28q25 0 37 -15t12 -41v-553h170z" />
    <glyph glyph-name="two.tf" 
d="M94 86l82 73q104 91 155 140.5t80 96.5t29 94q0 130 -150 130q-88 0 -200 -47v77q110 50 207 50q115 0 175 -55t60 -148q0 -67 -36 -126.5t-97 -117.5t-194 -170h344v-83h-455v86z" />
    <glyph glyph-name="three.tf" 
d="M176.5 4q-57.5 16 -107.5 43v74q62 -28 106 -40.5t107 -12.5q86 0 130 35.5t44 95.5q0 69 -55 96.5t-171 31.5v68l191 210h-350v83h407q46 0 46 -48v-21l-204 -225q104 -10 166 -59t62 -140q0 -59 -31.5 -106t-90.5 -74t-139 -27q-53 0 -110.5 16z" />
    <glyph glyph-name="four.tf" 
d="M598 173h-100v-173h-86v173h-353v80l355 435h39q25 0 35 -14t10 -42v-379h100v-80zM412 253v319l-263 -319h263z" />
    <glyph glyph-name="five.tf" 
d="M225 605l-29 -204q72 8 121 8q112 0 175 -54.5t63 -155.5q0 -60 -32 -108t-90.5 -75.5t-135.5 -27.5q-112 0 -219 56v74q60 -26 106 -38t108 -12q80 0 125.5 36.5t45.5 95.5q0 70 -44.5 101.5t-129.5 31.5q-45 0 -94.5 -4.5t-84.5 -11.5l50 371h310q25 0 37 -15t12 -41
v-27h-294z" />
    <glyph glyph-name="six.tf" 
d="M510.5 371.5q64.5 -54.5 64.5 -153.5q0 -106 -66.5 -168t-178.5 -62q-83 0 -142 40t-89 110.5t-30 162.5q0 123 37 213t104 138t157 48q95 0 144 -40q14 -12 18.5 -26.5t4.5 -39.5v-23q-36 25 -72.5 37t-85.5 12q-183 0 -212 -230q88 36 168 36q114 0 178.5 -54.5z
M444 105.5q40 37.5 40 109.5q0 66 -40.5 99.5t-125.5 33.5q-40 0 -82.5 -9t-76.5 -23v-13q0 -105 44.5 -170t127.5 -65q73 0 113 37.5z" />
    <glyph glyph-name="seven.tf" 
d="M450 605h-372v83h418q24 0 36.5 -14.5t12.5 -37.5v-17l-233 -619h-99z" />
    <glyph glyph-name="eight.tf" 
d="M553 296q31 -43 31 -104q0 -97 -71.5 -150.5t-193.5 -53.5q-123 0 -194 54t-71 150q0 60 32.5 102.5t88.5 65.5q-47 23 -74 62.5t-27 91.5q0 88 68 137t177 49q117 0 181 -48.5t64 -137.5q0 -52 -26 -90.5t-72 -61.5q56 -23 87 -66zM161 511q0 -116 158 -116
q159 0 159 116q0 58 -39 85t-120 27q-158 0 -158 -112zM496 193q0 63 -44.5 95.5t-131.5 32.5t-132 -32.5t-45 -95.5t44.5 -95t132.5 -32q176 0 176 127z" />
    <glyph glyph-name="nine.tf" 
d="M495.5 610q62.5 -90 62.5 -239q0 -186 -70.5 -284.5t-210.5 -98.5q-49 0 -95.5 13t-77.5 33v74q35 -21 74 -30.5t89 -9.5q98 0 145.5 54.5t58.5 170.5q-87 -33 -169 -33q-110 0 -174.5 55.5t-64.5 160.5q0 67 32 117.5t88 78.5t125 28q125 0 187.5 -90zM399.5 344.5
q41.5 9.5 74.5 23.5v9q0 112 -40.5 177.5t-126.5 65.5q-71 0 -113.5 -37t-42.5 -106q0 -68 41.5 -105t125.5 -37q40 0 81.5 9.5z" />
    <glyph glyph-name="backslash.case" horiz-adv-x="491" 
d="M20 774h41q30 0 47 -15.5t29 -44.5l334 -794h-92z" />
    <glyph glyph-name="exclamdown.case" horiz-adv-x="242" 
d="M169 0h-43q-51 0 -51 55v4l6 464h81zM162.5 695.5q16.5 -16.5 16.5 -44.5t-16.5 -44.5t-41.5 -16.5t-41.5 16.5t-16.5 44.5t17 44.5t41 16.5q25 0 41.5 -16.5z" />
    <glyph glyph-name="questiondown.case" horiz-adv-x="528" 
d="M333 376q-84 -23 -130 -50t-63.5 -58.5t-17.5 -74.5q0 -56 42 -89.5t125 -33.5q47 0 100.5 12t103.5 32v-77q-111 -47 -210 -47q-119 0 -186 54.5t-67 148.5q0 79 50 133t170 94l2 105h79zM333.5 697.5q16.5 -16.5 16.5 -44.5t-16.5 -44.5t-41.5 -16.5t-41.5 16.5
t-16.5 44.5t17 44.5t41 16.5q25 0 41.5 -16.5z" />
    <glyph glyph-name="slash.case" horiz-adv-x="491" 
d="M379 774h92l-334 -794q-12 -29 -29 -44.5t-47 -15.5h-41z" />
    <glyph glyph-name="braceleft.case" horiz-adv-x="387" 
d="M201 -55.5q-43 24.5 -67 69t-24 104.5v96q0 35 -22 60.5t-58 35.5v74q36 10 58 35.5t22 60.5v96q0 91 53 144.5t144 53.5h11q25 0 37 -15t12 -41v-24h-42q-65 0 -97 -30.5t-32 -94.5v-87q0 -44 -20 -81t-64 -54q44 -17 64 -54t20 -81v-77q0 -66 33.5 -100.5t92.5 -34.5
h45v-80h-67q-56 0 -99 24.5z" />
    <glyph glyph-name="braceright.case" horiz-adv-x="387" 
d="M32 -65q-12 15 -12 41v24h42q65 0 97 31t32 95v87q0 44 20 81t64 54q-44 17 -64 54t-20 81v77q0 66 -33.5 100.5t-92.5 34.5h-45v80h67q56 0 99 -24.5t67 -69t24 -104.5v-96q0 -35 22 -60.5t58 -35.5v-74q-36 -10 -58 -35.5t-22 -60.5v-96q0 -92 -53 -145.5t-144 -53.5
h-11q-25 0 -37 15z" />
    <glyph glyph-name="bracketleft.case" horiz-adv-x="384" 
d="M179 691v-688h185v-83h-274v854h225q25 0 37 -15t12 -41v-27h-185z" />
    <glyph glyph-name="bracketright.case" horiz-adv-x="384" 
d="M294 -80h-225q-25 0 -37 15t-12 41v27h185v688h-185v83h274v-854z" />
    <glyph glyph-name="parenleft.case" horiz-adv-x="322" 
d="M104.5 98q-39.5 110 -39.5 245q0 133 38 234.5t90 172.5q36 49 90 49h29q-74 -99 -114.5 -203t-40.5 -253q0 -144 41.5 -251.5t113.5 -204.5h-84q-84 101 -123.5 211z" />
    <glyph glyph-name="parenright.case" horiz-adv-x="323" 
d="M125.5 90.5q40.5 104.5 40.5 253.5q0 144 -41.5 252t-114.5 204h85q84 -101 123.5 -211t39.5 -245q0 -133 -38 -235.5t-90 -172.5q-36 -49 -90 -49h-29q74 99 114.5 203.5z" />
    <glyph glyph-name="emdash.case" horiz-adv-x="1000" 
d="M0 398h1000v-91h-1000v91z" />
    <glyph glyph-name="endash.case" horiz-adv-x="500" 
d="M0 398h500v-91h-500v91z" />
    <glyph glyph-name="hyphen.case" horiz-adv-x="527" 
d="M74 398h379v-91h-379v91z" />
    <glyph glyph-name="uni2010.case" horiz-adv-x="527" 
d="M74 408h379v-91h-379v91z" />
    <glyph glyph-name="uni00AD.case" horiz-adv-x="527" 
d="M74 408h379v-91h-379v91z" />
    <glyph glyph-name="guillemotleft.case" horiz-adv-x="517" 
d="M58 343l128 193h86l-128 -193l128 -194h-86zM253 343l128 193h85l-128 -193l128 -194h-85z" />
    <glyph glyph-name="guillemotright.case" horiz-adv-x="518" 
d="M179 342l-128 194h86l128 -194l-128 -193h-86zM374 342l-128 194h86l128 -194l-128 -193h-86z" />
    <glyph glyph-name="guilsinglleft.case" horiz-adv-x="326" 
d="M58 343l128 194h89l-128 -194l128 -193h-89z" />
    <glyph glyph-name="guilsinglright.case" horiz-adv-x="326" 
d="M179 342l-128 194h89l128 -194l-128 -193h-89z" />
    <glyph glyph-name="at.case" horiz-adv-x="1000" 
d="M820 257q47 63 47 153q0 84 -43 150.5t-120 104t-175 37.5q-116 0 -206 -49.5t-140 -135.5t-50 -191q0 -107 48 -192t134 -133.5t195 -48.5q130 0 210 33v-71q-92 -37 -211 -37q-133 0 -237 57t-162 159t-58 233q0 126 61.5 229t170.5 162t245 59q118 0 214 -47.5
t150.5 -131t54.5 -187.5q0 -88 -37.5 -158t-101.5 -109.5t-141 -39.5h-8q-26 0 -39 15t-15 47q-33 -31 -68.5 -47.5t-70.5 -16.5q-52 0 -92.5 26.5t-63 75t-22.5 111.5q0 70 30.5 124t84 83.5t120.5 29.5q50 0 88 -8t82 -26v-336q79 13 126 76zM606 466q-34 9 -82 9
q-66 0 -107 -42t-41 -115q0 -141 113 -141q32 0 58.5 12t58.5 40v237z" />
    <glyph glyph-name="uni0308.case" horiz-adv-x="0" 
d="M-141.5 785q-15.5 16 -15.5 42t16 42t39 16q24 0 40 -16t16 -42t-16.5 -42t-39.5 -16q-24 0 -39.5 16zM60.5 785q-15.5 16 -15.5 42t16 42t39 16q24 0 40 -16t16 -42t-16.5 -42t-39.5 -16q-24 0 -39.5 16z" />
    <glyph glyph-name="gravecomb.case" horiz-adv-x="0" 
d="M-94 817q-28 9 -42.5 24.5t-14.5 40.5v36l245 -94v-66z" />
    <glyph glyph-name="acutecomb.case" horiz-adv-x="0" 
d="M-96 824l245 94v-36q0 -25 -14.5 -40.5t-42.5 -24.5l-188 -59v66z" />
    <glyph glyph-name="uni0302.case" horiz-adv-x="0" 
d="M-160 824l160 95l113 -67q25 -15 36 -29t11 -41v-24l-160 77l-160 -77v66z" />
    <glyph glyph-name="uni030C.case" horiz-adv-x="0" 
d="M-113 832q-25 15 -36 29t-11 41v24l160 -77l160 77v-66l-160 -95z" />
    <glyph glyph-name="uni0306.case" horiz-adv-x="0" 
d="M-155 830v70q37 -31 74 -48t81 -17t81 17t74 48v-38q0 -22 -11 -37.5t-24 -24.5q-56 -37 -120 -37q-88 0 -155 67z" />
    <glyph glyph-name="uni030A.case" horiz-adv-x="0" 
d="M-85.5 682q-35.5 35 -35.5 85q0 51 35 85.5t86 34.5t86 -34.5t35 -85.5q0 -50 -35.5 -85t-85.5 -35t-85.5 35zM42 724q17 17 17 43t-17 43t-42 17t-42 -17t-17 -43t17 -43t42 -17t42 17z" />
    <glyph glyph-name="tildecomb.case" horiz-adv-x="0" 
d="M-12 799q-37 22 -63 22q-29 0 -51.5 -9.5t-46.5 -31.5v68q23 23 46.5 33t52.5 10q19 0 35.5 -6.5t40.5 -19.5q22 -12 38 -18.5t33 -6.5q29 0 51.5 10.5t46.5 32.5v-39q0 -35 -25 -51q-35 -22 -74 -22q-37 0 -84 28z" />
    <glyph glyph-name="uni0326.case" horiz-adv-x="0" 
d="M-31 -56h79q-5 -40 -21.5 -80t-43.5 -73h-75q45 66 61 153z" />
    <glyph glyph-name="uni0327.case" horiz-adv-x="0" 
d="M-105.5 -225.5q-34.5 6.5 -68.5 24.5v61q38 -16 66.5 -22t62.5 -6q65 0 65 32q0 31 -51 31q-31 0 -51 -3v51q41 6 73 6q57 0 88 -24t31 -66t-39 -66.5t-100 -24.5q-42 0 -76.5 6.5z" />
    </font>
</defs>
</svg>
